<svg xmlns="http://www.w3.org/2000/svg" xmlns:xlink="http://www.w3.org/1999/xlink" contentStyleType="text/css" data-diagram-type="CLASS" height="1253px" preserveAspectRatio="none" style="width:1397px;height:1253px;background:#FFFFFF;" version="1.1" viewBox="0 0 1397 1253" width="1397px" zoomAndPan="magnify"><title>Application Error Re-export Pattern
Preventing Transitive Domain Access</title><defs/><g><g class="title" data-source-line="3"><text fill="#000000" font-family="Verdana" font-size="22" font-weight="bold" lengthAdjust="spacing" textLength="439.5703" x="474.2148" y="37.1182">Application Error Re-export Pattern</text><text fill="#000000" font-family="Verdana" font-size="22" font-weight="bold" lengthAdjust="spacing" textLength="458.9385" x="464.5308" y="63.8555">Preventing Transitive Domain Access</text></g><!--cluster Domain--><g class="cluster" data-entity="Domain" data-source-line="5" data-uid="ent0002" id="cluster_Domain"><path d="M570.5,85.4746 L680.082,85.4746 A3.75,3.75 0 0 1 682.582,87.9746 L689.582,108.4893 L807.5,108.4893 A2.5,2.5 0 0 1 810,110.9893 L810,281.0646 A2.5,2.5 0 0 1 807.5,283.5646 L570.5,283.5646 A2.5,2.5 0 0 1 568,281.0646 L568,87.9746 A2.5,2.5 0 0 1 570.5,85.4746" fill="#FFF9E6" style="stroke:#000000;stroke-width:1;"/><line style="stroke:#000000;stroke-width:1;" x1="568" x2="689.582" y1="108.4893" y2="108.4893"/><text fill="#000000" font-family="Verdana" font-size="14" font-weight="bold" lengthAdjust="spacing" textLength="108.582" x="572" y="101.5498">Domain Layer</text></g><!--cluster Application--><g class="cluster" data-entity="Application" data-source-line="17" data-uid="ent0004" id="cluster_Application"><path d="M349.5,400.1046 L487.2803,400.1046 A3.75,3.75 0 0 1 489.7803,402.6046 L496.7803,423.1193 L644.5,423.1193 A2.5,2.5 0 0 1 647,425.6193 L647,934.8746 A2.5,2.5 0 0 1 644.5,937.3746 L349.5,937.3746 A2.5,2.5 0 0 1 347,934.8746 L347,402.6046 A2.5,2.5 0 0 1 349.5,400.1046" fill="#E8F5E9" style="stroke:#000000;stroke-width:1;"/><line style="stroke:#000000;stroke-width:1;" x1="347" x2="496.7803" y1="423.1193" y2="423.1193"/><text fill="#000000" font-family="Verdana" font-size="14" font-weight="bold" lengthAdjust="spacing" textLength="136.7803" x="351" y="416.1798">Application Layer</text></g><!--cluster Presentation--><g class="cluster" data-entity="Presentation" data-source-line="38" data-uid="ent0007" id="cluster_Presentation"><path d="M89.5,111.0046 L239.4961,111.0046 A3.75,3.75 0 0 1 241.9961,113.5046 L248.9961,134.0193 L390.5,134.0193 A2.5,2.5 0 0 1 393,136.5193 L393,255.5446 A2.5,2.5 0 0 1 390.5,258.0446 L89.5,258.0446 A2.5,2.5 0 0 1 87,255.5446 L87,113.5046 A2.5,2.5 0 0 1 89.5,111.0046" fill="#FFE4E1" style="stroke:#000000;stroke-width:1;"/><line style="stroke:#000000;stroke-width:1;" x1="87" x2="248.9961" y1="134.0193" y2="134.0193"/><text fill="#000000" font-family="Verdana" font-size="14" font-weight="bold" lengthAdjust="spacing" textLength="148.9961" x="91" y="127.0798">Presentation Layer</text></g><!--cluster Infrastructure--><g class="cluster" data-entity="Infrastructure" data-source-line="47" data-uid="ent0009" id="cluster_Infrastructure"><path d="M673.5,408.6146 L835.2266,408.6146 A3.75,3.75 0 0 1 837.7266,411.1146 L844.7266,431.6293 L996.5,431.6293 A2.5,2.5 0 0 1 999,434.1293 L999,604.2046 A2.5,2.5 0 0 1 996.5,606.7046 L673.5,606.7046 A2.5,2.5 0 0 1 671,604.2046 L671,411.1146 A2.5,2.5 0 0 1 673.5,408.6146" fill="#E6F3FF" style="stroke:#000000;stroke-width:1;"/><line style="stroke:#000000;stroke-width:1;" x1="671" x2="844.7266" y1="431.6293" y2="431.6293"/><text fill="#000000" font-family="Verdana" font-size="14" font-weight="bold" lengthAdjust="spacing" textLength="160.7266" x="675" y="424.6898">Infrastructure Layer</text></g><!--class DomainError--><g class="entity" data-entity="DomainError" data-source-line="6" data-uid="ent0003" id="entity_DomainError"><rect fill="#FFFFFF" height="146.0879" rx="2.5" ry="2.5" style="stroke:#000000;stroke-width:1;" width="210.6211" x="583.69" y="121.4746"/><ellipse cx="638.7183" cy="135.4746" fill="#FFFFFF" rx="9" ry="9" style="stroke:#000000;stroke-width:1;"/><path d="M641.1915,141.6177 Q640.6104,141.9165 639.9713,142.0659 Q639.3321,142.2153 638.6265,142.2153 Q636.1197,142.2153 634.7999,140.5635 Q633.48,138.9116 633.48,135.7905 Q633.48,132.6611 634.7999,131.0093 Q636.1197,129.3574 638.6265,129.3574 Q639.3321,129.3574 639.9796,129.5068 Q640.627,129.6563 641.1915,129.9551 L641.1915,132.6777 Q640.5606,132.0967 639.9671,131.8269 Q639.3736,131.5571 638.7427,131.5571 Q637.398,131.5571 636.7132,132.6238 Q636.0284,133.6904 636.0284,135.7905 Q636.0284,137.8823 636.7132,138.949 Q637.398,140.0156 638.7427,140.0156 Q639.3736,140.0156 639.9671,139.7458 Q640.5606,139.4761 641.1915,138.895 Z " fill="#000000"/><text fill="#000000" font-family="Verdana" font-size="14" lengthAdjust="spacing" textLength="93.0645" x="656.2183" y="141.0425">domain/error</text><line style="stroke:#000000;stroke-width:1;" x1="584.69" x2="793.3111" y1="149.4746" y2="149.4746"/><ellipse cx="594.69" cy="163.4819" fill="none" rx="3" ry="3" style="stroke:#000000;stroke-width:1;"/><text fill="#000000" font-family="Verdana" font-size="14" lengthAdjust="spacing" textLength="125.9043" x="601.69" y="167.5498">ErrorType : struct</text><ellipse cx="594.69" cy="180.4966" fill="none" rx="3" ry="3" style="stroke:#000000;stroke-width:1;"/><text fill="#000000" font-family="Verdana" font-size="14" lengthAdjust="spacing" textLength="113.4629" x="601.69" y="184.5645">ErrorKind : type</text><ellipse cx="594.69" cy="197.5112" fill="none" rx="3" ry="3" style="stroke:#000000;stroke-width:1;"/><text fill="#000000" font-family="Verdana" font-size="14" lengthAdjust="spacing" textLength="158.4434" x="601.69" y="201.5791">ValidationError : const</text><ellipse cx="594.69" cy="214.5259" fill="none" rx="3" ry="3" style="stroke:#000000;stroke-width:1;"/><text fill="#000000" font-family="Verdana" font-size="14" lengthAdjust="spacing" textLength="186.6211" x="601.69" y="218.5938">InfrastructureError : const</text><ellipse cx="594.69" cy="231.5405" fill="none" rx="3" ry="3" style="stroke:#000000;stroke-width:1;"/><text fill="#000000" font-family="Verdana" font-size="14" lengthAdjust="spacing" textLength="177.8779" x="601.69" y="235.6084">Result[T] : generic struct</text><line style="stroke:#000000;stroke-width:1;" x1="584.69" x2="793.3111" y1="242.5479" y2="242.5479"/><text fill="#000000" font-family="Verdana" font-size="14" lengthAdjust="spacing" textLength="184.9258" x="589.69" y="260.623">Canonical error definitions</text></g><!--class AppError--><g class="entity" data-entity="AppError" data-source-line="18" data-uid="ent0005" id="entity_AppError"><rect fill="#FFFFFF" height="163.1025" rx="2.5" ry="2.5" style="stroke:#000000;stroke-width:1;" width="232.5439" x="389.73" y="436.1046"/><ellipse cx="443.7158" cy="450.1046" fill="#FFFFFF" rx="9" ry="9" style="stroke:#000000;stroke-width:1;"/><path d="M446.189,456.2477 Q445.6079,456.5465 444.9688,456.6959 Q444.3296,456.8453 443.624,456.8453 Q441.1172,456.8453 439.7974,455.1935 Q438.4776,453.5416 438.4776,450.4205 Q438.4776,447.2911 439.7974,445.6393 Q441.1172,443.9874 443.624,443.9874 Q444.3296,443.9874 444.9771,444.1368 Q445.6245,444.2863 446.189,444.5851 L446.189,447.3077 Q445.5581,446.7267 444.9646,446.4569 Q444.3711,446.1871 443.7403,446.1871 Q442.3955,446.1871 441.7107,447.2538 Q441.0259,448.3204 441.0259,450.4205 Q441.0259,452.5123 441.7107,453.579 Q442.3955,454.6456 443.7403,454.6456 Q444.3711,454.6456 444.9646,454.3758 Q445.5581,454.1061 446.189,453.525 Z " fill="#000000"/><text fill="#000000" font-family="Verdana" font-size="14" lengthAdjust="spacing" textLength="117.0723" x="461.2158" y="455.6725">application/error</text><line style="stroke:#000000;stroke-width:1;" x1="390.73" x2="621.2739" y1="464.1046" y2="464.1046"/><ellipse cx="400.73" cy="478.1119" fill="none" rx="3" ry="3" style="stroke:#000000;stroke-width:1;"/><text fill="#000000" font-family="Verdana" font-size="14" lengthAdjust="spacing" textLength="153.0293" x="407.73" y="482.1798">ErrorType : type alias</text><ellipse cx="400.73" cy="495.1266" fill="none" rx="3" ry="3" style="stroke:#000000;stroke-width:1;"/><text fill="#000000" font-family="Verdana" font-size="14" lengthAdjust="spacing" textLength="150.1787" x="407.73" y="499.1945">ErrorKind : type alias</text><ellipse cx="400.73" cy="512.1412" fill="none" rx="3" ry="3" style="stroke:#000000;stroke-width:1;"/><text fill="#000000" font-family="Verdana" font-size="14" lengthAdjust="spacing" textLength="148.709" x="407.73" y="516.2091">Result[T] : type alias</text><ellipse cx="400.73" cy="529.1559" fill="none" rx="3" ry="3" style="stroke:#000000;stroke-width:1;"/><text fill="#000000" font-family="Verdana" font-size="14" lengthAdjust="spacing" textLength="180.3662" x="407.73" y="533.2238">ValidationError : var alias</text><ellipse cx="400.73" cy="546.1705" fill="none" rx="3" ry="3" style="stroke:#000000;stroke-width:1;"/><text fill="#000000" font-family="Verdana" font-size="14" lengthAdjust="spacing" textLength="208.5439" x="407.73" y="550.2384">InfrastructureError : var alias</text><line style="stroke:#000000;stroke-width:1;" x1="390.73" x2="621.2739" y1="557.1779" y2="557.1779"/><text fill="#000000" font-family="Verdana" font-size="14" font-weight="bold" lengthAdjust="spacing" textLength="199.2197" x="395.73" y="575.253">Re-exports domain/error</text><text fill="#000000" font-family="Verdana" font-size="14" lengthAdjust="spacing" textLength="203.6016" x="395.73" y="592.2677">Zero overhead (type aliases)</text></g><!--class Writer--><g class="entity" data-entity="Writer" data-source-line="29" data-uid="ent0006" id="entity_Writer"><rect fill="#FFFFFF" height="112.0586" rx="2.5" ry="2.5" style="stroke:#000000;stroke-width:1;" width="268.3232" x="362.84" y="809.3246"/><ellipse cx="401.2946" cy="823.3246" fill="#FFFFFF" rx="9" ry="9" style="stroke:#000000;stroke-width:1;"/><path d="M403.7677,829.4677 Q403.1867,829.7665 402.5475,829.9159 Q401.9084,830.0653 401.2028,830.0653 Q398.696,830.0653 397.3761,828.4135 Q396.0563,826.7616 396.0563,823.6405 Q396.0563,820.5111 397.3761,818.8593 Q398.696,817.2074 401.2028,817.2074 Q401.9084,817.2074 402.5558,817.3568 Q403.2033,817.5063 403.7677,817.8051 L403.7677,820.5277 Q403.1369,819.9467 402.5434,819.6769 Q401.9499,819.4071 401.319,819.4071 Q399.9743,819.4071 399.2895,820.4738 Q398.6046,821.5404 398.6046,823.6405 Q398.6046,825.7323 399.2895,826.799 Q399.9743,827.8656 401.319,827.8656 Q401.9499,827.8656 402.5434,827.5958 Q403.1369,827.3261 403.7677,826.745 Z " fill="#000000"/><text fill="#000000" font-family="Verdana" font-size="14" lengthAdjust="spacing" textLength="183.9141" x="418.7946" y="828.8925">application/port/outbound</text><line style="stroke:#000000;stroke-width:1;" x1="363.84" x2="630.1632" y1="837.3246" y2="837.3246"/><ellipse cx="373.84" cy="851.3319" fill="none" rx="3" ry="3" style="stroke:#000000;stroke-width:1;"/><text fill="#000000" font-family="Verdana" font-size="14" lengthAdjust="spacing" textLength="149.6182" x="380.84" y="855.3998">WriterPort : interface</text><ellipse cx="373.84" cy="868.3466" fill="#FFFFFF" rx="3" ry="3" style="stroke:#000000;stroke-width:1;"/><text fill="#000000" font-family="Verdana" font-size="14" lengthAdjust="spacing" textLength="244.3232" x="380.84" y="872.4145">Write(ctx, message) : Result[Unit]</text><line style="stroke:#000000;stroke-width:1;" x1="363.84" x2="630.1632" y1="879.3539" y2="879.3539"/><text fill="#000000" font-family="Verdana" font-size="14" font-weight="bold" lengthAdjust="spacing" textLength="215.9199" x="368.84" y="897.4291">Static dispatch via generics</text><text fill="#000000" font-family="Verdana" font-size="14" lengthAdjust="spacing" textLength="201.2432" x="368.84" y="914.4438">Returns domain/error.Result</text></g><!--class GreetCmd--><g class="entity" data-entity="GreetCmd" data-source-line="39" data-uid="ent0008" id="entity_GreetCmd"><rect fill="#FFFFFF" height="95.0439" rx="2.5" ry="2.5" style="stroke:#000000;stroke-width:1;" width="273.3281" x="103.34" y="147.0046"/><ellipse cx="116.34" cy="161.0046" fill="#FFFFFF" rx="9" ry="9" style="stroke:#000000;stroke-width:1;"/><path d="M118.8131,167.1477 Q118.2321,167.4465 117.5929,167.5959 Q116.9538,167.7453 116.2482,167.7453 Q113.7414,167.7453 112.4215,166.0935 Q111.1017,164.4416 111.1017,161.3205 Q111.1017,158.1911 112.4215,156.5393 Q113.7414,154.8874 116.2482,154.8874 Q116.9538,154.8874 117.6012,155.0368 Q118.2487,155.1862 118.8131,155.4851 L118.8131,158.2077 Q118.1823,157.6267 117.5888,157.3569 Q116.9953,157.0871 116.3644,157.0871 Q115.0197,157.0871 114.3349,158.1538 Q113.6501,159.2204 113.6501,161.3205 Q113.6501,163.4123 114.3349,164.479 Q115.0197,165.5456 116.3644,165.5456 Q116.9953,165.5456 117.5888,165.2758 Q118.1823,165.0061 118.8131,164.425 Z " fill="#000000"/><text fill="#000000" font-family="Verdana" font-size="14" lengthAdjust="spacing" textLength="245.3281" x="128.34" y="166.5725">presentation/adapter/cli/command</text><line style="stroke:#000000;stroke-width:1;" x1="104.34" x2="375.6681" y1="175.0046" y2="175.0046"/><ellipse cx="114.34" cy="189.0119" fill="#FFFFFF" rx="3" ry="3" style="stroke:#000000;stroke-width:1;"/><text fill="#000000" font-family="Verdana" font-size="14" lengthAdjust="spacing" textLength="74.5869" x="121.34" y="193.0798">Run() : int</text><line style="stroke:#000000;stroke-width:1;" x1="104.34" x2="375.6681" y1="200.0193" y2="200.0193"/><text fill="#000000" font-family="Verdana" font-size="14" lengthAdjust="spacing" textLength="33.1748" x="109.34" y="218.0945">Uses</text><text fill="#000000" font-family="Verdana" font-size="14" font-weight="bold" lengthAdjust="spacing" textLength="136.2744" x="147.4367" y="218.0945">application/error</text><text fill="#000000" font-family="Verdana" font-size="14" lengthAdjust="spacing" textLength="128.1055" x="109.34" y="235.1091">NOT domain/error</text></g><!--class ConsoleWriter--><g class="entity" data-entity="ConsoleWriter" data-source-line="48" data-uid="ent0010" id="entity_ConsoleWriter"><rect fill="#FFFFFF" height="146.0879" rx="2.5" ry="2.5" style="stroke:#000000;stroke-width:1;" width="295.0928" x="687.45" y="444.6146"/><ellipse cx="753.2039" cy="458.6146" fill="#FFFFFF" rx="9" ry="9" style="stroke:#000000;stroke-width:1;"/><path d="M755.6771,464.7577 Q755.096,465.0565 754.4568,465.2059 Q753.8177,465.3553 753.1121,465.3553 Q750.6053,465.3553 749.2854,463.7035 Q747.9656,462.0516 747.9656,458.9305 Q747.9656,455.8011 749.2854,454.1493 Q750.6053,452.4974 753.1121,452.4974 Q753.8177,452.4974 754.4651,452.6468 Q755.1126,452.7963 755.6771,453.0951 L755.6771,455.8177 Q755.0462,455.2367 754.4527,454.9669 Q753.8592,454.6971 753.2283,454.6971 Q751.8836,454.6971 751.1988,455.7638 Q750.514,456.8304 750.514,458.9305 Q750.514,461.0223 751.1988,462.089 Q751.8836,463.1556 753.2283,463.1556 Q753.8592,463.1556 754.4527,462.8858 Q755.0462,462.6161 755.6771,462.035 Z " fill="#000000"/><text fill="#000000" font-family="Verdana" font-size="14" lengthAdjust="spacing" textLength="156.085" x="770.7039" y="464.1825">infrastructure/adapter</text><line style="stroke:#000000;stroke-width:1;" x1="688.45" x2="981.5428" y1="472.6146" y2="472.6146"/><ellipse cx="698.45" cy="486.6219" fill="none" rx="3" ry="3" style="stroke:#000000;stroke-width:1;"/><text fill="#000000" font-family="Verdana" font-size="14" lengthAdjust="spacing" textLength="155.251" x="705.45" y="490.6898">ConsoleWriter : struct</text><ellipse cx="698.45" cy="503.6366" fill="#FFFFFF" rx="3" ry="3" style="stroke:#000000;stroke-width:1;"/><text fill="#000000" font-family="Verdana" font-size="14" lengthAdjust="spacing" textLength="244.3232" x="705.45" y="507.7045">Write(ctx, message) : Result[Unit]</text><ellipse cx="698.45" cy="520.6512" fill="#FFFFFF" rx="3" ry="3" style="stroke:#000000;stroke-width:1;"/><text fill="#000000" font-family="Verdana" font-size="14" lengthAdjust="spacing" textLength="271.0928" x="705.45" y="524.7191">NewWriter(io.Writer) : *ConsoleWriter</text><line style="stroke:#000000;stroke-width:1;" x1="688.45" x2="981.5428" y1="531.6586" y2="531.6586"/><text fill="#000000" font-family="Verdana" font-size="14" lengthAdjust="spacing" textLength="84.041" x="693.45" y="549.7338">Implements</text><text fill="#000000" font-family="Verdana" font-size="14" font-weight="bold" lengthAdjust="spacing" textLength="83.3848" x="782.4129" y="549.7338">WriterPort</text><text fill="#000000" font-family="Verdana" font-size="14" lengthAdjust="spacing" textLength="33.1748" x="693.45" y="566.7484">Uses</text><text fill="#000000" font-family="Verdana" font-size="14" font-weight="bold" lengthAdjust="spacing" textLength="107.7617" x="731.5467" y="566.7484">domain/error</text><text fill="#000000" font-family="Verdana" font-size="14" lengthAdjust="spacing" textLength="51.8164" x="844.2303" y="566.7484">directly</text><text fill="#000000" font-family="Verdana" font-size="14" lengthAdjust="spacing" textLength="192.7461" x="693.45" y="583.763">(allowed for Infrastructure)</text></g><g class="entity" data-entity="GMN16" data-source-line="69" data-uid="ent0017" id="entity_GMN16"><path d="M1018,362.5646 L1018,672.7516 L1390,672.7516 L1390,372.5646 L1380,362.5646 L1018,362.5646" fill="#FFFFFF" style="stroke:#000000;stroke-width:1;"/><path d="M1380,362.5646 L1380,372.5646 L1390,372.5646 L1380,362.5646" fill="#FFFFFF" style="stroke:#000000;stroke-width:1;"/><text fill="#000000" font-family="Verdana" font-size="13" font-weight="bold" lengthAdjust="spacing" textLength="131.625" x="1024" y="380.6344">Re-export Pattern</text><text fill="#000000" font-family="Verdana" font-size="13" lengthAdjust="spacing" textLength="351" x="1024" y="396.4338">&#9552;&#9552;&#9552;&#9552;&#9552;&#9552;&#9552;&#9552;&#9552;&#9552;&#9552;&#9552;&#9552;&#9552;&#9552;&#9552;&#9552;&#9552;&#9552;&#9552;&#9552;&#9552;&#9552;&#9552;&#9552;&#9552;&#9552;</text><text fill="#000000" font-family="Verdana" font-size="13" lengthAdjust="spacing" textLength="4.5703" x="1024" y="412.2331">&#160;</text><text fill="#000000" font-family="Verdana" font-size="13" lengthAdjust="spacing" textLength="40.7837" x="1024" y="428.0324">```go</text><text fill="#000000" font-family="Verdana" font-size="13" lengthAdjust="spacing" textLength="53.3457" x="1024" y="443.8317">import (</text><text fill="#000000" font-family="Verdana" font-size="13" lengthAdjust="spacing" textLength="150.395" x="1033.1406" y="459.631">domerr "domain/error"</text><text fill="#000000" font-family="Verdana" font-size="13" lengthAdjust="spacing" textLength="5.9033" x="1024" y="475.4303">)</text><text fill="#000000" font-family="Verdana" font-size="13" lengthAdjust="spacing" textLength="4.5703" x="1024" y="491.2296">&#160;</text><text fill="#000000" font-family="Verdana" font-size="13" lengthAdjust="spacing" textLength="204.915" x="1024" y="507.029">// Type aliases - zero overhead</text><text fill="#000000" font-family="Verdana" font-size="13" lengthAdjust="spacing" textLength="233.8159" x="1024" y="522.8283">type ErrorType = domerr.ErrorType</text><text fill="#000000" font-family="Verdana" font-size="13" lengthAdjust="spacing" textLength="228.522" x="1024" y="538.6276">type ErrorKind = domerr.ErrorKind</text><text fill="#000000" font-family="Verdana" font-size="13" lengthAdjust="spacing" textLength="254.0903" x="1024" y="554.4269">type Result[T any] = domerr.Result[T]</text><text fill="#000000" font-family="Verdana" font-size="13" lengthAdjust="spacing" textLength="4.5703" x="1024" y="570.2262">&#160;</text><text fill="#000000" font-family="Verdana" font-size="13" lengthAdjust="spacing" textLength="142.0415" x="1024" y="586.0255">// Variable re-exports</text><text fill="#000000" font-family="Verdana" font-size="13" lengthAdjust="spacing" textLength="31.5225" x="1024" y="601.8249">var (</text><text fill="#000000" font-family="Verdana" font-size="13" lengthAdjust="spacing" textLength="266.5762" x="1033.1406" y="617.6242">ValidationError = domerr.ValidationError</text><text fill="#000000" font-family="Verdana" font-size="13" lengthAdjust="spacing" textLength="318.9063" x="1033.1406" y="633.4235">InfrastructureError = domerr.InfrastructureError</text><text fill="#000000" font-family="Verdana" font-size="13" lengthAdjust="spacing" textLength="5.9033" x="1024" y="649.2228">)</text><text fill="#000000" font-family="Verdana" font-size="13" lengthAdjust="spacing" textLength="24.7939" x="1024" y="665.0221">```</text></g><g class="entity" data-entity="GMN19" data-source-line="91" data-uid="ent0020" id="entity_GMN19"><path d="M11,370.4646 L11,664.8523 A0,0 0 0 0 11,664.8523 L331,664.8523 A0,0 0 0 0 331,664.8523 L331,380.4646 L321,370.4646 L206.52,370.4646 L229.97,242.2146 L198.52,370.4646 L11,370.4646 A0,0 0 0 0 11,370.4646" fill="#FFFFFF" style="stroke:#000000;stroke-width:1;"/><path d="M321,370.4646 L321,380.4646 L331,380.4646 L321,370.4646" fill="#FFFFFF" style="stroke:#000000;stroke-width:1;"/><text fill="#000000" font-family="Verdana" font-size="13" font-weight="bold" lengthAdjust="spacing" textLength="142.5049" x="17" y="388.5344">Presentation Usage</text><text fill="#000000" font-family="Verdana" font-size="13" lengthAdjust="spacing" textLength="299" x="17" y="404.3338">&#9552;&#9552;&#9552;&#9552;&#9552;&#9552;&#9552;&#9552;&#9552;&#9552;&#9552;&#9552;&#9552;&#9552;&#9552;&#9552;&#9552;&#9552;&#9552;&#9552;&#9552;&#9552;&#9552;</text><text fill="#000000" font-family="Verdana" font-size="13" lengthAdjust="spacing" textLength="4.5703" x="17" y="420.1331">&#160;</text><text fill="#000000" font-family="Verdana" font-size="13" lengthAdjust="spacing" textLength="40.7837" x="17" y="435.9324">```go</text><text fill="#000000" font-family="Verdana" font-size="13" lengthAdjust="spacing" textLength="53.3457" x="17" y="451.7317">import (</text><text fill="#000000" font-family="Verdana" font-size="13" lengthAdjust="spacing" textLength="168.0605" x="26.1406" y="467.531">apperr "application/error"</text><text fill="#000000" font-family="Verdana" font-size="13" lengthAdjust="spacing" textLength="5.9033" x="17" y="483.3303">)</text><text fill="#000000" font-family="Verdana" font-size="13" lengthAdjust="spacing" textLength="274.2261" x="17" y="499.1296">// NOT: import domerr "domain/error" &#10060;</text><text fill="#000000" font-family="Verdana" font-size="13" lengthAdjust="spacing" textLength="4.5703" x="17" y="514.929">&#160;</text><text fill="#000000" font-family="Verdana" font-size="13" lengthAdjust="spacing" textLength="183.1108" x="17" y="530.7283">errInfo := result.ErrorInfo()</text><text fill="#000000" font-family="Verdana" font-size="13" lengthAdjust="spacing" textLength="4.5703" x="17" y="546.5276">&#160;</text><text fill="#000000" font-family="Verdana" font-size="13" lengthAdjust="spacing" textLength="137.1221" x="17" y="562.3269">switch errInfo.Kind {</text><text fill="#000000" font-family="Verdana" font-size="13" lengthAdjust="spacing" textLength="184.4438" x="17" y="578.1262">case apperr.ValidationError:</text><text fill="#000000" font-family="Verdana" font-size="13" lengthAdjust="spacing" textLength="252.5225" x="26.1406" y="593.9255">fmt.Fprintln(os.Stderr, "Invalid input")</text><text fill="#000000" font-family="Verdana" font-size="13" lengthAdjust="spacing" textLength="210.6089" x="17" y="609.7249">case apperr.InfrastructureError:</text><text fill="#000000" font-family="Verdana" font-size="13" lengthAdjust="spacing" textLength="255.9883" x="26.1406" y="625.5242">fmt.Fprintln(os.Stderr, "System error")</text><text fill="#000000" font-family="Verdana" font-size="13" lengthAdjust="spacing" textLength="8.252" x="17" y="641.3235">}</text><text fill="#000000" font-family="Verdana" font-size="13" lengthAdjust="spacing" textLength="24.7939" x="17" y="657.1228">```</text></g><g class="entity" data-entity="GMN22" data-source-line="112" data-uid="ent0023" id="entity_GMN22"><path d="M668.5,749.7546 L668.5,980.945 A0,0 0 0 0 668.5,980.945 L1001.5,980.945 A0,0 0 0 0 1001.5,980.945 L1001.5,759.7546 L991.5,749.7546 L839,749.7546 L835,591.1246 L831,749.7546 L668.5,749.7546 A0,0 0 0 0 668.5,749.7546" fill="#FFFFFF" style="stroke:#000000;stroke-width:1;"/><path d="M991.5,749.7546 L991.5,759.7546 L1001.5,759.7546 L991.5,749.7546" fill="#FFFFFF" style="stroke:#000000;stroke-width:1;"/><text fill="#000000" font-family="Verdana" font-size="13" font-weight="bold" lengthAdjust="spacing" textLength="153.3975" x="674.5" y="767.8244">Infrastructure Usage</text><text fill="#000000" font-family="Verdana" font-size="13" lengthAdjust="spacing" textLength="312" x="674.5" y="783.6238">&#9552;&#9552;&#9552;&#9552;&#9552;&#9552;&#9552;&#9552;&#9552;&#9552;&#9552;&#9552;&#9552;&#9552;&#9552;&#9552;&#9552;&#9552;&#9552;&#9552;&#9552;&#9552;&#9552;&#9552;</text><text fill="#000000" font-family="Verdana" font-size="13" lengthAdjust="spacing" textLength="4.5703" x="674.5" y="799.4231">&#160;</text><text fill="#000000" font-family="Verdana" font-size="13" lengthAdjust="spacing" textLength="40.7837" x="674.5" y="815.2224">```go</text><text fill="#000000" font-family="Verdana" font-size="13" lengthAdjust="spacing" textLength="53.3457" x="674.5" y="831.0217">import (</text><text fill="#000000" font-family="Verdana" font-size="13" lengthAdjust="spacing" textLength="247.877" x="683.6406" y="846.821">domerr "domain/error"  // &#9989; Allowed</text><text fill="#000000" font-family="Verdana" font-size="13" lengthAdjust="spacing" textLength="5.9033" x="674.5" y="862.6203">)</text><text fill="#000000" font-family="Verdana" font-size="13" lengthAdjust="spacing" textLength="4.5703" x="674.5" y="878.4196">&#160;</text><text fill="#000000" font-family="Verdana" font-size="13" lengthAdjust="spacing" textLength="186.5576" x="674.5" y="894.219">// Infrastructure CAN access</text><text fill="#000000" font-family="Verdana" font-size="13" lengthAdjust="spacing" textLength="155.4795" x="674.5" y="910.0183">// domain/error directly</text><text fill="#000000" font-family="Verdana" font-size="13" lengthAdjust="spacing" textLength="205.3213" x="674.5" y="925.8176">return domerr.Err[model.Unit](</text><text fill="#000000" font-family="Verdana" font-size="13" lengthAdjust="spacing" textLength="209.6758" x="683.6406" y="941.6169">domerr.NewInfrastructureError(</text><text fill="#000000" font-family="Verdana" font-size="13" lengthAdjust="spacing" textLength="85.2744" x="692.7813" y="957.4162">"I/O failed"))</text><text fill="#000000" font-family="Verdana" font-size="13" lengthAdjust="spacing" textLength="24.7939" x="674.5" y="973.2155">```</text></g><!--reverse link DomainError to AppError--><g class="link" data-entity-1="DomainError" data-entity-2="AppError" data-source-line="60" data-uid="lnk11" id="link_DomainError_AppError"><path codeLine="60" d="M644.7291,273.2075 C616.3191,323.0575 581.53,384.1146 552.13,435.7046" fill="none" id="DomainError-backto-AppError" style="stroke:#000000;stroke-width:1;stroke-dasharray:7,7;"/><polygon fill="#000000" points="647.7,267.9946,639.7685,273.8333,645.2243,272.3387,646.7189,277.7945,647.7,267.9946" style="stroke:#000000;stroke-width:1;"/><text fill="#000000" font-family="Verdana" font-size="13" lengthAdjust="spacing" textLength="68.0659" x="636.0854" y="313.6344">re-exports</text><text fill="#000000" font-family="Verdana" font-size="13" lengthAdjust="spacing" textLength="89.0767" x="625.58" y="329.4338">(type aliases)</text></g><!--reverse link AppError to Writer--><g class="link" data-entity-1="AppError" data-entity-2="Writer" data-source-line="61" data-uid="lnk12" id="link_AppError_Writer"><path codeLine="61" d="M503.7334,605.7026 C502.0534,670.0626 499.92,752.3446 498.44,808.8746" fill="none" id="AppError-backto-Writer" style="stroke:#000000;stroke-width:1;stroke-dasharray:7,7;"/><polygon fill="#000000" points="503.89,599.7046,499.6565,608.5972,503.7595,604.7029,507.6538,608.8059,503.89,599.7046" style="stroke:#000000;stroke-width:1;"/><text fill="#000000" font-family="Verdana" font-size="13" lengthAdjust="spacing" textLength="29.5166" x="501.96" y="716.8244">uses</text></g><!--reverse link AppError to GreetCmd--><g class="link" data-entity-1="AppError" data-entity-2="GreetCmd" data-source-line="62" data-uid="lnk13" id="link_AppError_GreetCmd"><path codeLine="62" d="M435.1128,431.0837 C384.4828,369.9537 320.61,292.8446 278.68,242.2146" fill="none" id="AppError-backto-GreetCmd" style="stroke:#000000;stroke-width:1;stroke-dasharray:7,7;"/><polygon fill="#000000" points="438.94,435.7046,436.2798,426.2218,435.7507,431.8539,430.1186,431.3247,438.94,435.7046" style="stroke:#000000;stroke-width:1;"/><text fill="#000000" font-family="Verdana" font-size="13" lengthAdjust="spacing" textLength="51.0869" x="350.17" y="321.6344">uses &#9989;</text></g><!--reverse link DomainError to ConsoleWriter--><g class="link" data-entity-1="DomainError" data-entity-2="ConsoleWriter" data-source-line="63" data-uid="lnk14" id="link_DomainError_ConsoleWriter"><path codeLine="63" d="M724.4326,273.4569 C748.3526,326.0869 778.12,391.5446 802.05,444.1746" fill="none" id="DomainError-backto-ConsoleWriter" style="stroke:#000000;stroke-width:1;stroke-dasharray:7,7;"/><polygon fill="#000000" points="721.95,267.9946,722.0323,277.8431,724.0188,272.5465,729.3154,274.533,721.95,267.9946" style="stroke:#000000;stroke-width:1;"/><text fill="#000000" font-family="Verdana" font-size="13" lengthAdjust="spacing" textLength="51.0869" x="749.92" y="321.6344">uses &#9989;</text></g><!--link GreetCmd to DomainError--><g class="link" data-entity-1="GreetCmd" data-entity-2="DomainError" data-source-line="66" data-uid="lnk15" id="link_GreetCmd_DomainError"><path codeLine="66" d="M377.15,194.5246 C443.43,194.5246 515.75,194.5246 577.31,194.5246" fill="none" id="GreetCmd-to-DomainError" style="stroke:#FF0000;stroke-width:1;stroke-dasharray:7,7;"/><polygon fill="#FF0000" points="583.31,194.5246,574.31,190.5246,578.31,194.5246,574.31,198.5246,583.31,194.5246" style="stroke:#FF0000;stroke-width:1;"/><text fill="#000000" font-family="Verdana" font-size="13" lengthAdjust="spacing" textLength="100.6748" x="430.1788" y="172.5944">&#10060; FORBIDDEN</text><text fill="#000000" font-family="Verdana" font-size="13" lengthAdjust="spacing" textLength="171.6724" x="394.68" y="188.3938">Must use application/error</text></g><!--link AppError to GMN16--><g class="link" data-entity-1="AppError" data-entity-2="GMN16" data-source-line="69" data-uid="lnk18" id="link_AppError_GMN16"><path d="M559.86,435.6946 C591.81,394.7846 636.26,349.3746 688.5,327.0646 C748.38,301.4946 920.43,304.4846 981.5,327.0646 C1004.76,335.6646 1027.22,347.9046 1048.36,362.0746" fill="none" id="AppError-GMN16" style="stroke:#000000;stroke-width:1;stroke-dasharray:7,7;"/></g><g class="legend" data-source-line="128"><rect fill="none" height="248.2051" rx="7.5" ry="7.5" style="stroke:#000000;stroke-width:1;" width="444" x="934" y="991.945"/><text fill="#000000" font-family="Verdana" font-size="14" font-weight="bold" lengthAdjust="spacing" textLength="127.9961" x="939" y="1011.0202">Pattern Benefits</text><text fill="#000000" font-family="Verdana" font-size="14" lengthAdjust="spacing" textLength="434" x="939" y="1028.0349">&#9552;&#9552;&#9552;&#9552;&#9552;&#9552;&#9552;&#9552;&#9552;&#9552;&#9552;&#9552;&#9552;&#9552;&#9552;&#9552;&#9552;&#9552;&#9552;&#9552;&#9552;&#9552;&#9552;&#9552;&#9552;&#9552;&#9552;&#9552;&#9552;&#9552;&#9552;</text><text fill="#000000" font-family="Verdana" font-size="14" lengthAdjust="spacing" textLength="227.5234" x="939" y="1045.0495">&#9989; Zero overhead (type aliases)</text><text fill="#000000" font-family="Verdana" font-size="14" lengthAdjust="spacing" textLength="282.498" x="939" y="1062.0642">&#9989; Compile-time enforcement (go.mod)</text><text fill="#000000" font-family="Verdana" font-size="14" lengthAdjust="spacing" textLength="243.0752" x="939" y="1079.0788">&#9989; Clear boundary between layers</text><text fill="#000000" font-family="Verdana" font-size="14" lengthAdjust="spacing" textLength="247.915" x="939" y="1096.0935">&#9989; Single source of truth (Domain)</text><text fill="#000000" font-family="Verdana" font-size="14" lengthAdjust="spacing" textLength="284.9385" x="939" y="1113.1081">&#9989; Presentation decoupled from Domain</text><text fill="#000000" font-family="Verdana" font-size="14" lengthAdjust="spacing" textLength="4.9219" x="939" y="1130.1228">&#160;</text><text fill="#000000" font-family="Verdana" font-size="14" font-weight="bold" lengthAdjust="spacing" textLength="136.999" x="939" y="1147.1374">Why This Matters</text><text fill="#000000" font-family="Verdana" font-size="14" lengthAdjust="spacing" textLength="434" x="939" y="1164.1521">&#9552;&#9552;&#9552;&#9552;&#9552;&#9552;&#9552;&#9552;&#9552;&#9552;&#9552;&#9552;&#9552;&#9552;&#9552;&#9552;&#9552;&#9552;&#9552;&#9552;&#9552;&#9552;&#9552;&#9552;&#9552;&#9552;&#9552;&#9552;&#9552;&#9552;&#9552;</text><text fill="#000000" font-family="Verdana" font-size="14" lengthAdjust="spacing" textLength="243.4893" x="939" y="1181.1667">&#8226; Domain is shareable across apps</text><text fill="#000000" font-family="Verdana" font-size="14" lengthAdjust="spacing" textLength="300.248" x="939" y="1198.1814">&#8226; Application/Presentation are app-specific</text><text fill="#000000" font-family="Verdana" font-size="14" lengthAdjust="spacing" textLength="256.0879" x="939" y="1215.196">&#8226; Multiple UIs can use same Domain</text><text fill="#000000" font-family="Verdana" font-size="14" lengthAdjust="spacing" textLength="185.3838" x="939" y="1232.2107">&#8226; Forces use case thinking</text></g><!--SRC=[lLTDR-Cs4BthLqoTGstlMaRHTj4rkWMoYLq4RJwGEBj0Dm72I6ERM8aKIDfPjrYWbzvwwAMtzjAVbb_I8Id9bEmWBP0MC62RypZal9bv8trY5fWZ51dZ8eeCDnd2Vb5aF666Im5ZfQI2SnpWXq8g0sVC65JYIfmfNA4mNCnXgfZGtF0Lmg7CoH7i9mbg7KK5IzwpEKAdNF-UhL5rWEaAk3UPJ5wENy1F4K2ICQsXaphB4Et10THVnE80dlbhJTS5mWYqKSl4X8Rlk4Z9OCXUBhzX6KzTHDxF218fTBNfICmKyswM2dSXpb4lC_DkUathSnIeU1AUEnYuhmCcf23cCd2tXnHdN71xgYRxn-XZm4X8yeQMS7Ll_DNao_7Ba1ksCGS4qQQ7sR4a04NFz0CCDOnXd5l6RH9NJ3KGkubieagk-lswg3I4EU_tdVq7L1Ba2jK2MGhTpMLGznoPkrcn_ePoQMxbKgIEdRUAKyNMtFY_PxQMHy05_Pwn14DZDp4VdaDE1Ko9wX6g9EMIKddT3E72qAa9f5mNp2GBM75MbOSkupX7ea8qGuoznwsQe9xIr5FjecWiKyUClnX_5bP54TY7B6K51JLCCZvCP9wpaePl5Q8voDEQYFEbwFOy1s5GbqGmHRPLQMKu9wVJHYXRCJHB88YYPTWRlvXyFfc4SV06eeh4RJwW5f8PjdBPN6qfmJ_CvJCumJlleSjbx7zPPB_XFQJeA2yo4arXB56RUYePAWbibZILYCB4P6i7wR8iatUOmepweybBhoBqKxfgvlZN2rxeA5J1h-Duq_GZK7KZNObMezGekwNcQKcsfgck3c-4-pz-sJgnpNODfBjEfBhbQOeYgZt5YiyN9lwceTzx2kqPzt_-2fFJyzT7XuVZaojnlDJ6keEjgeiY8Gs2SmLoLaSTDGIacaek0_U___Qq7wiqDpStSqdVF7VdTLqQASLqoTR48alFxXWEOHga0WRmOwXeX72PsaZrgz9VN2yrC4wncnYxL64guGOcrjSRNAtdvPNUCCNPBStuJSsGmGgq3wajyRMZbi7tmGwrhpViC3fg79SHKZ0sisL-RwKnChS9hih79RWXV9UsXPykmmzcbMhGPNLxrfRt9nf91KVLhfrLO2lSda3_Y0W9erV4k4s5pvnTwxeoqNVS3euI5xiiEqbalXrsS3zorvpb9fuKYjGx4rsfumkJ4lQv5U2LnPEk5qlJwRLyxKZB8_ukrjfWxfzeEbwU7ibXMpZx_PRsFt4g_tMFkXoISi6-r-6WPritFTW_0UOVPfqvT1Dgkd9JFkZETxbCCOlTd0bl4jEqsP433m7Atl0KPendc7PwsysIuTp-SNBeEyGB7xocXuuPD_g_KS06q-2OU-Jnp48EP5vG80F3wGK3gRfLugOcTESo9dfgN8QaF-w1ZQartAAvGnIGsIS7NM8kw3s3L4lB9JcnDKRicGLq_MofF3Nq8iL4BcbGqvHLL9SU6JdMtYxMC5rm3SUEll-9jP__gjvww6IzO0gT4hD4INhweVxK9Ifu2HWsGg8j5ZVG1IPynfCIVqowmYbIk3pIrEp2ZLBDykfrh8HDR0AqCpf5C0iktXEljhvyOKL_0m00]--></g></svg>