<svg xmlns="http://www.w3.org/2000/svg" xmlns:xlink="http://www.w3.org/1999/xlink" contentStyleType="text/css" data-diagram-type="DESCRIPTION" height="1256px" preserveAspectRatio="none" style="width:1639px;height:1256px;background:#FFFFFF;" version="1.1" viewBox="0 0 1639 1256" width="1639px" zoomAndPan="magnify"><title>4-Layer Library Architecture
Hexagonal (Ports &amp; Adapters) + Clean + DDD</title><defs/><g><g class="title" data-source-line="6"><text fill="#000000" font-family="Verdana" font-size="22" font-weight="bold" lengthAdjust="spacing" textLength="350.5928" x="639.7036" y="37.1182">4-Layer Library Architecture</text><text fill="#000000" font-family="Verdana" font-size="22" font-weight="bold" lengthAdjust="spacing" textLength="564.0938" x="532.9531" y="63.8555">Hexagonal (Ports &amp; Adapters) + Clean + DDD</text></g><!--cluster API--><g class="cluster" data-entity="API" data-source-line="8" data-uid="ent0002" id="cluster_API"><path d="M221.5,85.4746 L427.4482,85.4746 A3.75,3.75 0 0 1 429.9482,87.9746 L436.9482,108.4893 L805.5,108.4893 A2.5,2.5 0 0 1 808,110.9893 L808,400.0746 A2.5,2.5 0 0 1 805.5,402.5746 L221.5,402.5746 A2.5,2.5 0 0 1 219,400.0746 L219,87.9746 A2.5,2.5 0 0 1 221.5,85.4746" fill="#FFEBCD" style="stroke:#000000;stroke-width:1;"/><line style="stroke:#000000;stroke-width:1;" x1="219" x2="436.9482" y1="108.4893" y2="108.4893"/><text fill="#000000" font-family="Verdana" font-size="14" font-weight="bold" lengthAdjust="spacing" textLength="204.9482" x="223" y="101.5498">API Layer (Public Facade)</text></g><!--cluster Infrastructure--><g class="cluster" data-entity="Infrastructure" data-source-line="20" data-uid="ent0008" id="cluster_Infrastructure"><path d="M850.5,274.4646 L1012.2266,274.4646 A3.75,3.75 0 0 1 1014.7266,276.9646 L1021.7266,297.4793 L1618.5,297.4793 A2.5,2.5 0 0 1 1621,299.9793 L1621,413.1646 A2.5,2.5 0 0 1 1618.5,415.6646 L850.5,415.6646 A2.5,2.5 0 0 1 848,413.1646 L848,276.9646 A2.5,2.5 0 0 1 850.5,274.4646" fill="#E6F3FF" style="stroke:#000000;stroke-width:1;"/><line style="stroke:#000000;stroke-width:1;" x1="848" x2="1021.7266" y1="297.4793" y2="297.4793"/><text fill="#000000" font-family="Verdana" font-size="14" font-weight="bold" lengthAdjust="spacing" textLength="160.7266" x="852" y="290.5398">Infrastructure Layer</text></g><!--cluster Application--><g class="cluster" data-entity="Application" data-source-line="31" data-uid="ent0014" id="cluster_Application"><path d="M13.5,455.6646 L151.2803,455.6646 A3.75,3.75 0 0 1 153.7803,458.1646 L160.7803,478.6793 L690.5,478.6793 A2.5,2.5 0 0 1 693,481.1793 L693,770.2646 A2.5,2.5 0 0 1 690.5,772.7646 L13.5,772.7646 A2.5,2.5 0 0 1 11,770.2646 L11,458.1646 A2.5,2.5 0 0 1 13.5,455.6646" fill="#E8F5E9" style="stroke:#000000;stroke-width:1;"/><line style="stroke:#000000;stroke-width:1;" x1="11" x2="160.7803" y1="478.6793" y2="478.6793"/><text fill="#000000" font-family="Verdana" font-size="14" font-weight="bold" lengthAdjust="spacing" textLength="136.7803" x="15" y="471.7398">Application Layer</text></g><!--cluster Domain--><g class="cluster" data-entity="Domain" data-source-line="44" data-uid="ent0021" id="cluster_Domain"><path d="M735.5,644.6646 L845.082,644.6646 A3.75,3.75 0 0 1 847.582,647.1646 L854.582,667.6793 L1486.5,667.6793 A2.5,2.5 0 0 1 1489,670.1793 L1489,930.3746 A2.5,2.5 0 0 1 1486.5,932.8746 L735.5,932.8746 A2.5,2.5 0 0 1 733,930.3746 L733,647.1646 A2.5,2.5 0 0 1 735.5,644.6646" fill="#FFF9E6" style="stroke:#000000;stroke-width:1;"/><line style="stroke:#000000;stroke-width:1;" x1="733" x2="854.582" y1="667.6793" y2="667.6793"/><text fill="#000000" font-family="Verdana" font-size="14" font-weight="bold" lengthAdjust="spacing" textLength="108.582" x="737" y="660.7398">Domain Layer</text></g><!--entity APIFacade--><g class="entity" data-entity="APIFacade" data-source-line="9" data-uid="ent0003" id="entity_APIFacade"><rect fill="#FFFFFF" height="47.0146" rx="2.5" ry="2.5" style="stroke:#000000;stroke-width:1;" width="67.3301" x="651.33" y="331.5646"/><rect fill="#FFFFFF" height="10" style="stroke:#000000;stroke-width:1;" width="15" x="698.6601" y="336.5646"/><rect fill="#FFFFFF" height="2" style="stroke:#000000;stroke-width:1;" width="4" x="696.6601" y="338.5646"/><rect fill="#FFFFFF" height="2" style="stroke:#000000;stroke-width:1;" width="4" x="696.6601" y="342.5646"/><text fill="#000000" font-family="Verdana" font-size="14" lengthAdjust="spacing" textLength="27.3301" x="666.33" y="365.6398">api/</text></g><!--entity APIDesktop--><g class="entity" data-entity="APIDesktop" data-source-line="10" data-uid="ent0004" id="entity_APIDesktop"><rect fill="#FFFFFF" height="47.0146" rx="2.5" ry="2.5" style="stroke:#000000;stroke-width:1;" width="122.708" x="596.65" y="150.4646"/><rect fill="#FFFFFF" height="10" style="stroke:#000000;stroke-width:1;" width="15" x="699.358" y="155.4646"/><rect fill="#FFFFFF" height="2" style="stroke:#000000;stroke-width:1;" width="4" x="697.358" y="157.4646"/><rect fill="#FFFFFF" height="2" style="stroke:#000000;stroke-width:1;" width="4" x="697.358" y="161.4646"/><text fill="#000000" font-family="Verdana" font-size="14" lengthAdjust="spacing" textLength="82.708" x="611.65" y="184.5398">api/desktop</text></g><g class="entity" data-entity="GMN5" data-source-line="12" data-uid="ent0006" id="entity_GMN5"><path d="M243.38,129.4746 L243.38,218.4712 L516.6295,218.4712 L516.6295,139.4746 L506.6295,129.4746 L243.38,129.4746" fill="#FFFFFF" style="stroke:#000000;stroke-width:1;"/><path d="M506.6295,129.4746 L506.6295,139.4746 L516.6295,139.4746 L506.6295,129.4746" fill="#FFFFFF" style="stroke:#000000;stroke-width:1;"/><text fill="#000000" font-family="Verdana" font-size="13" font-weight="bold" lengthAdjust="spacing" textLength="130.3682" x="249.38" y="147.5444">Public Entry Point</text><text fill="#000000" font-family="Verdana" font-size="13" lengthAdjust="spacing" textLength="251.272" x="249.38" y="163.3438">- Re-exports domain/application types</text><text fill="#000000" font-family="Verdana" font-size="13" lengthAdjust="spacing" textLength="252.2495" x="249.38" y="179.1431">- api/ depends on app + domain ONLY</text><text fill="#000000" font-family="Verdana" font-size="13" lengthAdjust="spacing" textLength="219.4893" x="249.38" y="194.9424">- api/desktop wires infrastructure</text><text fill="#000000" font-family="Verdana" font-size="13" lengthAdjust="spacing" textLength="213.605" x="249.38" y="210.7417">- Platform-specific sub-packages</text></g><!--entity Adapters--><g class="entity" data-entity="Adapters" data-source-line="21" data-uid="ent0009" id="entity_Adapters"><rect fill="#FFFFFF" height="47.0146" rx="2.5" ry="2.5" style="stroke:#000000;stroke-width:1;" width="102.5488" x="1206.73" y="331.5646"/><rect fill="#FFFFFF" height="10" style="stroke:#000000;stroke-width:1;" width="15" x="1289.2788" y="336.5646"/><rect fill="#FFFFFF" height="2" style="stroke:#000000;stroke-width:1;" width="4" x="1287.2788" y="338.5646"/><rect fill="#FFFFFF" height="2" style="stroke:#000000;stroke-width:1;" width="4" x="1287.2788" y="342.5646"/><text fill="#000000" font-family="Verdana" font-size="14" lengthAdjust="spacing" textLength="62.5488" x="1221.73" y="365.6398">Adapters</text></g><!--entity ConsoleWriter--><g class="entity" data-entity="ConsoleWriter" data-source-line="22" data-uid="ent0010" id="entity_ConsoleWriter"><rect fill="#FFFFFF" height="47.0146" rx="2.5" ry="2.5" style="stroke:#000000;stroke-width:1;" width="143.5166" x="1389.24" y="331.5646"/><rect fill="#FFFFFF" height="10" style="stroke:#000000;stroke-width:1;" width="15" x="1512.7566" y="336.5646"/><rect fill="#FFFFFF" height="2" style="stroke:#000000;stroke-width:1;" width="4" x="1510.7566" y="338.5646"/><rect fill="#FFFFFF" height="2" style="stroke:#000000;stroke-width:1;" width="4" x="1510.7566" y="342.5646"/><text fill="#000000" font-family="Verdana" font-size="14" lengthAdjust="spacing" textLength="103.5166" x="1404.24" y="365.6398">Console Writer</text></g><g class="entity" data-entity="GMN11" data-source-line="24" data-uid="ent0012" id="entity_GMN11"><path d="M871.51,318.4646 L871.51,391.6619 L1126.4846,391.6619 L1126.4846,328.4646 L1116.4846,318.4646 L871.51,318.4646" fill="#FFFFFF" style="stroke:#000000;stroke-width:1;"/><path d="M1116.4846,318.4646 L1116.4846,328.4646 L1126.4846,328.4646 L1116.4846,318.4646" fill="#FFFFFF" style="stroke:#000000;stroke-width:1;"/><text fill="#000000" font-family="Verdana" font-size="13" font-weight="bold" lengthAdjust="spacing" textLength="118.168" x="877.51" y="336.5344">Driven Adapters</text><text fill="#000000" font-family="Verdana" font-size="13" lengthAdjust="spacing" textLength="175.8555" x="877.51" y="352.3338">- Implements Output Ports</text><text fill="#000000" font-family="Verdana" font-size="13" lengthAdjust="spacing" textLength="191.2168" x="877.51" y="368.1331">- External system integration</text><text fill="#000000" font-family="Verdana" font-size="13" lengthAdjust="spacing" textLength="233.9746" x="877.51" y="383.9324">- Depends on Application + Domain</text></g><!--entity UseCases--><g class="entity" data-entity="UseCases" data-source-line="32" data-uid="ent0015" id="entity_UseCases"><rect fill="#FFFFFF" height="47.0146" rx="2.5" ry="2.5" style="stroke:#000000;stroke-width:1;" width="111.9141" x="35.04" y="520.6546"/><rect fill="#FFFFFF" height="10" style="stroke:#000000;stroke-width:1;" width="15" x="126.9541" y="525.6546"/><rect fill="#FFFFFF" height="2" style="stroke:#000000;stroke-width:1;" width="4" x="124.9541" y="527.6546"/><rect fill="#FFFFFF" height="2" style="stroke:#000000;stroke-width:1;" width="4" x="124.9541" y="531.6546"/><text fill="#000000" font-family="Verdana" font-size="14" lengthAdjust="spacing" textLength="71.9141" x="50.04" y="554.7298">Use Cases</text></g><!--entity Ports--><g class="entity" data-entity="Ports" data-source-line="33" data-uid="ent0016" id="entity_Ports"><rect fill="#FFFFFF" height="47.0146" rx="2.5" ry="2.5" style="stroke:#000000;stroke-width:1;" width="75.7246" x="227.14" y="520.6546"/><rect fill="#FFFFFF" height="10" style="stroke:#000000;stroke-width:1;" width="15" x="282.8646" y="525.6546"/><rect fill="#FFFFFF" height="2" style="stroke:#000000;stroke-width:1;" width="4" x="280.8646" y="527.6546"/><rect fill="#FFFFFF" height="2" style="stroke:#000000;stroke-width:1;" width="4" x="280.8646" y="531.6546"/><text fill="#000000" font-family="Verdana" font-size="14" lengthAdjust="spacing" textLength="35.7246" x="242.14" y="554.7298">Ports</text></g><!--entity Commands--><g class="entity" data-entity="Commands" data-source-line="34" data-uid="ent0017" id="entity_Commands"><rect fill="#FFFFFF" height="47.0146" rx="2.5" ry="2.5" style="stroke:#000000;stroke-width:1;" width="118.791" x="34.6" y="701.7546"/><rect fill="#FFFFFF" height="10" style="stroke:#000000;stroke-width:1;" width="15" x="133.391" y="706.7546"/><rect fill="#FFFFFF" height="2" style="stroke:#000000;stroke-width:1;" width="4" x="131.391" y="708.7546"/><rect fill="#FFFFFF" height="2" style="stroke:#000000;stroke-width:1;" width="4" x="131.391" y="712.7546"/><text fill="#000000" font-family="Verdana" font-size="14" lengthAdjust="spacing" textLength="78.791" x="49.6" y="735.8298">Commands</text></g><g class="entity" data-entity="GMN18" data-source-line="36" data-uid="ent0019" id="entity_GMN18"><path d="M383.01,499.6646 L383.01,588.6612 L604.9895,588.6612 L604.9895,509.6646 L594.9895,499.6646 L383.01,499.6646" fill="#FFFFFF" style="stroke:#000000;stroke-width:1;"/><path d="M594.9895,499.6646 L594.9895,509.6646 L604.9895,509.6646 L594.9895,499.6646" fill="#FFFFFF" style="stroke:#000000;stroke-width:1;"/><text fill="#000000" font-family="Verdana" font-size="13" font-weight="bold" lengthAdjust="spacing" textLength="145.355" x="389.01" y="517.7344">Orchestration Layer</text><text fill="#000000" font-family="Verdana" font-size="13" lengthAdjust="spacing" textLength="175.4937" x="389.01" y="533.5338">- Coordinates domain logic</text><text fill="#000000" font-family="Verdana" font-size="13" lengthAdjust="spacing" textLength="187.5098" x="389.01" y="549.3331">- Defines Input/Output Ports</text><text fill="#000000" font-family="Verdana" font-size="13" lengthAdjust="spacing" textLength="164.5122" x="389.01" y="565.1324">- DTOs (GreetCommand)</text><text fill="#000000" font-family="Verdana" font-size="13" lengthAdjust="spacing" textLength="5.9033" x="389.01" y="580.9317">-</text><text fill="#000000" font-family="Verdana" font-size="13" font-weight="bold" lengthAdjust="spacing" textLength="190.5059" x="399.4836" y="580.9317">Depends ONLY on Domain</text></g><!--entity VOs--><g class="entity" data-entity="VOs" data-source-line="45" data-uid="ent0022" id="entity_VOs"><rect fill="#FFFFFF" height="47.0146" rx="2.5" ry="2.5" style="stroke:#000000;stroke-width:1;" width="136.9473" x="1050.53" y="701.7546"/><rect fill="#FFFFFF" height="10" style="stroke:#000000;stroke-width:1;" width="15" x="1167.4773" y="706.7546"/><rect fill="#FFFFFF" height="2" style="stroke:#000000;stroke-width:1;" width="4" x="1165.4773" y="708.7546"/><rect fill="#FFFFFF" height="2" style="stroke:#000000;stroke-width:1;" width="4" x="1165.4773" y="712.7546"/><text fill="#000000" font-family="Verdana" font-size="14" lengthAdjust="spacing" textLength="96.9473" x="1065.53" y="735.8298">Value Objects</text></g><!--entity DomainError--><g class="entity" data-entity="DomainError" data-source-line="46" data-uid="ent0023" id="entity_DomainError"><rect fill="#FFFFFF" height="47.0146" rx="2.5" ry="2.5" style="stroke:#000000;stroke-width:1;" width="133.0645" x="1267.47" y="701.7546"/><rect fill="#FFFFFF" height="10" style="stroke:#000000;stroke-width:1;" width="15" x="1380.5345" y="706.7546"/><rect fill="#FFFFFF" height="2" style="stroke:#000000;stroke-width:1;" width="4" x="1378.5345" y="708.7546"/><rect fill="#FFFFFF" height="2" style="stroke:#000000;stroke-width:1;" width="4" x="1378.5345" y="712.7546"/><text fill="#000000" font-family="Verdana" font-size="14" lengthAdjust="spacing" textLength="93.0645" x="1282.47" y="735.8298">domain/error</text></g><!--entity Result--><g class="entity" data-entity="Result" data-source-line="47" data-uid="ent0024" id="entity_Result"><rect fill="#FFFFFF" height="47.0146" rx="2.5" ry="2.5" style="stroke:#000000;stroke-width:1;" width="104.9277" x="1066.54" y="861.8646"/><rect fill="#FFFFFF" height="10" style="stroke:#000000;stroke-width:1;" width="15" x="1151.4677" y="866.8646"/><rect fill="#FFFFFF" height="2" style="stroke:#000000;stroke-width:1;" width="4" x="1149.4677" y="868.8646"/><rect fill="#FFFFFF" height="2" style="stroke:#000000;stroke-width:1;" width="4" x="1149.4677" y="872.8646"/><text fill="#000000" font-family="Verdana" font-size="14" lengthAdjust="spacing" textLength="64.9277" x="1081.54" y="895.9398">Result[T]</text></g><g class="entity" data-entity="GMN25" data-source-line="49" data-uid="ent0026" id="entity_GMN25"><path d="M757.04,688.6646 L757.04,761.8619 L970.9643,761.8619 L970.9643,698.6646 L960.9643,688.6646 L757.04,688.6646" fill="#FFFFFF" style="stroke:#000000;stroke-width:1;"/><path d="M960.9643,688.6646 L960.9643,698.6646 L970.9643,698.6646 L960.9643,688.6646" fill="#FFFFFF" style="stroke:#000000;stroke-width:1;"/><text fill="#000000" font-family="Verdana" font-size="13" font-weight="bold" lengthAdjust="spacing" textLength="145.3423" x="763.04" y="706.7344">Business Logic Core</text><text fill="#000000" font-family="Verdana" font-size="13" lengthAdjust="spacing" textLength="154.6099" x="763.04" y="722.5337">- Pure domain concepts</text><text fill="#000000" font-family="Verdana" font-size="13" lengthAdjust="spacing" textLength="192.9243" x="763.04" y="738.3331">- ZERO external module deps</text><text fill="#000000" font-family="Verdana" font-size="13" lengthAdjust="spacing" textLength="157.3901" x="763.04" y="754.1324">- Shareable across apps</text></g><!--link API to GMN5--><g class="link" data-entity-1="API" data-entity-2="GMN5" data-source-line="12" data-uid="lnk7" id="link_API_GMN5"><path d="M800,174.8046 C800,180.0246 800,207.8746 800,207.8746 C800,207.8746 639.51,207.8746 516.94,207.8746" fill="none" id="API-GMN5" style="stroke:#000000;stroke-width:1;stroke-dasharray:7,7;"/></g><!--link Infrastructure to GMN11--><g class="link" data-entity-1="Infrastructure" data-entity-2="GMN11" data-source-line="24" data-uid="lnk13" id="link_Infrastructure_GMN11"><path d="M1612.67,354.3246 C1612.67,349.6746 1612.67,324.8746 1612.67,324.8746 C1612.67,324.8746 1306.75,324.8746 1126.9,324.8746" fill="none" id="Infrastructure-GMN11" style="stroke:#000000;stroke-width:1;stroke-dasharray:7,7;"/></g><!--link Application to GMN18--><g class="link" data-entity-1="Application" data-entity-2="GMN18" data-source-line="36" data-uid="lnk20" id="link_Application_GMN18"><path d="M684.45,543.8746 C679.67,543.8746 644.29,543.8746 605.29,543.8746" fill="none" id="Application-GMN18" style="stroke:#000000;stroke-width:1;stroke-dasharray:7,7;"/></g><!--link Domain to GMN25--><g class="link" data-entity-1="Domain" data-entity-2="GMN25" data-source-line="49" data-uid="lnk27" id="link_Domain_GMN25"><path d="M1481,724.5146 C1481,719.8346 1481,694.8746 1481,694.8746 C1481,694.8746 1147.81,694.8746 971.12,694.8746" fill="none" id="Domain-GMN25" style="stroke:#000000;stroke-width:1;stroke-dasharray:7,7;"/></g><!--link APIFacade to Application--><g class="link" data-entity-1="APIFacade" data-entity-2="Application" data-source-line="57" data-uid="lnk28" id="link_APIFacade_Application"><path d="M685,379.0146 C685,391.1396 685,406.8634 685,423.7823 C685,432.2417 685,441 685,449.7565 C685,450.8511 685,451.9457 685,453.0396 C685,453.5866 685,454.1334 685,454.68 C685,454.9533 685,472.2411 685,472.5143" fill="none" id="APIFacade-to-Application" style="stroke:#000000;stroke-width:1;"/><polygon fill="#000000" points="685,478.5143,689,469.5143,685,473.5143,681,469.5143,685,478.5143" style="stroke:#000000;stroke-width:1;"/><text fill="#000000" font-family="Verdana" font-size="13" lengthAdjust="spacing" textLength="108.0688" x="576" y="458.2944">re-exports types</text></g><!--link APIFacade to Domain--><g class="link" data-entity-1="APIFacade" data-entity-2="Domain" data-source-line="58" data-uid="lnk29" id="link_APIFacade_Domain"><path d="M696.89,378.9446 C696.89,410.9746 696.89,463.8746 696.89,463.8746 C696.89,463.8746 1440.27,463.8746 1440.27,463.8746 C1440.27,463.8746 1440.27,529.1246 1440.27,594.3746 C1440.27,610.6871 1440.27,626.9996 1440.27,642.2926 C1440.27,642.7705 1440.27,660.262 1440.27,660.7379" fill="none" id="APIFacade-to-Domain" style="stroke:#000000;stroke-width:1;"/><polygon fill="#000000" points="1440.27,666.7379,1444.27,657.7379,1440.27,661.7379,1436.27,657.7379,1440.27,666.7379" style="stroke:#000000;stroke-width:1;"/><text fill="#000000" font-family="Verdana" font-size="13" lengthAdjust="spacing" textLength="108.0688" x="1067.63" y="460.9444">re-exports types</text></g><!--link APIDesktop to Infrastructure--><g class="link" data-entity-1="APIDesktop" data-entity-2="Infrastructure" data-source-line="61" data-uid="lnk30" id="link_APIDesktop_Infrastructure"><path d="M719.58,182.8746 C930.85,182.8746 1613.33,182.8746 1613.33,182.8746 C1613.33,182.8746 1613.33,222.6246 1613.33,263.9284 C1613.33,266.5098 1613.33,269.0974 1613.33,271.6817 C1613.33,272.3278 1613.33,289.9883 1613.33,290.6338" fill="none" id="APIDesktop-to-Infrastructure" style="stroke:#000000;stroke-width:1;"/><polygon fill="#000000" points="1613.33,296.6338,1617.33,287.6338,1613.33,291.6338,1609.33,287.6338,1613.33,296.6338" style="stroke:#000000;stroke-width:1;"/><text fill="#000000" font-family="Verdana" font-size="13" lengthAdjust="spacing" textLength="95.8433" x="1156.17" y="179.9444">wires adapters</text></g><!--link APIDesktop to Application--><g class="link" data-entity-1="APIDesktop" data-entity-2="Application" data-source-line="62" data-uid="lnk31" id="link_APIDesktop_Application"><path d="M719.6,189.8746 C730.36,189.8746 738.2,189.8746 738.2,189.8746 C738.2,189.8746 738.2,543.8746 738.2,543.8746 C738.2,543.8746 726.51,543.8746 714.09,543.8746 C707.88,543.8746 701.4875,543.8746 696.2825,543.8746 C695.6319,543.8746 694.9998,543.8746 694.389,543.8746 C694.0835,543.8746 693.7834,543.8746 693.489,543.8746 C693.3417,543.8746 699.1959,543.8746 699.0515,543.8746" fill="none" id="APIDesktop-to-Application" style="stroke:#000000;stroke-width:1;"/><polygon fill="#000000" points="693.0515,543.8746,702.0515,547.8746,698.0515,543.8746,702.0515,539.8746,693.0515,543.8746" style="stroke:#000000;stroke-width:1;"/><text fill="#000000" font-family="Verdana" font-size="13" lengthAdjust="spacing" textLength="115.2671" x="622.2" y="397.9444">creates use cases</text></g><!--link APIDesktop to APIFacade--><g class="link" data-entity-1="APIDesktop" data-entity-2="APIFacade" data-source-line="63" data-uid="lnk32" id="link_APIDesktop_APIFacade"><path d="M685,197.6446 C685,232.2546 685,290.3246 685,325.0946" fill="none" id="APIDesktop-to-APIFacade" style="stroke:#000000;stroke-width:1;"/><polygon fill="#000000" points="685,331.0946,689,322.0946,685,326.0946,681,322.0946,685,331.0946" style="stroke:#000000;stroke-width:1;"/><text fill="#000000" font-family="Verdana" font-size="13" lengthAdjust="spacing" textLength="96.2876" x="588" y="261.4444">uses API types</text></g><!--link Infrastructure to Application--><g class="link" data-entity-1="Infrastructure" data-entity-2="Application" data-source-line="65" data-uid="lnk33" id="link_Infrastructure_Application"><path d="M1621.071,354.8746 C1621.1031,354.8746 1621.1353,354.8746 1621.1675,354.8746 C1622.1973,354.8746 1623.2484,354.8746 1624.2712,354.8746 C1628.3625,354.8746 1632,354.8746 1632,354.8746 C1632,354.8746 1632,544.8746 1632,544.8746 C1632,544.8746 1400.7675,544.8746 1166.825,544.8746 C1049.8538,544.8746 932.205,544.8746 842.4441,544.8746 C797.5636,544.8746 759.6551,544.8746 732.2892,544.8746 C718.6062,544.8746 707.5589,544.8746 699.5936,544.8746 C697.6023,544.8746 695.8036,544.8746 694.2045,544.8746 C693.8047,544.8746 699.4174,544.8746 699.0427,544.8746" fill="none" id="Infrastructure-to-Application" style="stroke:#000000;stroke-width:1;"/><polygon fill="#000000" points="693.0427,544.8746,702.0427,548.8746,698.0427,544.8746,702.0427,540.8746,693.0427,544.8746" style="stroke:#000000;stroke-width:1;"/><text fill="#000000" font-family="Verdana" font-size="13" lengthAdjust="spacing" textLength="163.4775" x="1098.79" y="541.9444">implements Output Ports</text></g><!--link Infrastructure to Domain--><g class="link" data-entity-1="Infrastructure" data-entity-2="Domain" data-source-line="66" data-uid="lnk34" id="link_Infrastructure_Domain"><path d="M1613,417.04 C1613,418.1255 1613,419.2214 1613,420.3273 C1613,455.7155 1613,501.3502 1613,546.4684 C1613,636.7046 1613,724.8746 1613,724.8746 C1613,724.8746 1582.03,724.8746 1550.0925,724.8746 C1534.1238,724.8746 1517.9131,724.8746 1505.2109,724.8746 C1498.8598,724.8746 1499.3859,724.8746 1495.2578,724.8746" fill="none" id="Infrastructure-to-Domain" style="stroke:#000000;stroke-width:1;"/><polygon fill="#000000" points="1489.2578,724.8746,1498.2578,728.8746,1494.2578,724.8746,1498.2578,720.8746,1489.2578,724.8746" style="stroke:#000000;stroke-width:1;"/><text fill="#000000" font-family="Verdana" font-size="13" lengthAdjust="spacing" textLength="124.1094" x="1488" y="603.1544">uses Value Objects</text></g><!--link Application to Domain--><g class="link" data-entity-1="Application" data-entity-2="Domain" data-source-line="68" data-uid="lnk35" id="link_Application_Domain"><path d="M685,773.4827 C685,773.8505 685,774.2164 685,774.5803 C685,775.3079 685,776.0275 685,776.7386 C685,778.161 685,779.5498 685,780.9033 C685,783.6103 685,786.176 685,788.5854 C685,793.4042 685,797.5982 685,801.0485 C685,807.949 685,811.8746 685,811.8746 C685,811.8746 697.4375,811.8746 719.2031,811.8746 C721.9238,811.8746 724.7903,811.8746 727.7964,811.8746 C729.2995,811.8746 724.8375,811.8746 726.4096,811.8746" fill="none" id="Application-to-Domain" style="stroke:#000000;stroke-width:1;"/><polygon fill="#000000" points="732.4096,811.8746,723.4096,807.8746,727.4096,811.8746,723.4096,815.8746,732.4096,811.8746" style="stroke:#000000;stroke-width:1;"/><text fill="#000000" font-family="Verdana" font-size="13" lengthAdjust="spacing" textLength="81.0723" x="910.56" y="808.9444">orchestrates</text></g><!--link APIFacade to Infrastructure--><g class="link" data-entity-1="APIFacade" data-entity-2="Infrastructure" data-source-line="71" data-uid="lnk36" id="link_APIFacade_Infrastructure"><path d="M707.78,378.9046 C707.78,400.1446 707.78,427.8746 707.78,427.8746 C707.78,427.8746 1572.38,427.8746 1572.38,427.8746 C1572.38,427.8746 1572.38,423.3121 1572.38,416.4684 C1572.38,416.2545 1572.38,422.0384 1572.38,421.8201" fill="none" id="APIFacade-to-Infrastructure" style="stroke:#FF0000;stroke-width:1;stroke-dasharray:7,7;"/><polygon fill="#FF0000" points="1572.38,415.8201,1568.38,424.8201,1572.38,420.8201,1576.38,424.8201,1572.38,415.8201" style="stroke:#FF0000;stroke-width:1;"/><text fill="#000000" font-family="Verdana" font-size="13" lengthAdjust="spacing" textLength="100.6748" x="1068.414" y="408.9444">&#10060; FORBIDDEN</text><text fill="#000000" font-family="Verdana" font-size="13" lengthAdjust="spacing" textLength="105.4028" x="1066.05" y="424.7438">Use api/desktop</text></g><g class="legend" data-source-line="73"><rect fill="none" height="299.249" rx="7.5" ry="7.5" style="stroke:#000000;stroke-width:1;" width="556" x="1064" y="943.8746"/><text fill="#000000" font-family="Verdana" font-size="14" font-weight="bold" lengthAdjust="spacing" textLength="274.5859" x="1069" y="962.9498">Key Architectural Rules (LIBRARY)</text><text fill="#000000" font-family="Verdana" font-size="14" lengthAdjust="spacing" textLength="546" x="1069" y="979.9645">&#9552;&#9552;&#9552;&#9552;&#9552;&#9552;&#9552;&#9552;&#9552;&#9552;&#9552;&#9552;&#9552;&#9552;&#9552;&#9552;&#9552;&#9552;&#9552;&#9552;&#9552;&#9552;&#9552;&#9552;&#9552;&#9552;&#9552;&#9552;&#9552;&#9552;&#9552;&#9552;&#9552;&#9552;&#9552;&#9552;&#9552;&#9552;&#9552;</text><text fill="#000000" font-family="Verdana" font-size="14" lengthAdjust="spacing" textLength="19" x="1069" y="996.9791">&#9989;</text><text fill="#000000" font-family="Verdana" font-size="14" font-weight="bold" lengthAdjust="spacing" textLength="275.1465" x="1092.9219" y="996.9791">api/ &#8594; Application + Domain ONLY</text><text fill="#000000" font-family="Verdana" font-size="14" lengthAdjust="spacing" textLength="234.3086" x="1083.7656" y="1013.9938">(does NOT import Infrastructure)</text><text fill="#000000" font-family="Verdana" font-size="14" lengthAdjust="spacing" textLength="280.3857" x="1069" y="1031.0084">&#9989; api/desktop &#8594; ALL (platform wiring)</text><text fill="#000000" font-family="Verdana" font-size="14" lengthAdjust="spacing" textLength="297.8789" x="1069" y="1048.023">&#9989; Infrastructure &#8594; Application + Domain</text><text fill="#000000" font-family="Verdana" font-size="14" lengthAdjust="spacing" textLength="178.8926" x="1069" y="1065.0377">&#9989; Application &#8594; Domain</text><text fill="#000000" font-family="Verdana" font-size="14" lengthAdjust="spacing" textLength="4.9219" x="1069" y="1082.0523">&#160;</text><text fill="#000000" font-family="Verdana" font-size="14" lengthAdjust="spacing" textLength="19" x="1069" y="1099.067">&#10060;</text><text fill="#000000" font-family="Verdana" font-size="14" font-weight="bold" lengthAdjust="spacing" textLength="23.7549" x="1092.9219" y="1099.067">NO</text><text fill="#000000" font-family="Verdana" font-size="14" lengthAdjust="spacing" textLength="148.8594" x="1121.5986" y="1099.067">api/ &#8594; Infrastructure</text><text fill="#000000" font-family="Verdana" font-size="14" lengthAdjust="spacing" textLength="275.0781" x="1083.7656" y="1116.0816">(use api/desktop sub-package instead)</text><text fill="#000000" font-family="Verdana" font-size="14" lengthAdjust="spacing" textLength="19" x="1069" y="1133.0963">&#10060;</text><text fill="#000000" font-family="Verdana" font-size="14" font-weight="bold" lengthAdjust="spacing" textLength="23.7549" x="1092.9219" y="1133.0963">NO</text><text fill="#000000" font-family="Verdana" font-size="14" lengthAdjust="spacing" textLength="139.207" x="1121.5986" y="1133.0963">Domain &#8594; anything</text><text fill="#000000" font-family="Verdana" font-size="14" lengthAdjust="spacing" textLength="4.9219" x="1069" y="1150.1109">&#160;</text><text fill="#000000" font-family="Verdana" font-size="14" font-weight="bold" lengthAdjust="spacing" textLength="171.2061" x="1069" y="1167.1256">Library vs Application</text><text fill="#000000" font-family="Verdana" font-size="14" lengthAdjust="spacing" textLength="546" x="1069" y="1184.1402">&#9552;&#9552;&#9552;&#9552;&#9552;&#9552;&#9552;&#9552;&#9552;&#9552;&#9552;&#9552;&#9552;&#9552;&#9552;&#9552;&#9552;&#9552;&#9552;&#9552;&#9552;&#9552;&#9552;&#9552;&#9552;&#9552;&#9552;&#9552;&#9552;&#9552;&#9552;&#9552;&#9552;&#9552;&#9552;&#9552;&#9552;&#9552;&#9552;</text><text fill="#000000" font-family="Verdana" font-size="14" lengthAdjust="spacing" textLength="347.3887" x="1069" y="1201.1549">&#8226; Library: domain, application, infrastructure, api</text><text fill="#000000" font-family="Verdana" font-size="14" lengthAdjust="spacing" textLength="299.5098" x="1069" y="1218.1695">&#8226; App: domain, application, infrastructure,</text><text fill="#000000" font-family="Verdana" font-size="14" lengthAdjust="spacing" textLength="165.334" x="1103.4531" y="1235.1842">presentation, bootstrap</text></g><!--SRC=[nPRDRYD5483lynH58e5jrfkWXTLk3aYEnmOBoxPCsDN2ScZFLEmcu-vMTqysrWg92vmu82HkSE7HyYHK_tWoCtOaJX1PYhghkhhggv-U3-m6jmYgO5maveOBnJJRGi45sfr2aDfkP4qWP8u65Rmuhsrg9cxSvYVdvqbYkIqGFkrFsGurJFbACxs3WSust69cIurlnPTunzPIi08w2xh1m8Smo9cog4qNFePXWKpG_pHDaqInx8Qj4Ku6Yma4evr5kIfu1cEMiHox9y0CEEdfU3ow7ARmFW78v5P9WSB22LFyRAyJZXpAAQeRAzLUBGrBqXFI8cY-tbYGrqv4Um2zNdHX92n5jv1Ss5xFY_gmn3xUAHzNBhS4zemfHShCSYd0OJLHqzqCEIeKkG6IaHw57Gx1V3PzKzEB7i8xhj405zUQ6QjBJpIgBGfchwNUzet2Z5-JUwPSzID0ToVTumDAVgnndJHC1SIUGqjmEde-VZOUj-dk4nVGnKLJPIY5aLGKhpMLGB0TjyBE0UR9ONIzNghvBOhgYWhtPAiAgc51kEUbLQK5NrDHEheZPLTfPcSiRWcSnRNsgOWQwGF_GIrFL7u-3uzXg-i-CAlldevUZ3yRlMm3-yOW39d1G8nMVj7KyH5u-JwM1ixjbf774MHO79RgWoSHu9nw48bgpUSAub1AdNF1BEwB5Wgvvbd5w9ecWYi9udjs17DwDJVG-K8ZskXHDqeeSH6mAsX7EN3rLnyb6-Grg763sdlySlIypVCLAqg4-Ue7cYw1oQjvYrXiGzHQrYsEtBgfkKHJ5lQxg- -zMbWTeAqAmr6zB8r3Os3gU158ZHNLXUkRY3EJ8aDL0Vjsj9m3xejpA_EI6eH6mLx-zOPfP2lQP9cMP9vcGxk5FugrYoBZb9m-3APJK6uMmMJsUh1CePDHLAZx1f6czRgRL2CG-hby9_gVDohs0lJ3x0g3wl10pCOHNNA8rAj9bT4GTzCAy1Rrpcx80NB8iJRSNUUzYPEsijuQEXTnth7zO3bof1b1HjXS5PVKPfdlh6D7ggWkd69uFc8GBG-Ety8V6JgF7AwO-SiQ5PiaTSi71sJLj07mMEeLpodbyTsWtE-WCrnEhYR3mRIUuAU-NfyU83tLc9FX-xz-XV5yUJb9qz7ihN1JgVRC94c1QrThtaZY2lqhR3pZLBLBgbdg-kdaSZbOlkdwih__uxV__kVk_VDdyj4_gFU__7vqali157iJEhaatsVpAvTAIbsBKZUQhB-ytYvrM4V5TzRLfk-geDlY_9WRKRikSgfHwAIKcLvlDk_re8hdo8i8dRAPi_fhJ-ySFNVCJ-6QlGZ2MMGYj6JYaxl_JhjjF67_RqP_-dl_-NWHX-WJg7r9FMbz13aXZ-SeXdzt9f1qVuh63FLpL5j9QLtNgOIQ8BH2yWy0]--></g></svg>