<svg xmlns="http://www.w3.org/2000/svg" xmlns:xlink="http://www.w3.org/1999/xlink" contentStyleType="text/css" data-diagram-type="DESCRIPTION" height="1228px" preserveAspectRatio="none" style="width:1931px;height:1228px;background:#FFFFFF;" version="1.1" viewBox="0 0 1931 1228" width="1931px" zoomAndPan="magnify"><title>5-Layer Architecture
Hexagonal (Ports &amp; Adapters) + Clean + DDD</title><defs/><g><g class="title" data-source-line="6"><text fill="#000000" font-family="Verdana" font-size="22" font-weight="bold" lengthAdjust="spacing" textLength="255.2666" x="833.3667" y="37.1182">5-Layer Architecture</text><text fill="#000000" font-family="Verdana" font-size="22" font-weight="bold" lengthAdjust="spacing" textLength="564.0938" x="678.9531" y="63.8555">Hexagonal (Ports &amp; Adapters) + Clean + DDD</text></g><!--cluster Bootstrap--><g class="cluster" data-entity="Bootstrap" data-source-line="8" data-uid="ent0002" id="cluster_Bootstrap"><path d="M1160.5,85.4746 L1286.9736,85.4746 A3.75,3.75 0 0 1 1289.4736,87.9746 L1296.4736,108.4893 L1499.5,108.4893 A2.5,2.5 0 0 1 1502,110.9893 L1502,239.9646 A2.5,2.5 0 0 1 1499.5,242.4646 L1160.5,242.4646 A2.5,2.5 0 0 1 1158,239.9646 L1158,87.9746 A2.5,2.5 0 0 1 1160.5,85.4746" fill="#FFEBCD" style="stroke:#000000;stroke-width:1;"/><line style="stroke:#000000;stroke-width:1;" x1="1158" x2="1296.4736" y1="108.4893" y2="108.4893"/><text fill="#000000" font-family="Verdana" font-size="14" font-weight="bold" lengthAdjust="spacing" textLength="125.4736" x="1162" y="101.5498">Bootstrap Layer</text></g><!--cluster Presentation--><g class="cluster" data-entity="Presentation" data-source-line="18" data-uid="ent0006" id="cluster_Presentation"><path d="M390.5,282.4646 L540.4961,282.4646 A3.75,3.75 0 0 1 542.9961,284.9646 L549.9961,305.4793 L1088.5,305.4793 A2.5,2.5 0 0 1 1091,307.9793 L1091,436.9646 A2.5,2.5 0 0 1 1088.5,439.4646 L390.5,439.4646 A2.5,2.5 0 0 1 388,436.9646 L388,284.9646 A2.5,2.5 0 0 1 390.5,282.4646" fill="#FFE4E1" style="stroke:#000000;stroke-width:1;"/><line style="stroke:#000000;stroke-width:1;" x1="388" x2="549.9961" y1="305.4793" y2="305.4793"/><text fill="#000000" font-family="Verdana" font-size="14" font-weight="bold" lengthAdjust="spacing" textLength="148.9961" x="392" y="298.5398">Presentation Layer</text></g><!--cluster Infrastructure--><g class="cluster" data-entity="Infrastructure" data-source-line="30" data-uid="ent0012" id="cluster_Infrastructure"><path d="M1142.5,290.3646 L1304.2266,290.3646 A3.75,3.75 0 0 1 1306.7266,292.8646 L1313.7266,313.3793 L1910.5,313.3793 A2.5,2.5 0 0 1 1913,315.8793 L1913,429.0646 A2.5,2.5 0 0 1 1910.5,431.5646 L1142.5,431.5646 A2.5,2.5 0 0 1 1140,429.0646 L1140,292.8646 A2.5,2.5 0 0 1 1142.5,290.3646" fill="#E6F3FF" style="stroke:#000000;stroke-width:1;"/><line style="stroke:#000000;stroke-width:1;" x1="1140" x2="1313.7266" y1="313.3793" y2="313.3793"/><text fill="#000000" font-family="Verdana" font-size="14" font-weight="bold" lengthAdjust="spacing" textLength="160.7266" x="1144" y="306.4398">Infrastructure Layer</text></g><!--cluster Application--><g class="cluster" data-entity="Application" data-source-line="41" data-uid="ent0018" id="cluster_Application"><path d="M13.5,479.4646 L151.2803,479.4646 A3.75,3.75 0 0 1 153.7803,481.9646 L160.7803,502.4793 L927.5,502.4793 A2.5,2.5 0 0 1 930,504.9793 L930,791.3646 A2.5,2.5 0 0 1 927.5,793.8646 L13.5,793.8646 A2.5,2.5 0 0 1 11,791.3646 L11,481.9646 A2.5,2.5 0 0 1 13.5,479.4646" fill="#E8F5E9" style="stroke:#000000;stroke-width:1;"/><line style="stroke:#000000;stroke-width:1;" x1="11" x2="160.7803" y1="502.4793" y2="502.4793"/><text fill="#000000" font-family="Verdana" font-size="14" font-weight="bold" lengthAdjust="spacing" textLength="136.7803" x="15" y="495.5398">Application Layer</text></g><!--cluster Domain--><g class="cluster" data-entity="Domain" data-source-line="58" data-uid="ent0028" id="cluster_Domain"><path d="M972.5,668.4646 L1082.082,668.4646 A3.75,3.75 0 0 1 1084.582,670.9646 L1091.582,691.4793 L1723.5,691.4793 A2.5,2.5 0 0 1 1726,693.9793 L1726,954.1746 A2.5,2.5 0 0 1 1723.5,956.6746 L972.5,956.6746 A2.5,2.5 0 0 1 970,954.1746 L970,670.9646 A2.5,2.5 0 0 1 972.5,668.4646" fill="#FFF9E6" style="stroke:#000000;stroke-width:1;"/><line style="stroke:#000000;stroke-width:1;" x1="970" x2="1091.582" y1="691.4793" y2="691.4793"/><text fill="#000000" font-family="Verdana" font-size="14" font-weight="bold" lengthAdjust="spacing" textLength="108.582" x="974" y="684.5398">Domain Layer</text></g><g class="entity" data-entity="GMN3" data-source-line="10" data-uid="ent0004" id="entity_GMN3"><path d="M1182.01,129.4746 L1182.01,218.4712 L1413.9807,218.4712 L1413.9807,139.4746 L1403.9807,129.4746 L1182.01,129.4746" fill="#FFFFFF" style="stroke:#000000;stroke-width:1;"/><path d="M1403.9807,129.4746 L1403.9807,139.4746 L1413.9807,139.4746 L1403.9807,129.4746" fill="#FFFFFF" style="stroke:#000000;stroke-width:1;"/><text fill="#000000" font-family="Verdana" font-size="13" font-weight="bold" lengthAdjust="spacing" textLength="129.1938" x="1188.01" y="147.5444">Composition Root</text><text fill="#000000" font-family="Verdana" font-size="13" lengthAdjust="spacing" textLength="159.8848" x="1188.01" y="163.3438">- Wires all dependencies</text><text fill="#000000" font-family="Verdana" font-size="13" lengthAdjust="spacing" textLength="5.9033" x="1188.01" y="179.1431">-</text><text fill="#000000" font-family="Verdana" font-size="13" font-weight="bold" lengthAdjust="spacing" textLength="200.4971" x="1198.4836" y="179.1431">Static dispatch via generics</text><text fill="#000000" font-family="Verdana" font-size="13" lengthAdjust="spacing" textLength="138.6519" x="1188.01" y="194.9424">- Application lifecycle</text><text fill="#000000" font-family="Verdana" font-size="13" lengthAdjust="spacing" textLength="180.4893" x="1188.01" y="210.7417">- Can depend on ALL layers</text></g><!--entity CLI--><g class="entity" data-entity="CLI" data-source-line="19" data-uid="ent0007" id="entity_CLI"><rect fill="#FFFFFF" height="47.0146" rx="2.5" ry="2.5" style="stroke:#000000;stroke-width:1;" width="63.4609" x="740.27" y="347.4646"/><rect fill="#FFFFFF" height="10" style="stroke:#000000;stroke-width:1;" width="15" x="783.7309" y="352.4646"/><rect fill="#FFFFFF" height="2" style="stroke:#000000;stroke-width:1;" width="4" x="781.7309" y="354.4646"/><rect fill="#FFFFFF" height="2" style="stroke:#000000;stroke-width:1;" width="4" x="781.7309" y="358.4646"/><text fill="#000000" font-family="Verdana" font-size="14" lengthAdjust="spacing" textLength="23.4609" x="755.27" y="381.5398">CLI</text></g><!--entity Commands--><g class="entity" data-entity="Commands" data-source-line="20" data-uid="ent0008" id="entity_Commands"><rect fill="#FFFFFF" height="47.0146" rx="2.5" ry="2.5" style="stroke:#000000;stroke-width:1;" width="118.791" x="883.6" y="347.4646"/><rect fill="#FFFFFF" height="10" style="stroke:#000000;stroke-width:1;" width="15" x="982.391" y="352.4646"/><rect fill="#FFFFFF" height="2" style="stroke:#000000;stroke-width:1;" width="4" x="980.391" y="354.4646"/><rect fill="#FFFFFF" height="2" style="stroke:#000000;stroke-width:1;" width="4" x="980.391" y="358.4646"/><text fill="#000000" font-family="Verdana" font-size="14" lengthAdjust="spacing" textLength="78.791" x="898.6" y="381.5398">Commands</text></g><g class="entity" data-entity="GMN9" data-source-line="22" data-uid="ent0010" id="entity_GMN9"><path d="M411.92,326.4646 L411.92,415.4612 L660.0836,415.4612 L660.0836,336.4646 L650.0836,326.4646 L411.92,326.4646" fill="#FFFFFF" style="stroke:#000000;stroke-width:1;"/><path d="M650.0836,326.4646 L650.0836,336.4646 L660.0836,336.4646 L650.0836,326.4646" fill="#FFFFFF" style="stroke:#000000;stroke-width:1;"/><text fill="#000000" font-family="Verdana" font-size="13" font-weight="bold" lengthAdjust="spacing" textLength="123.0684" x="417.92" y="344.5344">Driving Adapters</text><text fill="#000000" font-family="Verdana" font-size="13" lengthAdjust="spacing" textLength="178.1597" x="417.92" y="360.3338">- User interfaces (CLI, API)</text><text fill="#000000" font-family="Verdana" font-size="13" lengthAdjust="spacing" textLength="189.0396" x="417.92" y="376.1331">- Request/response mapping</text><text fill="#000000" font-family="Verdana" font-size="13" lengthAdjust="spacing" textLength="5.9033" x="417.92" y="391.9324">-</text><text fill="#000000" font-family="Verdana" font-size="13" font-weight="bold" lengthAdjust="spacing" textLength="216.6899" x="428.3936" y="391.9324">Depends ONLY on Application</text><text fill="#000000" font-family="Verdana" font-size="13" lengthAdjust="spacing" textLength="5.9033" x="417.92" y="407.7317">-</text><text fill="#000000" font-family="Verdana" font-size="13" font-weight="bold" lengthAdjust="spacing" textLength="174.2114" x="428.3936" y="407.7317">CANNOT access Domain</text></g><!--entity Adapters--><g class="entity" data-entity="Adapters" data-source-line="31" data-uid="ent0013" id="entity_Adapters"><rect fill="#FFFFFF" height="47.0146" rx="2.5" ry="2.5" style="stroke:#000000;stroke-width:1;" width="102.5488" x="1498.73" y="347.4646"/><rect fill="#FFFFFF" height="10" style="stroke:#000000;stroke-width:1;" width="15" x="1581.2788" y="352.4646"/><rect fill="#FFFFFF" height="2" style="stroke:#000000;stroke-width:1;" width="4" x="1579.2788" y="354.4646"/><rect fill="#FFFFFF" height="2" style="stroke:#000000;stroke-width:1;" width="4" x="1579.2788" y="358.4646"/><text fill="#000000" font-family="Verdana" font-size="14" lengthAdjust="spacing" textLength="62.5488" x="1513.73" y="381.5398">Adapters</text></g><!--entity ConsoleWriter--><g class="entity" data-entity="ConsoleWriter" data-source-line="32" data-uid="ent0014" id="entity_ConsoleWriter"><rect fill="#FFFFFF" height="47.0146" rx="2.5" ry="2.5" style="stroke:#000000;stroke-width:1;" width="143.5166" x="1681.24" y="347.4646"/><rect fill="#FFFFFF" height="10" style="stroke:#000000;stroke-width:1;" width="15" x="1804.7566" y="352.4646"/><rect fill="#FFFFFF" height="2" style="stroke:#000000;stroke-width:1;" width="4" x="1802.7566" y="354.4646"/><rect fill="#FFFFFF" height="2" style="stroke:#000000;stroke-width:1;" width="4" x="1802.7566" y="358.4646"/><text fill="#000000" font-family="Verdana" font-size="14" lengthAdjust="spacing" textLength="103.5166" x="1696.24" y="381.5398">Console Writer</text></g><g class="entity" data-entity="GMN15" data-source-line="34" data-uid="ent0016" id="entity_GMN15"><path d="M1163.51,334.3646 L1163.51,407.5619 L1418.4846,407.5619 L1418.4846,344.3646 L1408.4846,334.3646 L1163.51,334.3646" fill="#FFFFFF" style="stroke:#000000;stroke-width:1;"/><path d="M1408.4846,334.3646 L1408.4846,344.3646 L1418.4846,344.3646 L1408.4846,334.3646" fill="#FFFFFF" style="stroke:#000000;stroke-width:1;"/><text fill="#000000" font-family="Verdana" font-size="13" font-weight="bold" lengthAdjust="spacing" textLength="118.168" x="1169.51" y="352.4344">Driven Adapters</text><text fill="#000000" font-family="Verdana" font-size="13" lengthAdjust="spacing" textLength="175.8555" x="1169.51" y="368.2338">- Implements Output Ports</text><text fill="#000000" font-family="Verdana" font-size="13" lengthAdjust="spacing" textLength="191.2168" x="1169.51" y="384.0331">- External system integration</text><text fill="#000000" font-family="Verdana" font-size="13" lengthAdjust="spacing" textLength="233.9746" x="1169.51" y="399.8324">- Depends on Application + Domain</text></g><!--entity UseCases--><g class="entity" data-entity="UseCases" data-source-line="42" data-uid="ent0019" id="entity_UseCases"><rect fill="#FFFFFF" height="47.0146" rx="2.5" ry="2.5" style="stroke:#000000;stroke-width:1;" width="111.9141" x="272.04" y="544.4546"/><rect fill="#FFFFFF" height="10" style="stroke:#000000;stroke-width:1;" width="15" x="363.9541" y="549.4546"/><rect fill="#FFFFFF" height="2" style="stroke:#000000;stroke-width:1;" width="4" x="361.9541" y="551.4546"/><rect fill="#FFFFFF" height="2" style="stroke:#000000;stroke-width:1;" width="4" x="361.9541" y="555.4546"/><text fill="#000000" font-family="Verdana" font-size="14" lengthAdjust="spacing" textLength="71.9141" x="287.04" y="578.5298">Use Cases</text></g><!--entity Ports--><g class="entity" data-entity="Ports" data-source-line="43" data-uid="ent0020" id="entity_Ports"><rect fill="#FFFFFF" height="47.0146" rx="2.5" ry="2.5" style="stroke:#000000;stroke-width:1;" width="75.7246" x="464.14" y="544.4546"/><rect fill="#FFFFFF" height="10" style="stroke:#000000;stroke-width:1;" width="15" x="519.8646" y="549.4546"/><rect fill="#FFFFFF" height="2" style="stroke:#000000;stroke-width:1;" width="4" x="517.8646" y="551.4546"/><rect fill="#FFFFFF" height="2" style="stroke:#000000;stroke-width:1;" width="4" x="517.8646" y="555.4546"/><text fill="#000000" font-family="Verdana" font-size="14" lengthAdjust="spacing" textLength="35.7246" x="479.14" y="578.5298">Ports</text></g><!--entity AppError--><g class="entity" data-entity="AppError" data-source-line="44" data-uid="ent0021" id="entity_AppError"><rect fill="#FFFF99" height="47.0146" rx="2.5" ry="2.5" style="stroke:#000000;stroke-width:1;" width="157.0723" x="35.46" y="544.4546"/><rect fill="#FFFF99" height="10" style="stroke:#000000;stroke-width:1;" width="15" x="172.5323" y="549.4546"/><rect fill="#FFFF99" height="2" style="stroke:#000000;stroke-width:1;" width="4" x="170.5323" y="551.4546"/><rect fill="#FFFF99" height="2" style="stroke:#000000;stroke-width:1;" width="4" x="170.5323" y="555.4546"/><text fill="#000000" font-family="Verdana" font-size="14" lengthAdjust="spacing" textLength="117.0723" x="50.46" y="578.5298">application/error</text></g><g class="entity" data-entity="GMN22" data-source-line="46" data-uid="ent0023" id="entity_GMN22"><path d="M620.01,523.4646 L620.01,612.4612 L841.9895,612.4612 L841.9895,533.4646 L831.9895,523.4646 L620.01,523.4646" fill="#FFFFFF" style="stroke:#000000;stroke-width:1;"/><path d="M831.9895,523.4646 L831.9895,533.4646 L841.9895,533.4646 L831.9895,523.4646" fill="#FFFFFF" style="stroke:#000000;stroke-width:1;"/><text fill="#000000" font-family="Verdana" font-size="13" font-weight="bold" lengthAdjust="spacing" textLength="145.355" x="626.01" y="541.5344">Orchestration Layer</text><text fill="#000000" font-family="Verdana" font-size="13" lengthAdjust="spacing" textLength="175.4937" x="626.01" y="557.3338">- Coordinates domain logic</text><text fill="#000000" font-family="Verdana" font-size="13" lengthAdjust="spacing" textLength="187.5098" x="626.01" y="573.1331">- Defines Input/Output Ports</text><text fill="#000000" font-family="Verdana" font-size="13" lengthAdjust="spacing" textLength="176.7568" x="626.01" y="588.9324">- Re-exports Domain types</text><text fill="#000000" font-family="Verdana" font-size="13" lengthAdjust="spacing" textLength="5.9033" x="626.01" y="604.7317">-</text><text fill="#000000" font-family="Verdana" font-size="13" font-weight="bold" lengthAdjust="spacing" textLength="190.5059" x="636.4836" y="604.7317">Depends ONLY on Domain</text></g><g class="entity" data-entity="GMN25" data-source-line="53" data-uid="ent0026" id="entity_GMN25"><path d="M35.23,728.2646 L35.23,769.8632 A0,0 0 0 0 35.23,769.8632 L218.7744,769.8632 A0,0 0 0 0 218.7744,769.8632 L218.7744,738.2646 L208.7744,728.2646 L118,728.2646 L114,591.6446 L110,728.2646 L35.23,728.2646 A0,0 0 0 0 35.23,728.2646" fill="#FFFFFF" style="stroke:#000000;stroke-width:1;"/><path d="M208.7744,728.2646 L208.7744,738.2646 L218.7744,738.2646 L208.7744,728.2646" fill="#FFFFFF" style="stroke:#000000;stroke-width:1;"/><text fill="#000000" font-family="Verdana" font-size="13" lengthAdjust="spacing" textLength="162.5444" x="41.23" y="746.3344">Re-exports domain/error</text><text fill="#000000" font-family="Verdana" font-size="13" lengthAdjust="spacing" textLength="141.1211" x="41.23" y="762.1338">for Presentation layer</text></g><!--entity VOs--><g class="entity" data-entity="VOs" data-source-line="59" data-uid="ent0029" id="entity_VOs"><rect fill="#FFFFFF" height="47.0146" rx="2.5" ry="2.5" style="stroke:#000000;stroke-width:1;" width="136.9473" x="1287.53" y="725.5546"/><rect fill="#FFFFFF" height="10" style="stroke:#000000;stroke-width:1;" width="15" x="1404.4773" y="730.5546"/><rect fill="#FFFFFF" height="2" style="stroke:#000000;stroke-width:1;" width="4" x="1402.4773" y="732.5546"/><rect fill="#FFFFFF" height="2" style="stroke:#000000;stroke-width:1;" width="4" x="1402.4773" y="736.5546"/><text fill="#000000" font-family="Verdana" font-size="14" lengthAdjust="spacing" textLength="96.9473" x="1302.53" y="759.6298">Value Objects</text></g><!--entity DomainError--><g class="entity" data-entity="DomainError" data-source-line="60" data-uid="ent0030" id="entity_DomainError"><rect fill="#FFFFFF" height="47.0146" rx="2.5" ry="2.5" style="stroke:#000000;stroke-width:1;" width="133.0645" x="1504.47" y="725.5546"/><rect fill="#FFFFFF" height="10" style="stroke:#000000;stroke-width:1;" width="15" x="1617.5345" y="730.5546"/><rect fill="#FFFFFF" height="2" style="stroke:#000000;stroke-width:1;" width="4" x="1615.5345" y="732.5546"/><rect fill="#FFFFFF" height="2" style="stroke:#000000;stroke-width:1;" width="4" x="1615.5345" y="736.5546"/><text fill="#000000" font-family="Verdana" font-size="14" lengthAdjust="spacing" textLength="93.0645" x="1519.47" y="759.6298">domain/error</text></g><!--entity Result--><g class="entity" data-entity="Result" data-source-line="61" data-uid="ent0031" id="entity_Result"><rect fill="#FFFFFF" height="47.0146" rx="2.5" ry="2.5" style="stroke:#000000;stroke-width:1;" width="104.9277" x="1303.54" y="885.6646"/><rect fill="#FFFFFF" height="10" style="stroke:#000000;stroke-width:1;" width="15" x="1388.4677" y="890.6646"/><rect fill="#FFFFFF" height="2" style="stroke:#000000;stroke-width:1;" width="4" x="1386.4677" y="892.6646"/><rect fill="#FFFFFF" height="2" style="stroke:#000000;stroke-width:1;" width="4" x="1386.4677" y="896.6646"/><text fill="#000000" font-family="Verdana" font-size="14" lengthAdjust="spacing" textLength="64.9277" x="1318.54" y="919.7398">Result[T]</text></g><g class="entity" data-entity="GMN32" data-source-line="63" data-uid="ent0033" id="entity_GMN32"><path d="M994.04,712.4646 L994.04,785.6619 L1207.9643,785.6619 L1207.9643,722.4646 L1197.9643,712.4646 L994.04,712.4646" fill="#FFFFFF" style="stroke:#000000;stroke-width:1;"/><path d="M1197.9643,712.4646 L1197.9643,722.4646 L1207.9643,722.4646 L1197.9643,712.4646" fill="#FFFFFF" style="stroke:#000000;stroke-width:1;"/><text fill="#000000" font-family="Verdana" font-size="13" font-weight="bold" lengthAdjust="spacing" textLength="145.3423" x="1000.04" y="730.5344">Business Logic Core</text><text fill="#000000" font-family="Verdana" font-size="13" lengthAdjust="spacing" textLength="154.6099" x="1000.04" y="746.3338">- Pure domain concepts</text><text fill="#000000" font-family="Verdana" font-size="13" lengthAdjust="spacing" textLength="192.9243" x="1000.04" y="762.1331">- ZERO external module deps</text><text fill="#000000" font-family="Verdana" font-size="13" lengthAdjust="spacing" textLength="157.3901" x="1000.04" y="777.9324">- Shareable across apps</text></g><!--link Bootstrap to GMN3--><g class="link" data-entity-1="Bootstrap" data-entity-2="GMN3" data-source-line="10" data-uid="lnk5" id="link_Bootstrap_GMN3"><path d="M1493.44,173.6746 C1488.62,173.6746 1453.54,173.6746 1414.39,173.6746" fill="none" id="Bootstrap-GMN3" style="stroke:#000000;stroke-width:1;stroke-dasharray:7,7;"/></g><!--link Presentation to GMN9--><g class="link" data-entity-1="Presentation" data-entity-2="GMN9" data-source-line="22" data-uid="lnk11" id="link_Presentation_GMN9"><path d="M1082.29,370.6746 C1076.87,370.6746 1042.2,370.6746 1042.2,370.6746 C1042.2,370.6746 1042.2,340.6746 1042.2,340.6746 C1042.2,340.6746 810.36,340.6746 660.48,340.6746" fill="none" id="Presentation-GMN9" style="stroke:#000000;stroke-width:1;stroke-dasharray:7,7;"/></g><!--link Infrastructure to GMN15--><g class="link" data-entity-1="Infrastructure" data-entity-2="GMN15" data-source-line="34" data-uid="lnk17" id="link_Infrastructure_GMN15"><path d="M1904.29,370.6746 C1898.9,370.6746 1864.38,370.6746 1864.38,370.6746 C1864.38,370.6746 1864.38,400.6746 1864.38,400.6746 C1864.38,400.6746 1587.95,400.6746 1418.96,400.6746" fill="none" id="Infrastructure-GMN15" style="stroke:#000000;stroke-width:1;stroke-dasharray:7,7;"/></g><!--link Application to GMN22--><g class="link" data-entity-1="Application" data-entity-2="GMN22" data-source-line="46" data-uid="lnk24" id="link_Application_GMN22"><path d="M921.45,567.6746 C916.67,567.6746 881.29,567.6746 842.29,567.6746" fill="none" id="Application-GMN22" style="stroke:#000000;stroke-width:1;stroke-dasharray:7,7;"/></g><!--link Domain to GMN32--><g class="link" data-entity-1="Domain" data-entity-2="GMN32" data-source-line="63" data-uid="lnk34" id="link_Domain_GMN32"><path d="M1717.67,748.3146 C1717.67,743.6346 1717.67,718.6746 1717.67,718.6746 C1717.67,718.6746 1385.09,718.6746 1208.42,718.6746" fill="none" id="Domain-GMN32" style="stroke:#000000;stroke-width:1;stroke-dasharray:7,7;"/></g><!--link Bootstrap to Presentation--><g class="link" data-entity-1="Bootstrap" data-entity-2="Presentation" data-source-line="71" data-uid="lnk35" id="link_Bootstrap_Presentation"><path d="M1493.67,242.8185 C1493.67,247.4932 1493.67,252.2137 1493.67,256.9121 C1493.67,294.4996 1493.67,330.6746 1493.67,330.6746 C1493.67,330.6746 1391.0025,330.6746 1288.335,330.6746 C1237.0013,330.6746 1185.6675,330.6746 1147.1672,330.6746 C1127.917,330.6746 1111.8752,330.6746 1100.646,330.6746 C1097.8387,330.6746 1095.3321,330.6746 1093.1514,330.6746 C1092.6063,330.6746 1098.0815,330.6746 1097.5774,330.6746" fill="none" id="Bootstrap-to-Presentation" style="stroke:#000000;stroke-width:1;"/><polygon fill="#000000" points="1091.5774,330.6746,1100.5774,334.6746,1096.5774,330.6746,1100.5774,326.6746,1091.5774,330.6746" style="stroke:#000000;stroke-width:1;"/><text fill="#000000" font-family="Verdana" font-size="13" lengthAdjust="spacing" textLength="34.271" x="1311.54" y="327.7444">wires</text></g><!--link Bootstrap to Infrastructure--><g class="link" data-entity-1="Bootstrap" data-entity-2="Infrastructure" data-source-line="72" data-uid="lnk36" id="link_Bootstrap_Infrastructure"><path d="M1502.3055,173.6746 C1506.1854,173.6746 1511.3377,173.6746 1517.5756,173.6746 C1530.0513,173.6746 1546.8691,173.6746 1566.5339,173.6746 C1605.8634,173.6746 1656.5806,173.6746 1706.7238,173.6746 C1807.01,173.6746 1905,173.6746 1905,173.6746 C1905,173.6746 1905,219.9646 1905,267.7009 C1905,273.6679 1905,279.6575 1905,285.5822 C1905,287.0633 1905,305.5551 1905,307.0267" fill="none" id="Bootstrap-to-Infrastructure" style="stroke:#000000;stroke-width:1;"/><polygon fill="#000000" points="1905,313.0267,1909,304.0267,1905,308.0267,1901,304.0267,1905,313.0267" style="stroke:#000000;stroke-width:1;"/><text fill="#000000" font-family="Verdana" font-size="13" lengthAdjust="spacing" textLength="34.271" x="1763.2" y="170.7444">wires</text></g><!--link Bootstrap to Application--><g class="link" data-entity-1="Bootstrap" data-entity-2="Application" data-source-line="73" data-uid="lnk37" id="link_Bootstrap_Application"><path d="M1494.33,243.1241 C1494.33,243.9497 1494.33,244.7792 1494.33,245.6124 C1494.33,248.9453 1494.33,252.3373 1494.33,255.7752 C1494.33,269.527 1494.33,284.014 1494.33,298.3921 C1494.33,355.9046 1494.33,411.6746 1494.33,411.6746 C1494.33,411.6746 922,411.6746 922,411.6746 C922,411.6746 922,420.6946 922,434.4007 C922,441.2537 922,449.2783 922,457.9327 C922,462.2599 922,466.7445 922,471.3188 C922,473.606 922,475.9156 922,478.2392 C922,478.5296 922,495.835 922,496.1258" fill="none" id="Bootstrap-to-Application" style="stroke:#000000;stroke-width:1;"/><polygon fill="#000000" points="922,502.1258,926,493.1258,922,497.1258,918,493.1258,922,502.1258" style="stroke:#000000;stroke-width:1;"/><text fill="#000000" font-family="Verdana" font-size="13" lengthAdjust="spacing" textLength="34.271" x="1213.88" y="425.7444">wires</text></g><!--link Bootstrap to Domain--><g class="link" data-entity-1="Bootstrap" data-entity-2="Domain" data-source-line="74" data-uid="lnk38" id="link_Bootstrap_Domain"><path d="M1502.0338,151.6746 C1502.1885,151.6746 1502.3452,151.6746 1502.5038,151.6746 C1502.8211,151.6746 1503.1463,151.6746 1503.4792,151.6746 C1504.145,151.6746 1504.8418,151.6746 1505.5682,151.6746 C1507.0209,151.6746 1508.5921,151.6746 1510.2708,151.6746 C1513.6283,151.6746 1517.4162,151.6746 1521.5484,151.6746 C1538.0775,151.6746 1560.1163,151.6746 1582.155,151.6746 C1626.2325,151.6746 1670.31,151.6746 1670.31,151.6746 C1670.31,151.6746 1670.31,300.9246 1670.31,450.1746 C1670.31,524.7996 1670.31,599.4246 1670.31,655.3934 C1670.31,658.8914 1670.31,662.3166 1670.31,665.6643 C1670.31,666.5013 1670.31,684.348 1670.31,685.1752" fill="none" id="Bootstrap-to-Domain" style="stroke:#000000;stroke-width:1;"/><polygon fill="#000000" points="1670.31,691.1752,1674.31,682.1752,1670.31,686.1752,1666.31,682.1752,1670.31,691.1752" style="stroke:#000000;stroke-width:1;"/><text fill="#000000" font-family="Verdana" font-size="13" lengthAdjust="spacing" textLength="34.271" x="1635.31" y="371.7944">wires</text></g><!--link Presentation to Application--><g class="link" data-entity-1="Presentation" data-entity-2="Application" data-source-line="76" data-uid="lnk39" id="link_Presentation_Application"><path d="M1082.67,439.7344 C1082.67,440.0912 1082.67,440.4486 1082.67,440.8065 C1082.67,441.5223 1082.67,442.2404 1082.67,442.9604 C1082.67,444.4006 1082.67,445.8488 1082.67,447.3039 C1082.67,450.214 1082.67,453.1512 1082.67,456.1046 C1082.67,462.0114 1082.67,467.983 1082.67,473.9321 C1082.67,521.5246 1082.67,567.6746 1082.67,567.6746 C1082.67,567.6746 1045.58,567.6746 1007.0413,567.6746 C987.7719,567.6746 968.1403,567.6746 952.6017,567.6746 C944.8324,567.6746 938.0864,567.6746 932.9204,567.6746 C932.2747,567.6746 931.6537,567.6746 931.0584,567.6746 C930.7608,567.6746 936.4696,567.6746 936.1849,567.6746" fill="none" id="Presentation-to-Application" style="stroke:#000000;stroke-width:1;"/><polygon fill="#000000" points="930.1849,567.6746,939.1849,571.6746,935.1849,567.6746,939.1849,563.6746,930.1849,567.6746" style="stroke:#000000;stroke-width:1;"/><text fill="#000000" font-family="Verdana" font-size="13" lengthAdjust="spacing" textLength="105.9487" x="958.0941" y="530.6444">calls Input Ports</text><text fill="#000000" font-family="Verdana" font-size="13" lengthAdjust="spacing" textLength="142.7969" x="939.67" y="546.4438">uses application/error</text></g><!--link Presentation to Domain--><!--link Presentation to Domain--><g class="link" data-entity-1="Presentation" data-entity-2="Domain" data-source-line="92" data-uid="lnk44" id="link_Presentation_Domain"><path d="M1083.33,440.488 C1083.33,440.887 1083.33,441.287 1083.33,441.6877 C1083.33,442.4893 1083.33,443.2941 1083.33,444.1021 C1083.33,445.7181 1083.33,447.3467 1083.33,448.9861 C1083.33,462.102 1083.33,475.919 1083.33,489.6321 C1083.33,544.4846 1083.33,597.6746 1083.33,597.6746 C1083.33,597.6746 1648.46,597.6746 1648.46,597.6746 C1648.46,597.6746 1648.46,608.9871 1648.46,625.9559 C1648.46,634.4402 1648.46,644.3387 1648.46,654.9441 C1648.46,657.5955 1648.46,660.2911 1648.46,663.0198 C1648.46,664.3841 1648.46,665.7567 1648.46,667.1363 C1648.46,667.4812 1648.46,684.8411 1648.46,685.1869" fill="none" id="Presentation-to-Domain-1" style="stroke:#FF0000;stroke-width:1;stroke-dasharray:7,7;"/><polygon fill="#FF0000" points="1648.46,691.1869,1652.46,682.1869,1648.46,686.1869,1644.46,682.1869,1648.46,691.1869" style="stroke:#FF0000;stroke-width:1;"/><text fill="#000000" font-family="Verdana" font-size="13" lengthAdjust="spacing" textLength="100.6748" x="1276.3582" y="578.7444">&#10060; FORBIDDEN</text><text fill="#000000" font-family="Verdana" font-size="13" lengthAdjust="spacing" textLength="130.5713" x="1261.41" y="594.5438">No transitive access</text></g><!--link Infrastructure to Application--><g class="link" data-entity-1="Infrastructure" data-entity-2="Application" data-source-line="79" data-uid="lnk41" id="link_Infrastructure_Application"><path d="M1913.0184,370.6746 C1913.1515,370.6746 1913.2849,370.6746 1913.4187,370.6746 C1913.6861,370.6746 1913.9547,370.6746 1914.2236,370.6746 C1914.7615,370.6746 1915.3005,370.6746 1915.8338,370.6746 C1920.1,370.6746 1924,370.6746 1924,370.6746 C1924,370.6746 1924,568.6746 1924,568.6746 C1924,568.6746 1679.3375,568.6746 1431.8075,568.6746 C1308.0425,568.6746 1183.5606,568.6746 1088.5863,568.6746 C1041.0991,568.6746 1000.9888,568.6746 972.0334,568.6746 C957.5557,568.6746 945.8667,568.6746 937.4387,568.6746 C935.3317,568.6746 933.4285,568.6746 931.7366,568.6746 C931.3136,568.6746 936.9038,568.6746 936.5073,568.6746" fill="none" id="Infrastructure-to-Application" style="stroke:#000000;stroke-width:1;"/><polygon fill="#000000" points="930.5073,568.6746,939.5073,572.6746,935.5073,568.6746,939.5073,564.6746,930.5073,568.6746" style="stroke:#000000;stroke-width:1;"/><text fill="#000000" font-family="Verdana" font-size="13" lengthAdjust="spacing" textLength="163.4775" x="1532.47" y="565.7444">implements Output Ports</text></g><!--link Infrastructure to Domain--><g class="link" data-entity-1="Infrastructure" data-entity-2="Domain" data-source-line="80" data-uid="lnk42" id="link_Infrastructure_Domain"><path d="M1905,432.6136 C1905,433.1627 1905,433.7144 1905,434.2687 C1905,435.3774 1905,436.4967 1905,437.6262 C1905,473.7696 1905,520.3784 1905,566.4596 C1905,658.6221 1905,748.6746 1905,748.6746 C1905,748.6746 1861.125,748.6746 1815.88,748.6746 C1793.2575,748.6746 1770.2925,748.6746 1752.2981,748.6746 C1743.3009,748.6746 1735.5464,748.6746 1729.6987,748.6746 C1728.9677,748.6746 1728.2665,748.6746 1727.5964,748.6746 C1727.2614,748.6746 1726.9341,748.6746 1726.6148,748.6746 C1726.4551,748.6746 1732.2975,748.6746 1732.1418,748.6746" fill="none" id="Infrastructure-to-Domain" style="stroke:#000000;stroke-width:1;"/><polygon fill="#000000" points="1726.1418,748.6746,1735.1418,752.6746,1731.1418,748.6746,1735.1418,744.6746,1726.1418,748.6746" style="stroke:#000000;stroke-width:1;"/><text fill="#000000" font-family="Verdana" font-size="13" lengthAdjust="spacing" textLength="124.1094" x="1780" y="650.4244">uses Value Objects</text></g><!--link Application to Domain--><g class="link" data-entity-1="Application" data-entity-2="Domain" data-source-line="82" data-uid="lnk43" id="link_Application_Domain"><path d="M930.9432,583.6746 C936.7757,583.6746 945.33,583.6746 956.2173,583.6746 C977.992,583.6746 1009.0986,583.6746 1046.4266,583.6746 C1121.0825,583.6746 1220.6238,583.6746 1320.165,583.6746 C1519.2475,583.6746 1718.33,583.6746 1718.33,583.6746 C1718.33,583.6746 1718.33,621.8546 1718.33,661.5259 C1718.33,662.7656 1718.33,664.0068 1718.33,665.2483 C1718.33,665.869 1718.33,666.4899 1718.33,667.1107 C1718.33,667.4211 1718.33,684.7461 1718.33,685.0565" fill="none" id="Application-to-Domain" style="stroke:#000000;stroke-width:1;"/><polygon fill="#000000" points="1718.33,691.0565,1722.33,682.0565,1718.33,686.0565,1714.33,682.0565,1718.33,691.0565" style="stroke:#000000;stroke-width:1;"/><text fill="#000000" font-family="Verdana" font-size="13" lengthAdjust="spacing" textLength="81.0723" x="1441.9766" y="597.7444">orchestrates</text><path d="M1399.97,606.4739 L1399.97,663.4739 L1564.97,663.4739 L1564.97,616.4739 L1554.97,606.4739 L1399.97,606.4739" fill="#FFFFFF" style="stroke:#000000;stroke-width:1;"/><path d="M1554.97,606.4739 L1554.97,616.4739 L1564.97,616.4739 L1554.97,606.4739" fill="#FFFFFF" style="stroke:#000000;stroke-width:1;"/><text fill="#000000" font-family="Verdana" font-size="13" lengthAdjust="spacing" textLength="86.2529" x="1405.97" y="624.5438">&#9989; ALLOWED</text><text fill="#000000" font-family="Verdana" font-size="13" lengthAdjust="spacing" textLength="144.0854" x="1405.97" y="640.3431">Uses application/error</text><text fill="#000000" font-family="Verdana" font-size="13" lengthAdjust="spacing" textLength="124.0332" x="1405.97" y="656.1424">(not domain/error)</text></g><g class="legend" data-source-line="94"><rect fill="none" height="248.2051" rx="7.5" ry="7.5" style="stroke:#000000;stroke-width:1;" width="444" x="1468" y="967.6746"/><text fill="#000000" font-family="Verdana" font-size="14" font-weight="bold" lengthAdjust="spacing" textLength="184.2695" x="1473" y="986.7498">Key Architectural Rules</text><text fill="#000000" font-family="Verdana" font-size="14" lengthAdjust="spacing" textLength="434" x="1473" y="1003.7645">&#9552;&#9552;&#9552;&#9552;&#9552;&#9552;&#9552;&#9552;&#9552;&#9552;&#9552;&#9552;&#9552;&#9552;&#9552;&#9552;&#9552;&#9552;&#9552;&#9552;&#9552;&#9552;&#9552;&#9552;&#9552;&#9552;&#9552;&#9552;&#9552;&#9552;&#9552;</text><text fill="#000000" font-family="Verdana" font-size="14" lengthAdjust="spacing" textLength="19" x="1473" y="1020.7791">&#9989;</text><text fill="#000000" font-family="Verdana" font-size="14" font-weight="bold" lengthAdjust="spacing" textLength="260.2715" x="1496.9219" y="1020.7791">Presentation &#8594; Application ONLY</text><text fill="#000000" font-family="Verdana" font-size="14" lengthAdjust="spacing" textLength="210.6494" x="1487.7656" y="1037.7938">(no transitive Domain access)</text><text fill="#000000" font-family="Verdana" font-size="14" lengthAdjust="spacing" textLength="297.8789" x="1473" y="1054.8084">&#9989; Infrastructure &#8594; Application + Domain</text><text fill="#000000" font-family="Verdana" font-size="14" lengthAdjust="spacing" textLength="178.8926" x="1473" y="1071.823">&#9989; Application &#8594; Domain</text><text fill="#000000" font-family="Verdana" font-size="14" lengthAdjust="spacing" textLength="276.4688" x="1473" y="1088.8377">&#9989; Bootstrap &#8594; ALL (composition root)</text><text fill="#000000" font-family="Verdana" font-size="14" lengthAdjust="spacing" textLength="4.9219" x="1473" y="1105.8523">&#160;</text><text fill="#000000" font-family="Verdana" font-size="14" lengthAdjust="spacing" textLength="19" x="1473" y="1122.867">&#10060;</text><text fill="#000000" font-family="Verdana" font-size="14" font-weight="bold" lengthAdjust="spacing" textLength="23.7549" x="1496.9219" y="1122.867">NO</text><text fill="#000000" font-family="Verdana" font-size="14" lengthAdjust="spacing" textLength="165.7441" x="1525.5986" y="1122.867">Presentation &#8594; Domain</text><text fill="#000000" font-family="Verdana" font-size="14" lengthAdjust="spacing" textLength="19" x="1473" y="1139.8816">&#10060;</text><text fill="#000000" font-family="Verdana" font-size="14" font-weight="bold" lengthAdjust="spacing" textLength="23.7549" x="1496.9219" y="1139.8816">NO</text><text fill="#000000" font-family="Verdana" font-size="14" lengthAdjust="spacing" textLength="208.243" x="1525.5986" y="1139.8816">Presentation &#8596; Infrastructure</text><text fill="#000000" font-family="Verdana" font-size="14" lengthAdjust="spacing" textLength="19" x="1473" y="1156.8963">&#10060;</text><text fill="#000000" font-family="Verdana" font-size="14" font-weight="bold" lengthAdjust="spacing" textLength="23.7549" x="1496.9219" y="1156.8963">NO</text><text fill="#000000" font-family="Verdana" font-size="14" lengthAdjust="spacing" textLength="139.207" x="1525.5986" y="1156.8963">Domain &#8594; anything</text><text fill="#000000" font-family="Verdana" font-size="14" lengthAdjust="spacing" textLength="4.9219" x="1473" y="1173.9109">&#160;</text><text fill="#000000" font-family="Verdana" font-size="14" font-weight="bold" lengthAdjust="spacing" textLength="282.4268" x="1473" y="1190.9256">Domain is the ONLY shareable layer</text><text fill="#000000" font-family="Verdana" font-size="14" lengthAdjust="spacing" textLength="194.4346" x="1473" y="1207.9402">across multiple applications</text></g><!--SRC=[jLPBR-Cs4BxhLqmJe1khzMuMxIusFHHmB1bhrB03xoDeDtjWfB7DHY9Laih6A7fiJpqKHNjh_rn-IOSKhPVjOm431ZcZUNpppGm_CnlC4OgCSH7eEouAfbWE6HTejWM2L6OZMm8XKzHOmAlprgLYuivUFZy_3mB3JORmOZXZMrGmKic66qnCgV16lCO7jfQ2PN1sHPOrV0wZb1K6bHx05p3Ea0dwZw8e20gMtB4rmicbb4ORnGfm9a-0QMZkJYUJ-78SmSy1K706GV7rne1SDJea0GZ3iSmBgRdXKi2IP67e14EuvWeri2o350iKAOg4e_R2C7nZcE49f5mNp2GRkESCrYXGyKJNDaP5aV64EUCPNs6oJJBqiZ4bLLa6aevcCyXi8jQ3lRDH1x-q4hwYS52OobYJS-VQflrr_DobdTZ418dWP3oREbtwxmbadZEHwahg3tkGjLrur2B5xxbOrtMgCtwdgRnSqDsA9OJV6Vdy4aPNqu5NME9F9MhpZ6nI51eXPqL1fcfW8uU9XiLyzhr3fi6mza9b6ytdYxV04dAY8P8vCTM93s8t5Il5gEgbOrmBlPxWD7uv-MeowUEtoz9ziZlqaHHQ4iEl5V5QUJpTLNMp1shNSmjM5FkeJlCYeuOKr1kBqXIb0TSeNXe_aB9j7xtL1dC7_rervHh23jCkdBQd7737O6lhDfYrRq_ZLvCNyKKVC681yLjZXHYTtA6hupAeAEnpQGbPu-CPAYLhpx4zM9vF9XSNUw2sGlE8BcZIeEtt9eaQrR6KAkM26U9fwe20JAvvKeEsedbdEKA0Fpk0-nA7-52uYLNX27OuwgDCFiHIdy6jD4RcFWMNexFIyb05M87XP2l2eTFyRdmSAwKFiAcYlx18NiGl-mLypx8ION7x8ytegaZl5xqIjGDgMTm5tz9SeYupy-7jHwTMdVPALpFHLksor1Pw3JDR3ogKmhfgLxPHVRaIAH8iweBy42yNWBjko6LQKaVIZDt9tsoOGdPBbonHaimJpVhpzeblbchSsnbEaxcGr5CmdL-FbX6S9MZdsr0ZqgvR3u9cxGnJ-KaCl-tMvHluP5V90RNUz3cks6wvurg-f3k5e1F5OLC9xJVFy8hQDwBKw83fzb_Fs8SDJmcYZntFGT1BwB1FVcIO7Vcupie5rY5c4BGjxtqWwzwtQ3o1CKrYKiwesqgHCcNNkIEXsyxYZfZm-C-ljk2BwpYYqxl3K02SqMUTZXm4DOV8qKIgMuTFytJOTW5ywdZ_j0xsL65A4J_- -pjC5ilBQHJ5yninbq3H2_iwkKU_wu8WmxLrvYm4jbk-mstxHKK9BedurVPu_FkF_-_d0Gl3JcwFl_tPgRWTVxvxBN3jb7psLMO3Rwx7Wxwvrj9orMg9h6f7sFI8iqATV9QqtdkAn8F0wXBkOJXVX27ifT8OFAhqr_usRodx9Aqj9hPcOnyxhcvUm3NGSxlQ4hgUK5czgloiocbgyiBEhYPZRMbNyI7u3m00]--></g></svg>