<svg xmlns="http://www.w3.org/2000/svg" xmlns:xlink="http://www.w3.org/1999/xlink" contentStyleType="text/css" data-diagram-type="DESCRIPTION" height="1465px" preserveAspectRatio="none" style="width:2032px;height:1465px;background:#FFFFFF;" version="1.1" viewBox="0 0 2032 1465" width="2032px" zoomAndPan="magnify"><title>Package Structure (LIBRARY)
Actual Packages in Each Layer</title><defs/><g><g class="title" data-source-line="4"><text fill="#000000" font-family="Verdana" font-size="22" font-weight="bold" lengthAdjust="spacing" textLength="369.1016" x="827.2042" y="37.1182">Package Structure (LIBRARY)</text><text fill="#000000" font-family="Verdana" font-size="22" font-weight="bold" lengthAdjust="spacing" textLength="374.3867" x="824.5616" y="63.8555">Actual Packages in Each Layer</text></g><!--cluster API Layer (Public Facade)--><g class="cluster" data-entity="API Layer .Public Facade." data-source-line="6" data-uid="ent0002" id="cluster_API Layer .Public Facade."><rect fill="#FFEBCD" height="255.79" rx="2.5" ry="2.5" style="stroke:#000000;stroke-width:1;" width="910" x="639.79" y="126.0046"/><path d="M854.7382,126.0046 L854.7382,136.0193 L844.7382,146.0193 L639.79,146.0193" fill="none" style="stroke:#000000;stroke-width:1;"/><text fill="#000000" font-family="Verdana" font-size="14" font-weight="bold" lengthAdjust="spacing" textLength="204.9482" x="642.79" y="141.0798">API Layer (Public Facade)</text></g><!--cluster Infrastructure Layer--><g class="cluster" data-entity="Infrastructure Layer" data-source-line="35" data-uid="ent0011" id="cluster_Infrastructure Layer"><rect fill="#E6F3FF" height="192.6" rx="2.5" ry="2.5" style="stroke:#000000;stroke-width:1;" width="463" x="394.79" y="446.7946"/><path d="M565.5166,446.7946 L565.5166,456.8093 L555.5166,466.8093 L394.79,466.8093" fill="none" style="stroke:#000000;stroke-width:1;"/><text fill="#000000" font-family="Verdana" font-size="14" font-weight="bold" lengthAdjust="spacing" textLength="160.7266" x="397.79" y="461.8698">Infrastructure Layer</text></g><!--cluster Application Layer--><g class="cluster" data-entity="Application Layer" data-source-line="48" data-uid="ent0016" id="cluster_Application Layer"><rect fill="#E8F5E9" height="208.39" rx="2.5" ry="2.5" style="stroke:#000000;stroke-width:1;" width="1549" x="331.79" y="688.3946"/><path d="M478.5703,688.3946 L478.5703,698.4093 L468.5703,708.4093 L331.79,708.4093" fill="none" style="stroke:#000000;stroke-width:1;"/><text fill="#000000" font-family="Verdana" font-size="14" font-weight="bold" lengthAdjust="spacing" textLength="136.7803" x="334.79" y="703.4698">Application Layer</text></g><!--cluster Domain Layer--><g class="cluster" data-entity="Domain Layer" data-source-line="68" data-uid="ent0026" id="cluster_Domain Layer"><rect fill="#FFF9E6" height="129.4" rx="2.5" ry="2.5" style="stroke:#000000;stroke-width:1;" width="810" x="295.79" y="945.7846"/><path d="M414.372,945.7846 L414.372,955.7993 L404.372,965.7993 L295.79,965.7993" fill="none" style="stroke:#000000;stroke-width:1;"/><text fill="#000000" font-family="Verdana" font-size="14" font-weight="bold" lengthAdjust="spacing" textLength="108.582" x="298.79" y="960.8598">Domain Layer</text></g><!--entity APIFacade--><g class="entity" data-entity="APIFacade" data-source-line="7" data-uid="ent0003" id="entity_APIFacade"><rect fill="#FFFFFF" height="37.0146" rx="2.5" ry="2.5" style="stroke:#000000;stroke-width:1;" width="40.9727" x="1109.31" y="255.3946"/><text fill="#000000" font-family="Verdana" font-size="14" lengthAdjust="spacing" textLength="20.9727" x="1119.31" y="279.4698">api</text></g><!--entity APIDesktop--><g class="entity" data-entity="APIDesktop" data-source-line="8" data-uid="ent0004" id="entity_APIDesktop"><rect fill="#FFFFFF" height="37.0146" rx="2.5" ry="2.5" style="stroke:#000000;stroke-width:1;" width="102.708" x="655.44" y="255.3946"/><text fill="#000000" font-family="Verdana" font-size="14" lengthAdjust="spacing" textLength="82.708" x="665.44" y="279.4698">api/desktop</text></g><g class="entity" data-entity="GMN5" data-source-line="10" data-uid="ent0006" id="entity_GMN5"><path d="M1185.75,197.8046 L1185.75,269.9046 L1150.46,273.9046 L1185.75,277.9046 L1185.75,349.9985 A0,0 0 0 0 1185.75,349.9985 L1533.832,349.9985 A0,0 0 0 0 1533.832,349.9985 L1533.832,207.8046 L1523.832,197.8046 L1185.75,197.8046 A0,0 0 0 0 1185.75,197.8046" fill="#FFFFFF" style="stroke:#000000;stroke-width:1;"/><path d="M1523.832,197.8046 L1523.832,207.8046 L1533.832,207.8046 L1523.832,197.8046" fill="#FFFFFF" style="stroke:#000000;stroke-width:1;"/><text fill="#000000" font-family="Verdana" font-size="13" font-weight="bold" lengthAdjust="spacing" textLength="130.3682" x="1191.75" y="215.8744">Public Entry Point</text><text fill="#000000" font-family="Verdana" font-size="13" lengthAdjust="spacing" textLength="254.6743" x="1191.75" y="231.6738">Re-exports domain + application types</text><text fill="#000000" font-family="Verdana" font-size="13" lengthAdjust="spacing" textLength="4.5703" x="1191.75" y="247.4731">&#160;</text><text fill="#000000" font-family="Verdana" font-size="13" lengthAdjust="spacing" textLength="40.7837" x="1191.75" y="263.2724">```go</text><text fill="#000000" font-family="Verdana" font-size="13" lengthAdjust="spacing" textLength="254.0903" x="1191.75" y="279.0717">type Result[T any] = domerr.Result[T]</text><text fill="#000000" font-family="Verdana" font-size="13" lengthAdjust="spacing" textLength="220.9238" x="1191.75" y="294.871">type Person = valueobject.Person</text><text fill="#000000" font-family="Verdana" font-size="13" lengthAdjust="spacing" textLength="327.082" x="1191.75" y="310.6703">type GreetCommand = command.GreetCommand</text><text fill="#000000" font-family="Verdana" font-size="13" lengthAdjust="spacing" textLength="253.0874" x="1191.75" y="326.4696">type WriterPort = outbound.WriterPort</text><text fill="#000000" font-family="Verdana" font-size="13" lengthAdjust="spacing" textLength="24.7939" x="1191.75" y="342.269">```</text></g><g class="entity" data-entity="GMN8" data-source-line="21" data-uid="ent0009" id="entity_GMN8"><path d="M793.59,182.0046 L793.59,269.9046 L758.22,273.9046 L793.59,277.9046 L793.59,365.7971 A0,0 0 0 0 793.59,365.7971 L1074.006,365.7971 A0,0 0 0 0 1074.006,365.7971 L1074.006,192.0046 L1064.006,182.0046 L793.59,182.0046 A0,0 0 0 0 793.59,182.0046" fill="#FFFFFF" style="stroke:#000000;stroke-width:1;"/><path d="M1064.006,182.0046 L1064.006,192.0046 L1074.006,192.0046 L1064.006,182.0046" fill="#FFFFFF" style="stroke:#000000;stroke-width:1;"/><text fill="#000000" font-family="Verdana" font-size="13" font-weight="bold" lengthAdjust="spacing" textLength="116.0225" x="799.59" y="200.0744">Platform Wiring</text><text fill="#000000" font-family="Verdana" font-size="13" lengthAdjust="spacing" textLength="190.9629" x="799.59" y="215.8738">Creates ready-to-use greeter</text><text fill="#000000" font-family="Verdana" font-size="13" lengthAdjust="spacing" textLength="4.5703" x="799.59" y="231.6731">&#160;</text><text fill="#000000" font-family="Verdana" font-size="13" lengthAdjust="spacing" textLength="40.7837" x="799.59" y="247.4724">```go</text><text fill="#000000" font-family="Verdana" font-size="13" lengthAdjust="spacing" textLength="196.9995" x="799.59" y="263.2717">func NewGreeter() *Greeter {</text><text fill="#000000" font-family="Verdana" font-size="13" lengthAdjust="spacing" textLength="250.2754" x="808.7306" y="279.071">writer := adapter.NewConsoleWriter()</text><text fill="#000000" font-family="Verdana" font-size="13" lengthAdjust="spacing" textLength="222.936" x="808.7306" y="294.8703">uc := usecase.NewGreetUseCase[</text><text fill="#000000" font-family="Verdana" font-size="13" lengthAdjust="spacing" textLength="210.6533" x="817.8712" y="310.6696">*adapter.ConsoleWriter](writer)</text><text fill="#000000" font-family="Verdana" font-size="13" lengthAdjust="spacing" textLength="200.0845" x="808.7306" y="326.469">return &amp;Greeter{useCase: uc}</text><text fill="#000000" font-family="Verdana" font-size="13" lengthAdjust="spacing" textLength="8.252" x="799.59" y="342.2683">}</text><text fill="#000000" font-family="Verdana" font-size="13" lengthAdjust="spacing" textLength="24.7939" x="799.59" y="358.0676">```</text></g><!--entity InfraConsole--><g class="entity" data-entity="InfraConsole" data-source-line="36" data-uid="ent0012" id="entity_InfraConsole"><rect fill="#FFFFFF" height="37.0146" rx="2.5" ry="2.5" style="stroke:#000000;stroke-width:1;" width="176.085" x="410.75" y="544.5846"/><text fill="#000000" font-family="Verdana" font-size="14" lengthAdjust="spacing" textLength="156.085" x="420.75" y="568.6598">infrastructure/adapter</text></g><g class="entity" data-entity="GMN13" data-source-line="38" data-uid="ent0014" id="entity_GMN13"><path d="M621.63,502.7946 L621.63,559.0946 L587.08,563.0946 L621.63,567.0946 L621.63,623.3898 A0,0 0 0 0 621.63,623.3898 L841.9591,623.3898 A0,0 0 0 0 841.9591,623.3898 L841.9591,512.7946 L831.9591,502.7946 L621.63,502.7946 A0,0 0 0 0 621.63,502.7946" fill="#FFFFFF" style="stroke:#000000;stroke-width:1;"/><path d="M831.9591,502.7946 L831.9591,512.7946 L841.9591,512.7946 L831.9591,502.7946" fill="#FFFFFF" style="stroke:#000000;stroke-width:1;"/><text fill="#000000" font-family="Verdana" font-size="13" font-weight="bold" lengthAdjust="spacing" textLength="91.0698" x="627.63" y="520.8644">Depends on:</text><text fill="#000000" font-family="Verdana" font-size="13" lengthAdjust="spacing" textLength="181.251" x="627.63" y="536.6638">- application/port/outbound</text><text fill="#000000" font-family="Verdana" font-size="13" lengthAdjust="spacing" textLength="150.1221" x="627.63" y="552.4631">- domain/error (direct)</text><text fill="#000000" font-family="Verdana" font-size="13" lengthAdjust="spacing" textLength="126.8516" x="627.63" y="568.2624">- application/model</text><text fill="#000000" font-family="Verdana" font-size="13" lengthAdjust="spacing" textLength="4.5703" x="627.63" y="584.0617">&#160;</text><text fill="#000000" font-family="Verdana" font-size="13" font-weight="bold" lengthAdjust="spacing" textLength="175.4048" x="627.63" y="599.861">Implements WriterPort:</text><text fill="#000000" font-family="Verdana" font-size="13" lengthAdjust="spacing" textLength="199.3291" x="627.63" y="615.6603">ConsoleWriter.Write(ctx, msg)</text></g><!--entity AppCommand--><g class="entity" data-entity="AppCommand" data-source-line="49" data-uid="ent0017" id="entity_AppCommand"><rect fill="#FFFFFF" height="37.0146" rx="2.5" ry="2.5" style="stroke:#000000;stroke-width:1;" width="171.3271" x="1274.13" y="794.0846"/><text fill="#000000" font-family="Verdana" font-size="14" lengthAdjust="spacing" textLength="151.3271" x="1284.13" y="818.1598">application/command</text></g><!--entity AppUsecase--><g class="entity" data-entity="AppUsecase" data-source-line="50" data-uid="ent0018" id="entity_AppUsecase"><rect fill="#FFFFFF" height="37.0146" rx="2.5" ry="2.5" style="stroke:#000000;stroke-width:1;" width="158.1406" x="748.72" y="794.0846"/><text fill="#000000" font-family="Verdana" font-size="14" lengthAdjust="spacing" textLength="138.1406" x="758.72" y="818.1598">application/usecase</text></g><!--entity AppOutbound--><g class="entity" data-entity="AppOutbound" data-source-line="51" data-uid="ent0019" id="entity_AppOutbound"><rect fill="#FFFFFF" height="37.0146" rx="2.5" ry="2.5" style="stroke:#000000;stroke-width:1;" width="203.9141" x="1660.84" y="794.0846"/><text fill="#000000" font-family="Verdana" font-size="14" lengthAdjust="spacing" textLength="183.9141" x="1670.84" y="818.1598">application/port/outbound</text></g><!--entity AppInbound--><g class="entity" data-entity="AppInbound" data-source-line="52" data-uid="ent0020" id="entity_AppInbound"><rect fill="#FFFFFF" height="37.0146" rx="2.5" ry="2.5" style="stroke:#000000;stroke-width:1;" width="193.7422" x="519.92" y="794.0846"/><text fill="#000000" font-family="Verdana" font-size="14" lengthAdjust="spacing" textLength="173.7422" x="529.92" y="818.1598">application/port/inbound</text></g><!--entity AppModel--><g class="entity" data-entity="AppModel" data-source-line="53" data-uid="ent0021" id="entity_AppModel"><rect fill="#FFFFFF" height="37.0146" rx="2.5" ry="2.5" style="stroke:#000000;stroke-width:1;" width="145.3301" x="1480.13" y="794.0846"/><text fill="#000000" font-family="Verdana" font-size="14" lengthAdjust="spacing" textLength="125.3301" x="1490.13" y="818.1598">application/model</text></g><!--entity AppError--><g class="entity" data-entity="AppError" data-source-line="54" data-uid="ent0022" id="entity_AppError"><rect fill="#FFFFFF" height="37.0146" rx="2.5" ry="2.5" style="stroke:#000000;stroke-width:1;" width="137.0723" x="348.26" y="794.0846"/><text fill="#000000" font-family="Verdana" font-size="14" lengthAdjust="spacing" textLength="117.0723" x="358.26" y="818.1598">application/error</text></g><g class="entity" data-entity="GMN23" data-source-line="57" data-uid="ent0024" id="entity_GMN23"><path d="M942.36,744.3946 L942.36,808.5846 L907.16,812.5846 L942.36,816.5846 L942.36,880.7891 A0,0 0 0 0 942.36,880.7891 L1239.2355,880.7891 A0,0 0 0 0 1239.2355,880.7891 L1239.2355,754.3946 L1229.2355,744.3946 L942.36,744.3946 A0,0 0 0 0 942.36,744.3946" fill="#FFFFFF" style="stroke:#000000;stroke-width:1;"/><path d="M1229.2355,744.3946 L1229.2355,754.3946 L1239.2355,754.3946 L1229.2355,744.3946" fill="#FFFFFF" style="stroke:#000000;stroke-width:1;"/><text fill="#000000" font-family="Verdana" font-size="13" font-weight="bold" lengthAdjust="spacing" textLength="125.8486" x="948.36" y="762.4644">Generic Use Case</text><text fill="#000000" font-family="Verdana" font-size="13" lengthAdjust="spacing" textLength="179.0039" x="948.36" y="778.2638">Static dispatch via generics</text><text fill="#000000" font-family="Verdana" font-size="13" lengthAdjust="spacing" textLength="4.5703" x="948.36" y="794.0631">&#160;</text><text fill="#000000" font-family="Verdana" font-size="13" lengthAdjust="spacing" textLength="40.7837" x="948.36" y="809.8624">```go</text><text fill="#000000" font-family="Verdana" font-size="13" lengthAdjust="spacing" textLength="275.8755" x="948.36" y="825.6617">type GreetUseCase[W WriterPort] struct {</text><text fill="#000000" font-family="Verdana" font-size="13" lengthAdjust="spacing" textLength="55.5928" x="957.5006" y="841.461">writer W</text><text fill="#000000" font-family="Verdana" font-size="13" lengthAdjust="spacing" textLength="8.252" x="948.36" y="857.2603">}</text><text fill="#000000" font-family="Verdana" font-size="13" lengthAdjust="spacing" textLength="24.7939" x="948.36" y="873.0596">```</text></g><!--entity DomainError--><g class="entity" data-entity="DomainError" data-source-line="69" data-uid="ent0027" id="entity_DomainError"><rect fill="#FFFFFF" height="37.0146" rx="2.5" ry="2.5" style="stroke:#000000;stroke-width:1;" width="113.0645" x="312.26" y="1011.9746"/><text fill="#000000" font-family="Verdana" font-size="14" lengthAdjust="spacing" textLength="93.0645" x="322.26" y="1036.0498">domain/error</text></g><!--entity DomainResult--><g class="entity" data-entity="DomainResult" data-source-line="70" data-uid="ent0028" id="entity_DomainResult"><rect fill="#FFFFFF" height="37.0146" rx="2.5" ry="2.5" style="stroke:#000000;stroke-width:1;" width="183.085" x="712.25" y="1011.9746"/><text fill="#000000" font-family="Verdana" font-size="14" lengthAdjust="spacing" textLength="163.085" x="722.25" y="1036.0498">domain/error.Result[T]</text></g><!--entity DomainPerson--><g class="entity" data-entity="DomainPerson" data-source-line="71" data-uid="ent0029" id="entity_DomainPerson"><rect fill="#FFFFFF" height="37.0146" rx="2.5" ry="2.5" style="stroke:#000000;stroke-width:1;" width="159.2275" x="930.18" y="1011.9746"/><text fill="#000000" font-family="Verdana" font-size="14" lengthAdjust="spacing" textLength="139.2275" x="940.18" y="1036.0498">domain/valueobject</text></g><g class="entity" data-entity="GMN30" data-source-line="74" data-uid="ent0031" id="entity_GMN30"><path d="M460.44,1001.7846 L460.44,1026.4846 L425.83,1030.4846 L460.44,1034.4846 L460.44,1059.1826 A0,0 0 0 0 460.44,1059.1826 L677.1509,1059.1826 A0,0 0 0 0 677.1509,1059.1826 L677.1509,1011.7846 L667.1509,1001.7846 L460.44,1001.7846 A0,0 0 0 0 460.44,1001.7846" fill="#FFFFFF" style="stroke:#000000;stroke-width:1;"/><path d="M667.1509,1001.7846 L667.1509,1011.7846 L677.1509,1011.7846 L667.1509,1001.7846" fill="#FFFFFF" style="stroke:#000000;stroke-width:1;"/><text fill="#000000" font-family="Verdana" font-size="13" font-weight="bold" lengthAdjust="spacing" textLength="195.7109" x="466.44" y="1019.8544">Zero external module deps</text><text fill="#000000" font-family="Verdana" font-size="13" lengthAdjust="spacing" textLength="116.6318" x="466.44" y="1035.6538">Pure domain logic</text><text fill="#000000" font-family="Verdana" font-size="13" lengthAdjust="spacing" textLength="139.7944" x="466.44" y="1051.4531">Canonical error types</text></g><!--link APIFacade to AppCommand--><g class="link" data-entity-1="APIFacade" data-entity-2="AppCommand" data-source-line="81" data-uid="lnk33" id="link_APIFacade_AppCommand"><path d="M1133.22,292.7646 C1144.72,350.2746 1185.2,534.8946 1255.79,672.3946 C1280.32,720.1646 1317.0228,764.32 1339.5428,789.53" fill="none" id="APIFacade-to-AppCommand" style="stroke:#000000;stroke-width:1;"/><polygon fill="#000000" points="1343.54,794.0046,1340.5273,784.6278,1340.209,790.2757,1334.5611,789.9574,1343.54,794.0046" style="stroke:#000000;stroke-width:1;"/><text fill="#000000" font-family="Verdana" font-size="13" lengthAdjust="spacing" textLength="68.0659" x="1243.09" y="568.6644">re-exports</text></g><!--link APIFacade to AppInbound--><g class="link" data-entity-1="APIFacade" data-entity-2="AppInbound" data-source-line="82" data-uid="lnk34" id="link_APIFacade_AppInbound"><path d="M1128.96,292.8146 C1126.79,318.0646 1119.09,363.9246 1091.79,389.7946 C1031.62,446.8346 970.05,379.8046 911.79,438.7946 C844.5,506.9346 925.48,579.6446 857.79,647.3946 C816.58,688.6446 780.36,649.6746 730.79,680.3946 C683.34,709.7946 648.1007,760.1146 630.4507,788.5946" fill="none" id="APIFacade-to-AppInbound" style="stroke:#000000;stroke-width:1;"/><polygon fill="#000000" points="627.29,793.6946,635.431,788.1517,629.9239,789.4446,628.631,783.9375,627.29,793.6946" style="stroke:#000000;stroke-width:1;"/><text fill="#000000" font-family="Verdana" font-size="13" lengthAdjust="spacing" textLength="68.0659" x="912.79" y="568.6644">re-exports</text></g><!--link APIFacade to AppOutbound--><g class="link" data-entity-1="APIFacade" data-entity-2="AppOutbound" data-source-line="83" data-uid="lnk35" id="link_APIFacade_AppOutbound"><path d="M1130.79,292.6446 C1133.16,317.6846 1141.1,363.3046 1167.79,389.7946 C1174.09,396.0446 1311.81,434.9246 1319.79,438.7946 C1474.95,514.1246 1515.82,537.5846 1641.79,655.3946 C1688.9,699.4446 1728.8367,757.9803 1748.4567,788.6503" fill="none" id="APIFacade-to-AppOutbound" style="stroke:#000000;stroke-width:1;"/><polygon fill="#000000" points="1751.69,793.7046,1750.2096,783.9677,1748.9956,789.4927,1743.4705,788.2787,1751.69,793.7046" style="stroke:#000000;stroke-width:1;"/><text fill="#000000" font-family="Verdana" font-size="13" lengthAdjust="spacing" textLength="68.0659" x="1630.47" y="568.6644">re-exports</text></g><!--link APIFacade to DomainError--><g class="link" data-entity-1="APIFacade" data-entity-2="DomainError" data-source-line="84" data-uid="lnk36" id="link_APIFacade_DomainError"><path d="M1129.83,292.4746 C1128.82,318.6446 1122.62,367.1646 1091.79,389.7946 C1080.13,398.3646 585.16,396.0346 570.79,397.7946 C491.08,407.5846 462.35,395.3546 394.79,438.7946 C292.55,504.5346 267,540.3346 227.79,655.3946 C205.97,719.4546 11,348.8546 263.79,904.7846 C283.71,948.5846 319.0498,985.1582 343.5198,1007.5082" fill="none" id="APIFacade-to-DomainError" style="stroke:#000000;stroke-width:1;"/><polygon fill="#000000" points="347.95,1011.5546,344.0023,1002.5316,344.2582,1008.1826,338.6071,1008.4385,347.95,1011.5546" style="stroke:#000000;stroke-width:1;"/><text fill="#000000" font-family="Verdana" font-size="13" lengthAdjust="spacing" textLength="68.0659" x="228.79" y="669.4644">re-exports</text></g><!--link APIFacade to DomainPerson--><g class="link" data-entity-1="APIFacade" data-entity-2="DomainPerson" data-source-line="85" data-uid="lnk37" id="link_APIFacade_DomainPerson"><path d="M1129.97,292.6646 C1131.27,318.6046 1137.88,366.3146 1167.79,389.7946 C1176.56,396.6846 1256.69,396.8346 1267.79,397.7946 C1365.63,406.2646 1622.63,389.9046 1707.79,438.7946 C1899.39,548.7846 2025.51,737.8746 1880.79,904.7846 C1829.2,964.2946 1301.3639,1008.4156 1095.8339,1023.4956" fill="none" id="APIFacade-to-DomainPerson" style="stroke:#000000;stroke-width:1;"/><polygon fill="#000000" points="1089.85,1023.9346,1099.1186,1027.2653,1094.8366,1023.5687,1098.5332,1019.2868,1089.85,1023.9346" style="stroke:#000000;stroke-width:1;"/><text fill="#000000" font-family="Verdana" font-size="13" lengthAdjust="spacing" textLength="68.0659" x="1929.28" y="669.4644">re-exports</text></g><!--link APIDesktop to InfraConsole--><g class="link" data-entity-1="APIDesktop" data-entity-2="InfraConsole" data-source-line="88" data-uid="lnk38" id="link_APIDesktop_InfraConsole"><path d="M689.48,292.8446 C667.45,316.1046 628.78,358.3646 599.79,397.7946 C562.52,448.5146 528.4177,508.1007 511.3977,538.9607" fill="none" id="APIDesktop-to-InfraConsole" style="stroke:#000000;stroke-width:1;"/><polygon fill="#000000" points="508.5,544.2146,516.3491,538.2655,510.9147,539.8363,509.3439,534.402,508.5,544.2146" style="stroke:#000000;stroke-width:1;"/><text fill="#000000" font-family="Verdana" font-size="13" lengthAdjust="spacing" textLength="34.271" x="600.79" y="419.8644">wires</text></g><!--link APIDesktop to AppUsecase--><g class="link" data-entity-1="APIDesktop" data-entity-2="AppUsecase" data-source-line="89" data-uid="lnk39" id="link_APIDesktop_AppUsecase"><path d="M711.7,292.6146 C720.03,318.9546 739.67,367.7046 775.79,389.7946 C798.22,403.5046 868.24,391.6646 893.79,397.7946 C938.91,408.6246 964.23,400.0846 989.79,438.7946 C1040.88,516.1646 1038.29,568.3846 989.79,647.3946 C981.32,661.1946 937.16,669.9346 924.79,680.3946 C885.21,713.8646 855.5898,761.2942 840.2398,788.6042" fill="none" id="APIDesktop-to-AppUsecase" style="stroke:#000000;stroke-width:1;"/><polygon fill="#000000" points="837.3,793.8346,845.1967,787.9489,839.7499,789.4759,838.2228,784.0291,837.3,793.8346" style="stroke:#000000;stroke-width:1;"/><text fill="#000000" font-family="Verdana" font-size="13" lengthAdjust="spacing" textLength="47.5122" x="1028.14" y="568.6644">creates</text></g><!--reverse link APIFacade to APIDesktop--><g class="link" data-entity-1="APIFacade" data-entity-2="APIDesktop" data-source-line="90" data-uid="lnk41" id="link_APIFacade_APIDesktop"><path d="M1131.6839,248.9113 C1133.2039,216.8213 1130.64,158.4046 1091.79,128.4046 C1036.22,85.4746 835.14,90.8646 775.79,128.4046 C731.14,156.6446 714.81,222.4946 709.32,255.0246" fill="none" id="APIFacade-backto-APIDesktop" style="stroke:#000000;stroke-width:1;"/><polygon fill="#000000" points="1131.4,254.9046,1135.8213,246.1039,1131.6366,249.9102,1127.8303,245.7254,1131.4,254.9046" style="stroke:#000000;stroke-width:1;"/><text fill="#000000" font-family="Verdana" font-size="13" lengthAdjust="spacing" textLength="69.5195" x="899.29" y="107.0744">uses types</text></g><!--link InfraConsole to AppOutbound--><g class="link" data-entity-1="InfraConsole" data-entity-2="AppOutbound" data-source-line="93" data-uid="lnk42" id="link_InfraConsole_AppOutbound"><path d="M514.47,582.0846 C533.34,602.2746 567.09,633.9446 603.79,647.3946 C630.91,657.3246 1616.56,668.3346 1642.79,680.3946 C1695.52,704.6246 1732.4808,758.8513 1750.0108,788.6913" fill="none" id="InfraConsole-to-AppOutbound" style="stroke:#000000;stroke-width:1;"/><polygon fill="#000000" points="1753.05,793.8646,1751.9401,784.0785,1750.5174,789.5535,1745.0424,788.1307,1753.05,793.8646" style="stroke:#000000;stroke-width:1;"/><text fill="#000000" font-family="Verdana" font-size="13" lengthAdjust="spacing" textLength="147.4878" x="1485.63" y="669.4644">implements WriterPort</text></g><!--link InfraConsole to DomainError--><g class="link" data-entity-1="InfraConsole" data-entity-2="DomainError" data-source-line="94" data-uid="lnk43" id="link_InfraConsole_DomainError"><path d="M436.55,582.0746 C390.04,599.1546 329.71,629.8746 300.79,680.3946 C251.25,766.9446 276.16,808.1446 300.79,904.7846 C311.33,946.1246 335.1804,983.6609 351.8104,1006.8209" fill="none" id="InfraConsole-to-DomainError" style="stroke:#000000;stroke-width:1;"/><polygon fill="#000000" points="355.31,1011.6946,353.3098,1002.051,352.3937,1007.6332,346.8115,1006.7171,355.31,1011.6946" style="stroke:#000000;stroke-width:1;"/><text fill="#000000" font-family="Verdana" font-size="13" lengthAdjust="spacing" textLength="29.5166" x="301.79" y="818.1544">uses</text></g><!--link AppCommand to DomainPerson--><g class="link" data-entity-1="AppCommand" data-entity-2="DomainPerson" data-source-line="97" data-uid="lnk44" id="link_AppCommand_DomainPerson"><path d="M1342.36,831.5846 C1322.77,851.1746 1289.41,882.6646 1256.79,904.7846 C1189.81,950.2346 1109.5148,987.511 1058.6748,1009.301" fill="none" id="AppCommand-to-DomainPerson" style="stroke:#000000;stroke-width:1;"/><polygon fill="#000000" points="1053.16,1011.6646,1063.008,1011.7957,1057.7557,1009.6949,1059.8565,1004.4426,1053.16,1011.6646" style="stroke:#000000;stroke-width:1;"/><text fill="#000000" font-family="Verdana" font-size="13" lengthAdjust="spacing" textLength="29.5166" x="1245.39" y="926.8544">uses</text></g><!--link AppUsecase to DomainPerson--><g class="link" data-entity-1="AppUsecase" data-entity-2="DomainPerson" data-source-line="98" data-uid="lnk45" id="link_AppUsecase_DomainPerson"><path d="M842.69,831.2546 C876.82,871.7446 956.5032,966.2668 990.8232,1006.9868" fill="none" id="AppUsecase-to-DomainPerson" style="stroke:#000000;stroke-width:1;"/><polygon fill="#000000" points="994.69,1011.5746,991.9484,1002.115,991.4677,1007.7514,985.8313,1007.2707,994.69,1011.5746" style="stroke:#000000;stroke-width:1;"/><text fill="#000000" font-family="Verdana" font-size="13" lengthAdjust="spacing" textLength="58.1826" x="925.25" y="926.8544">validates</text></g><!--link AppOutbound to DomainResult--><g class="link" data-entity-1="AppOutbound" data-entity-2="DomainResult" data-source-line="99" data-uid="lnk46" id="link_AppOutbound_DomainResult"><path d="M1746.64,831.5046 C1725.36,853.6246 1685.62,890.1146 1642.79,904.7846 C1622.61,911.7046 893.34,902.2346 874.79,912.7846 C837.07,934.2546 818.7785,978.9343 810.3985,1005.9343" fill="none" id="AppOutbound-to-DomainResult" style="stroke:#000000;stroke-width:1;"/><polygon fill="#000000" points="808.62,1011.6646,815.108,1004.2548,810.1021,1006.8893,807.4676,1001.8834,808.62,1011.6646" style="stroke:#000000;stroke-width:1;"/><text fill="#000000" font-family="Verdana" font-size="13" lengthAdjust="spacing" textLength="29.5166" x="875.79" y="926.8544">uses</text></g><!--link AppInbound to DomainResult--><g class="link" data-entity-1="AppInbound" data-entity-2="DomainResult" data-source-line="100" data-uid="lnk47" id="link_AppInbound_DomainResult"><path d="M632.1,831.2546 C667.16,871.7446 749.0817,966.3193 784.3517,1007.0393" fill="none" id="AppInbound-to-DomainResult" style="stroke:#000000;stroke-width:1;"/><polygon fill="#000000" points="788.28,1011.5746,785.4111,1002.1529,785.0064,1007.7952,779.3641,1007.3905,788.28,1011.5746" style="stroke:#000000;stroke-width:1;"/><text fill="#000000" font-family="Verdana" font-size="13" lengthAdjust="spacing" textLength="29.5166" x="716.9" y="926.8544">uses</text></g><!--link AppError to DomainError--><g class="link" data-entity-1="AppError" data-entity-2="DomainError" data-source-line="101" data-uid="lnk48" id="link_AppError_DomainError"><path d="M412.87,831.2546 C403.87,871.7446 383.1317,964.9975 374.0817,1005.7175" fill="none" id="AppError-to-DomainError" style="stroke:#000000;stroke-width:1;"/><polygon fill="#000000" points="372.78,1011.5746,378.6373,1003.6568,373.8648,1006.6937,370.8279,1001.9212,372.78,1011.5746" style="stroke:#000000;stroke-width:1;"/><text fill="#000000" font-family="Verdana" font-size="13" lengthAdjust="spacing" textLength="68.0659" x="395.23" y="926.8544">re-exports</text></g><!--link APIFacade to InfraConsole--><g class="link" data-entity-1="APIFacade" data-entity-2="InfraConsole" data-source-line="104" data-uid="lnk49" id="link_APIFacade_InfraConsole"><path d="M1129.78,292.8746 C1128.68,319.0846 1122.33,367.1346 1091.79,389.7946 C1077.83,400.1646 796.04,395.5546 778.79,397.7946 C715.83,405.9846 701.68,416.5746 639.79,430.7946 C623.82,434.4646 617.84,430.3446 603.79,438.7946 C559.72,465.3346 528.0658,511.787 511.8558,539.057" fill="none" id="APIFacade-to-InfraConsole" style="stroke:#FF0000;stroke-width:1;stroke-dasharray:7,7;"/><polygon fill="#FF0000" points="508.79,544.2146,516.8271,538.5221,511.3448,539.9166,509.9503,534.4343,508.79,544.2146" style="stroke:#FF0000;stroke-width:1;"/><text fill="#000000" font-family="Verdana" font-size="13" lengthAdjust="spacing" textLength="100.6748" x="782.154" y="411.8644">&#10060; FORBIDDEN</text><text fill="#000000" font-family="Verdana" font-size="13" lengthAdjust="spacing" textLength="105.4028" x="779.79" y="427.6638">Use api/desktop</text></g><g class="legend" data-source-line="106"><rect fill="none" height="367.3076" rx="7.5" ry="7.5" style="stroke:#000000;stroke-width:1;" width="514" x="754.755" y="1085.1846"/><text fill="#000000" font-family="Verdana" font-size="14" font-weight="bold" lengthAdjust="spacing" textLength="205.2285" x="759.755" y="1104.2598">Library Package Structure</text><text fill="#000000" font-family="Verdana" font-size="14" lengthAdjust="spacing" textLength="504" x="759.755" y="1121.2745">&#9552;&#9552;&#9552;&#9552;&#9552;&#9552;&#9552;&#9552;&#9552;&#9552;&#9552;&#9552;&#9552;&#9552;&#9552;&#9552;&#9552;&#9552;&#9552;&#9552;&#9552;&#9552;&#9552;&#9552;&#9552;&#9552;&#9552;&#9552;&#9552;&#9552;&#9552;&#9552;&#9552;&#9552;&#9552;&#9552;</text><text fill="#000000" font-family="Verdana" font-size="14" lengthAdjust="spacing" textLength="278.4209" x="759.755" y="1138.2891">&#8226; api/         - Public facade (re-exports)</text><text fill="#000000" font-family="Verdana" font-size="14" lengthAdjust="spacing" textLength="282.5703" x="759.755" y="1155.3038">&#8226; api/desktop/ - Platform-specific wiring</text><text fill="#000000" font-family="Verdana" font-size="14" lengthAdjust="spacing" textLength="312.8467" x="759.755" y="1172.3184">&#8226; application/ - Use cases, ports, commands</text><text fill="#000000" font-family="Verdana" font-size="14" lengthAdjust="spacing" textLength="245.834" x="759.755" y="1189.333">&#8226; domain/      - Pure business logic</text><text fill="#000000" font-family="Verdana" font-size="14" lengthAdjust="spacing" textLength="308.041" x="759.755" y="1206.3477">&#8226; infrastructure/ - Adapter implementations</text><text fill="#000000" font-family="Verdana" font-size="14" lengthAdjust="spacing" textLength="4.9219" x="759.755" y="1223.3623">&#160;</text><text fill="#000000" font-family="Verdana" font-size="14" font-weight="bold" lengthAdjust="spacing" textLength="234.8008" x="759.755" y="1240.377">Dependency Rules (LIBRARY)</text><text fill="#000000" font-family="Verdana" font-size="14" lengthAdjust="spacing" textLength="504" x="759.755" y="1257.3916">&#9552;&#9552;&#9552;&#9552;&#9552;&#9552;&#9552;&#9552;&#9552;&#9552;&#9552;&#9552;&#9552;&#9552;&#9552;&#9552;&#9552;&#9552;&#9552;&#9552;&#9552;&#9552;&#9552;&#9552;&#9552;&#9552;&#9552;&#9552;&#9552;&#9552;&#9552;&#9552;&#9552;&#9552;&#9552;&#9552;</text><text fill="#000000" font-family="Verdana" font-size="14" lengthAdjust="spacing" textLength="254.8125" x="759.755" y="1274.4063">&#9989; api/ &#8594; application/* + domain/*</text><text fill="#000000" font-family="Verdana" font-size="14" lengthAdjust="spacing" textLength="291.1523" x="759.755" y="1291.4209">&#9989; api/desktop &#8594; ALL (composition root)</text><text fill="#000000" font-family="Verdana" font-size="14" lengthAdjust="spacing" textLength="325.168" x="759.755" y="1308.4356">&#9989; Infrastructure &#8594; application/* + domain/*</text><text fill="#000000" font-family="Verdana" font-size="14" lengthAdjust="spacing" textLength="192.0859" x="759.755" y="1325.4502">&#9989; Application &#8594; domain/*</text><text fill="#000000" font-family="Verdana" font-size="14" lengthAdjust="spacing" textLength="315.748" x="759.755" y="1342.4649">&#10060; api/ &#8594; infrastructure/* (use api/desktop)</text><text fill="#000000" font-family="Verdana" font-size="14" lengthAdjust="spacing" textLength="4.9219" x="759.755" y="1359.4795">&#160;</text><text fill="#000000" font-family="Verdana" font-size="14" font-weight="bold" lengthAdjust="spacing" textLength="230.9316" x="759.755" y="1376.4942">Static Dispatch with Generics</text><text fill="#000000" font-family="Verdana" font-size="14" lengthAdjust="spacing" textLength="504" x="759.755" y="1393.5088">&#9552;&#9552;&#9552;&#9552;&#9552;&#9552;&#9552;&#9552;&#9552;&#9552;&#9552;&#9552;&#9552;&#9552;&#9552;&#9552;&#9552;&#9552;&#9552;&#9552;&#9552;&#9552;&#9552;&#9552;&#9552;&#9552;&#9552;&#9552;&#9552;&#9552;&#9552;&#9552;&#9552;&#9552;&#9552;&#9552;</text><text fill="#000000" font-family="Verdana" font-size="14" lengthAdjust="spacing" textLength="364.3008" x="759.755" y="1410.5235">&#8226; GreetUseCase[W WriterPort] - generic over writer</text><text fill="#000000" font-family="Verdana" font-size="14" lengthAdjust="spacing" textLength="283.2744" x="759.755" y="1427.5381">&#8226; Concrete types known at compile time</text><text fill="#000000" font-family="Verdana" font-size="14" lengthAdjust="spacing" textLength="258.2686" x="759.755" y="1444.5528">&#8226; Zero runtime overhead (no vtable)</text></g><!--SRC=[nLTDR-Cs4BthLqopGDTsO_jGTD4Da09ER0K6qbqZwI9eTmE4bcY7ZKGA91N7M0JefJtrK1JehRtqf-MNTFXbIOwyoQaR1B1CFGw7Rzvy-0jzJNCAHKOOZzGDumMH98T4v8NWbEjplSueI9femfSPZIBDD2xCI793bXJEjImJNKeAdTFfqTdexCVk1px25P85Z0B6OKAIQpWbQogZQ847KDWRpQPk1JgpSfwn16AIa9Hsz-1574-EZiVmCOBA4zWZ1Ti3eW1tEkYZryEKgXijYW0Rkw-8uqBZDTZoMeDOD2m0z7hUWGdNSWqpmRZkzUohCzgdTuMGMa4gSkG8lW9I50WccWaEUbrG5LderTNLKjWdiuWxLPdfzpy0uUjBE3JRgPI3i7nP8MTKAZHr2BSaAwcO_una3znY1JgHbEfZaUU4fmXDtDEWlbo1BoJJLCxGROIAKiz5YTXgDVYBdnJD6MxQAAhOinnbH2-4pE62ISQNdg1ZIOd66ED7kkvhqIyLXQNnoeIwoSkYv0cyeQiJzxhJXPv_j94sVolh8nmS0ab9WOy3n1yBhaH6dV-TheUMYO7XSGbHT13ClbFq6B-_zo1qF1XgMBdik9E2CKbHn1o-zFvyB9sP0ppbtaBkspYxtuXvol51RPB1wXfrF7aLVnt7spfc3V3GEsWrQ-ruJn-5PEkb2SgO5kYD0i4FV43wTNqEZNI7GG7-lHFo4DKeCFTIPfAxsx8t5odD8d_GD2yoB1GS4w7IKJYpGQtJMIVHT_kGgsMtdR1HBOasR7qRVpDv_JZhAvUyx5rw5qKb_1ruhuw0V-U-xiOtw0gxtbRqVMeRuurTK_x49ajlG7zlkTw9jR4As8dv4ZrEsFhzJCXEAASIgngkWX6p3zQvHfi9f4mLH6DLlcK4bWxQNiaQUNLH2_ybE15lP-_5Sp9cxCffY7qSnwydhxPZNvUglRxRvHZOYQoAR6sFMslTLAkxjGs-0Z_YkUc28VedAWNGExmwnxQ7SIsnGwQqK9xncIa9ldraOiaIbpI42uu1pi1becibJQvUcZ9iJE4YvGb3mAPrGJyLAzx_hfO8S825B3IiTgINvJEGGVPFGMjyF0_g-rq3wsuQsZUii2YPkQ5U9wEg8sqCrYiY6hJRsd1LRY0gSIshWSleGXlSnkK3qrbKwEylOQl0DqBIyAATGTPMFjitDlaqNbXsQlMogOSg-ZjejYPg3Eo0OHQmr15JSxq9TabKindaz0JCtUP9nU0zOo7dBCNBLRTSGoT1paogT6kY6jYC76o9u8MaXk-7Vtw7-EtPqNGydhpvm4q9h8s7KPJHfScpkT1Qv959ubCsbyHCVzkJhKtYXx_- -D_-pN6__6lz3KCCTcO_eYxSvJiLQzqQtjzlQF1-NEkhWYPiWLjNTcxReAlkWcX3a167sWThT3zCcChZVQcilC4ac9UASQhKfgWPuDPmWzYHcs-g7B2dsbuJ1XWRvJCicwhw7V5PUF_xLyVxmsz_DYZguTplAUZLSA5U6VZez1I5QfgBOZPDfH1shZBWhVBn3FFrX3Vm-ciKzyRBBRvxq2cROkywedtR7uUslsBw6lo8e3wNnZynMlJ3K0BY5iNZHWk_3PCTYpWsPLkUuOPZNG6YRMjdM0Gqowc7sjuiIswMhALh_A427IxWLfDvHhiHoizLW-W_]--></g></svg>