<svg xmlns="http://www.w3.org/2000/svg" xmlns:xlink="http://www.w3.org/1999/xlink" contentStyleType="text/css" data-diagram-type="CLASS" height="1046px" preserveAspectRatio="none" style="width:2073px;height:1046px;background:#FFFFFF;" version="1.1" viewBox="0 0 2073 1046" width="2073px" zoomAndPan="magnify"><title>Static vs Dynamic Dispatch
Dependency Injection in Go with Generics</title><defs/><g><g class="title" data-source-line="4"><text fill="#000000" font-family="Verdana" font-size="22" font-weight="bold" lengthAdjust="spacing" textLength="334.9844" x="864.8694" y="37.1182">Static vs Dynamic Dispatch</text><text fill="#000000" font-family="Verdana" font-size="22" font-weight="bold" lengthAdjust="spacing" textLength="519.5674" x="772.5779" y="63.8555">Dependency Injection in Go with Generics</text></g><!--cluster DynamicPkg--><g class="cluster" data-entity="DynamicPkg" data-source-line="6" data-uid="ent0002" id="cluster_DynamicPkg"><path d="M13.5,92.2746 L213.4941,92.2746 A3.75,3.75 0 0 1 215.9941,94.7746 L222.9941,132.3039 L528.5,132.3039 A2.5,2.5 0 0 1 531,134.8039 L531,480.1846 A2.5,2.5 0 0 1 528.5,482.6846 L13.5,482.6846 A2.5,2.5 0 0 1 11,480.1846 L11,94.7746 A2.5,2.5 0 0 1 13.5,92.2746" fill="#FFE4E1" style="stroke:#000000;stroke-width:1;"/><line style="stroke:#000000;stroke-width:1;" x1="11" x2="222.9941" y1="132.3039" y2="132.3039"/><text fill="#000000" font-family="Verdana" font-size="14" font-weight="bold" lengthAdjust="spacing" textLength="141.1211" x="43.9365" y="108.3498">Dynamic Dispatch</text><text fill="#000000" font-family="Verdana" font-size="14" font-weight="bold" lengthAdjust="spacing" textLength="198.9941" x="15" y="125.3645">(Runtime Polymorphism)</text></g><!--cluster StaticPkg--><g class="cluster" data-entity="StaticPkg" data-source-line="24" data-uid="ent0009" id="cluster_StaticPkg"><path d="M861.5,85.4746 L1103.6924,85.4746 A3.75,3.75 0 0 1 1106.1924,87.9746 L1113.1924,125.5039 L1404.5,125.5039 A2.5,2.5 0 0 1 1407,128.0039 L1407,504.0046 A2.5,2.5 0 0 1 1404.5,506.5046 L861.5,506.5046 A2.5,2.5 0 0 1 859,504.0046 L859,87.9746 A2.5,2.5 0 0 1 861.5,85.4746" fill="#E8F5E9" style="stroke:#000000;stroke-width:1;"/><line style="stroke:#000000;stroke-width:1;" x1="859" x2="1113.1924" y1="125.5039" y2="125.5039"/><text fill="#000000" font-family="Verdana" font-size="14" font-weight="bold" lengthAdjust="spacing" textLength="118.3027" x="924.4448" y="101.5498">Static Dispatch</text><text fill="#000000" font-family="Verdana" font-size="14" font-weight="bold" lengthAdjust="spacing" textLength="241.1924" x="863" y="118.5645">(Compile-Time Polymorphism)</text></g><!--class WriterPort--><g class="entity" data-entity="WriterPort" data-source-line="7" data-uid="ent0003" id="entity_WriterPort"><rect fill="#FFFFFF" height="74.6133" rx="2.5" ry="2.5" style="stroke:#000000;stroke-width:1;" width="215.8643" x="272.07" y="154.9846"/><ellipse cx="340.2814" cy="175.7839" fill="#FFFFFF" rx="9" ry="9" style="stroke:#000000;stroke-width:1;"/><path d="M336.7092,172.0491 L336.7092,169.8909 L344.0886,169.8909 L344.0886,172.0491 L341.6232,172.0491 L341.6232,180.1257 L344.0886,180.1257 L344.0886,182.2839 L336.7092,182.2839 L336.7092,180.1257 L339.1745,180.1257 L339.1745,172.0491 Z " fill="#000000"/><text fill="#000000" font-family="Verdana" font-size="12" font-style="italic" lengthAdjust="spacing" textLength="68.1797" x="359.6623" y="172.0491">&#171;interface&#187;</text><text fill="#000000" font-family="Verdana" font-size="14" font-style="italic" lengthAdjust="spacing" textLength="71.9414" x="357.7814" y="188.6438">WriterPort</text><line style="stroke:#000000;stroke-width:1;" x1="273.07" x2="486.9343" y1="196.5832" y2="196.5832"/><line style="stroke:#000000;stroke-width:1;" x1="273.07" x2="486.9343" y1="204.5832" y2="204.5832"/><ellipse cx="283.07" cy="218.5906" fill="#FFFFFF" rx="3" ry="3" style="stroke:#000000;stroke-width:1;"/><text fill="#000000" font-family="Verdana" font-size="14" lengthAdjust="spacing" textLength="191.8643" x="290.07" y="222.6584">Write(ctx, message) Result</text></g><!--class ConsoleWriter--><g class="entity" data-entity="ConsoleWriter" data-source-line="11" data-uid="ent0004" id="entity_ConsoleWriter"><rect fill="#FFFFFF" height="61.0146" rx="2.5" ry="2.5" style="stroke:#000000;stroke-width:1;" width="215.8643" x="272.07" y="397.6746"/><ellipse cx="326.9548" cy="411.6746" fill="#FFFFFF" rx="9" ry="9" style="stroke:#000000;stroke-width:1;"/><path d="M329.4279,417.8177 Q328.8469,418.1165 328.2077,418.2659 Q327.5685,418.4153 326.863,418.4153 Q324.3561,418.4153 323.0363,416.7635 Q321.7165,415.1116 321.7165,411.9905 Q321.7165,408.8611 323.0363,407.2093 Q324.3561,405.5574 326.863,405.5574 Q327.5685,405.5574 328.216,405.7068 Q328.8635,405.8563 329.4279,406.1551 L329.4279,408.8777 Q328.7971,408.2967 328.2035,408.0269 Q327.61,407.7571 326.9792,407.7571 Q325.6345,407.7571 324.9496,408.8238 Q324.2648,409.8904 324.2648,411.9905 Q324.2648,414.0823 324.9496,415.149 Q325.6345,416.2156 326.9792,416.2156 Q327.61,416.2156 328.2035,415.9458 Q328.7971,415.6761 329.4279,415.095 Z " fill="#000000"/><text fill="#000000" font-family="Verdana" font-size="14" lengthAdjust="spacing" textLength="98.5947" x="344.4548" y="417.2425">ConsoleWriter</text><line style="stroke:#000000;stroke-width:1;" x1="273.07" x2="486.9343" y1="425.6746" y2="425.6746"/><line style="stroke:#000000;stroke-width:1;" x1="273.07" x2="486.9343" y1="433.6746" y2="433.6746"/><ellipse cx="283.07" cy="447.6819" fill="#FFFFFF" rx="3" ry="3" style="stroke:#000000;stroke-width:1;"/><text fill="#000000" font-family="Verdana" font-size="14" lengthAdjust="spacing" textLength="191.8643" x="290.07" y="451.7498">Write(ctx, message) Result</text></g><!--class GreetUseCase--><g class="entity" data-entity="GreetUseCase" data-source-line="15" data-uid="ent0005" id="entity_GreetUseCase"><rect fill="#FFFFFF" height="78.0293" rx="2.5" ry="2.5" style="stroke:#000000;stroke-width:1;" width="201.4541" x="35.27" y="153.2746"/><ellipse cx="82.8847" cy="167.2746" fill="#FFFFFF" rx="9" ry="9" style="stroke:#000000;stroke-width:1;"/><path d="M85.3579,173.4177 Q84.7768,173.7165 84.1377,173.8659 Q83.4985,174.0153 82.7929,174.0153 Q80.2861,174.0153 78.9663,172.3635 Q77.6465,170.7116 77.6465,167.5905 Q77.6465,164.4611 78.9663,162.8093 Q80.2861,161.1574 82.7929,161.1574 Q83.4985,161.1574 84.146,161.3068 Q84.7934,161.4562 85.3579,161.7551 L85.3579,164.4777 Q84.727,163.8967 84.1335,163.6269 Q83.54,163.3571 82.9092,163.3571 Q81.5644,163.3571 80.8796,164.4238 Q80.1948,165.4904 80.1948,167.5905 Q80.1948,169.6823 80.8796,170.749 Q81.5644,171.8156 82.9092,171.8156 Q83.54,171.8156 84.1335,171.5458 Q84.727,171.2761 85.3579,170.695 Z " fill="#000000"/><text fill="#000000" font-family="Verdana" font-size="14" lengthAdjust="spacing" textLength="98.7246" x="100.3847" y="172.8425">GreetUseCase</text><line style="stroke:#000000;stroke-width:1;" x1="36.27" x2="235.7241" y1="181.2746" y2="181.2746"/><rect fill="none" height="6" style="stroke:#000000;stroke-width:1;" width="6" x="43.27" y="192.2819"/><text fill="#000000" font-family="Verdana" font-size="14" lengthAdjust="spacing" textLength="117.9473" x="53.27" y="199.3498">writer WriterPort</text><line style="stroke:#000000;stroke-width:1;" x1="36.27" x2="235.7241" y1="206.2893" y2="206.2893"/><ellipse cx="46.27" cy="220.2966" fill="#FFFFFF" rx="3" ry="3" style="stroke:#000000;stroke-width:1;"/><text fill="#000000" font-family="Verdana" font-size="14" lengthAdjust="spacing" textLength="177.4541" x="53.27" y="224.3645">Execute(ctx, cmd) Result</text></g><!--class StaticCW--><g class="entity" data-entity="StaticCW" data-source-line="25" data-uid="ent0010" id="entity_StaticCW"><rect fill="#FFFFFF" height="74.6133" rx="2.5" ry="2.5" style="stroke:#000000;stroke-width:1;" width="215.8643" x="1148.07" y="154.9846"/><ellipse cx="1198.5046" cy="175.7839" fill="#FFFFFF" rx="9" ry="9" style="stroke:#000000;stroke-width:1;"/><path d="M1200.9777,181.927 Q1200.3967,182.2258 1199.7575,182.3752 Q1199.1183,182.5246 1198.4128,182.5246 Q1195.9059,182.5246 1194.5861,180.8728 Q1193.2663,179.2209 1193.2663,176.0998 Q1193.2663,172.9704 1194.5861,171.3186 Q1195.9059,169.6667 1198.4128,169.6667 Q1199.1183,169.6667 1199.7658,169.8162 Q1200.4133,169.9656 1200.9777,170.2644 L1200.9777,172.9871 Q1200.3469,172.406 1199.7533,172.1362 Q1199.1598,171.8664 1198.529,171.8664 Q1197.1843,171.8664 1196.4994,172.9331 Q1195.8146,173.9997 1195.8146,176.0998 Q1195.8146,178.1916 1196.4994,179.2583 Q1197.1843,180.3249 1198.529,180.3249 Q1199.1598,180.3249 1199.7533,180.0552 Q1200.3469,179.7854 1200.9777,179.2043 Z " fill="#000000"/><text fill="#000000" font-family="Verdana" font-size="12" font-style="italic" lengthAdjust="spacing" textLength="97.6582" x="1220.923" y="172.0491">&#171;concrete type&#187;</text><text fill="#000000" font-family="Verdana" font-size="14" lengthAdjust="spacing" textLength="107.4951" x="1216.0046" y="188.6438">*ConsoleWriter</text><line style="stroke:#000000;stroke-width:1;" x1="1149.07" x2="1362.9343" y1="196.5832" y2="196.5832"/><line style="stroke:#000000;stroke-width:1;" x1="1149.07" x2="1362.9343" y1="204.5832" y2="204.5832"/><ellipse cx="1159.07" cy="218.5906" fill="#FFFFFF" rx="3" ry="3" style="stroke:#000000;stroke-width:1;"/><text fill="#000000" font-family="Verdana" font-size="14" lengthAdjust="spacing" textLength="191.8643" x="1166.07" y="222.6584">Write(ctx, message) Result</text></g><!--class StaticGUC--><g class="entity" data-entity="StaticGUC" data-source-line="29" data-uid="ent0011" id="entity_StaticGUC"><rect fill="#FFFFFF" height="91.6279" rx="2.5" ry="2.5" style="stroke:#000000;stroke-width:1;" width="230.125" x="882.94" y="146.4746"/><ellipse cx="895.94" cy="167.2739" fill="#FFFFFF" rx="9" ry="9" style="stroke:#000000;stroke-width:1;"/><path d="M898.4131,173.417 Q897.8321,173.7158 897.1929,173.8652 Q896.5538,174.0146 895.8482,174.0146 Q893.3414,174.0146 892.0215,172.3628 Q890.7017,170.7109 890.7017,167.5898 Q890.7017,164.4604 892.0215,162.8086 Q893.3414,161.1567 895.8482,161.1567 Q896.5538,161.1567 897.2012,161.3062 Q897.8487,161.4556 898.4131,161.7544 L898.4131,164.4771 Q897.7823,163.896 897.1888,163.6262 Q896.5953,163.3564 895.9644,163.3564 Q894.6197,163.3564 893.9349,164.4231 Q893.2501,165.4897 893.2501,167.5898 Q893.2501,169.6816 893.9349,170.7483 Q894.6197,171.8149 895.9644,171.8149 Q896.5953,171.8149 897.1888,171.5452 Q897.7823,171.2754 898.4131,170.6943 Z " fill="#000000"/><text fill="#000000" font-family="Verdana" font-size="12" font-style="italic" lengthAdjust="spacing" textLength="98.3789" x="959.813" y="163.5391">&#171;generic struct&#187;</text><text fill="#000000" font-family="Verdana" font-size="14" lengthAdjust="spacing" textLength="202.125" x="907.94" y="180.1338">GreetUseCase[W WriterPort]</text><line style="stroke:#000000;stroke-width:1;" x1="883.94" x2="1112.065" y1="188.0732" y2="188.0732"/><rect fill="none" height="6" style="stroke:#000000;stroke-width:1;" width="6" x="890.94" y="199.0806"/><text fill="#000000" font-family="Verdana" font-size="14" lengthAdjust="spacing" textLength="59.8691" x="900.94" y="206.1484">writer W</text><line style="stroke:#000000;stroke-width:1;" x1="883.94" x2="1112.065" y1="213.0879" y2="213.0879"/><ellipse cx="893.94" cy="227.0952" fill="#FFFFFF" rx="3" ry="3" style="stroke:#000000;stroke-width:1;"/><text fill="#000000" font-family="Verdana" font-size="14" lengthAdjust="spacing" textLength="177.4541" x="900.94" y="231.1631">Execute(ctx, cmd) Result</text></g><!--class StaticInst--><g class="entity" data-entity="StaticInst" data-source-line="34" data-uid="ent0012" id="entity_StaticInst"><rect fill="#FFFFFF" height="108.6426" rx="2.5" ry="2.5" style="stroke:#000000;stroke-width:1;" width="191.1631" x="1031.42" y="373.8546"/><ellipse cx="1053.8573" cy="403.1613" fill="#FFFFFF" rx="9" ry="9" style="stroke:#000000;stroke-width:1;"/><path d="M1056.3304,409.3043 Q1055.7493,409.6031 1055.1102,409.7526 Q1054.471,409.902 1053.7655,409.902 Q1051.2586,409.902 1049.9388,408.2501 Q1048.619,406.5983 1048.619,403.4772 Q1048.619,400.3478 1049.9388,398.6959 Q1051.2586,397.0441 1053.7655,397.0441 Q1054.471,397.0441 1055.1185,397.1935 Q1055.7659,397.3429 1056.3304,397.6417 L1056.3304,400.3644 Q1055.6995,399.7833 1055.106,399.5135 Q1054.5125,399.2438 1053.8817,399.2438 Q1052.5369,399.2438 1051.8521,400.3104 Q1051.1673,401.3771 1051.1673,403.4772 Q1051.1673,405.569 1051.8521,406.6356 Q1052.5369,407.7023 1053.8817,407.7023 Q1054.5125,407.7023 1055.106,407.4325 Q1055.6995,407.1627 1056.3304,406.5817 Z " fill="#000000"/><text fill="#000000" font-family="Verdana" font-size="12" font-style="italic" lengthAdjust="spacing" textLength="146.1914" x="1065.9544" y="390.9191">&#171;wired at compile time&#187;</text><text fill="#000000" font-family="Verdana" font-size="14" lengthAdjust="spacing" textLength="68.0244" x="1105.0379" y="407.5138">Bootstrap</text><text fill="#000000" font-family="Verdana" font-size="14" lengthAdjust="spacing" textLength="89.3115" x="1094.3944" y="424.5284">Instantiation</text><line style="stroke:#000000;stroke-width:1;" x1="1032.42" x2="1221.5831" y1="432.4679" y2="432.4679"/><text fill="#000000" font-family="Verdana" font-size="14" lengthAdjust="spacing" textLength="179.1631" x="1037.42" y="450.5431">uc := NewGreetUseCase[</text><line style="stroke:#000000;stroke-width:1;" x1="1032.42" x2="1221.5831" y1="457.4825" y2="457.4825"/><ellipse cx="1042.42" cy="471.4899" fill="#FFFFFF" rx="3" ry="3" style="stroke:#000000;stroke-width:1;"/><text fill="#000000" font-family="Verdana" font-size="14" lengthAdjust="spacing" textLength="158.7715" x="1049.42" y="475.5577">ConsoleWriter](writer)</text></g><g class="entity" data-entity="GMN15" data-source-line="44" data-uid="ent0016" id="entity_GMN15"><path d="M558.38,124.0846 L558.38,260.4791 L741.6134,260.4791 L741.6134,134.0846 L731.6134,124.0846 L558.38,124.0846" fill="#FFFFFF" style="stroke:#000000;stroke-width:1;"/><path d="M731.6134,124.0846 L731.6134,134.0846 L741.6134,134.0846 L731.6134,124.0846" fill="#FFFFFF" style="stroke:#000000;stroke-width:1;"/><text fill="#000000" font-family="Verdana" font-size="13" font-weight="bold" lengthAdjust="spacing" textLength="103.0859" x="564.38" y="142.1544">Runtime Cost:</text><text fill="#000000" font-family="Verdana" font-size="13" lengthAdjust="spacing" textLength="162.2334" x="564.38" y="157.9537">&#8226; Vtable lookup each call</text><text fill="#000000" font-family="Verdana" font-size="13" lengthAdjust="spacing" textLength="137.979" x="564.38" y="173.7531">&#8226; No inlining possible</text><text fill="#000000" font-family="Verdana" font-size="13" lengthAdjust="spacing" textLength="158.4248" x="564.38" y="189.5524">&#8226; Interface value boxing</text><text fill="#000000" font-family="Verdana" font-size="13" lengthAdjust="spacing" textLength="4.5703" x="564.38" y="205.3517">&#160;</text><text fill="#000000" font-family="Verdana" font-size="13" font-weight="bold" lengthAdjust="spacing" textLength="65.2285" x="564.38" y="221.151">Benefits:</text><text fill="#000000" font-family="Verdana" font-size="13" lengthAdjust="spacing" textLength="129.562" x="564.38" y="236.9503">&#8226; Runtime flexibility</text><text fill="#000000" font-family="Verdana" font-size="13" lengthAdjust="spacing" textLength="147.8115" x="564.38" y="252.7496">&#8226; Can swap at runtime</text></g><g class="entity" data-entity="GMN18" data-source-line="55" data-uid="ent0019" id="entity_GMN18"><path d="M1434.7,124.0846 L1434.7,146.8746 L1113.56,150.8746 L1434.7,154.8746 L1434.7,260.4791 A0,0 0 0 0 1434.7,260.4791 L1693.3055,260.4791 A0,0 0 0 0 1693.3055,260.4791 L1693.3055,134.0846 L1683.3055,124.0846 L1434.7,124.0846 A0,0 0 0 0 1434.7,124.0846" fill="#FFFFFF" style="stroke:#000000;stroke-width:1;"/><path d="M1683.3055,124.0846 L1683.3055,134.0846 L1693.3055,134.0846 L1683.3055,124.0846" fill="#FFFFFF" style="stroke:#000000;stroke-width:1;"/><text fill="#000000" font-family="Verdana" font-size="13" font-weight="bold" lengthAdjust="spacing" textLength="142.27" x="1440.7" y="142.1544">Compile-Time Cost:</text><text fill="#000000" font-family="Verdana" font-size="13" lengthAdjust="spacing" textLength="107.0723" x="1440.7" y="157.9537">&#8226; Zero overhead</text><text fill="#000000" font-family="Verdana" font-size="13" lengthAdjust="spacing" textLength="147.4688" x="1440.7" y="173.7531">&#8226; Direct call (inlinable)</text><text fill="#000000" font-family="Verdana" font-size="13" lengthAdjust="spacing" textLength="121.8179" x="1440.7" y="189.5524">&#8226; No vtable lookup</text><text fill="#000000" font-family="Verdana" font-size="13" lengthAdjust="spacing" textLength="4.5703" x="1440.7" y="205.3517">&#160;</text><text fill="#000000" font-family="Verdana" font-size="13" font-weight="bold" lengthAdjust="spacing" textLength="73.106" x="1440.7" y="221.151">Trade-off:</text><text fill="#000000" font-family="Verdana" font-size="13" lengthAdjust="spacing" textLength="152.2422" x="1440.7" y="236.9503">&#8226; Fixed at compile time</text><text fill="#000000" font-family="Verdana" font-size="13" lengthAdjust="spacing" textLength="237.6055" x="1440.7" y="252.7496">&#8226; Larger binary (monomorphization)</text></g><g class="entity" data-entity="GMN21" data-source-line="66" data-uid="ent0022" id="entity_GMN21"><path d="M1431.27,336.2846 L1431.27,520.0771 L2066.7231,520.0771 L2066.7231,346.2846 L2056.7231,336.2846 L1431.27,336.2846" fill="#CCFFCC" style="stroke:#000000;stroke-width:1;"/><path d="M2056.7231,336.2846 L2056.7231,346.2846 L2066.7231,346.2846 L2056.7231,336.2846" fill="#CCFFCC" style="stroke:#000000;stroke-width:1;"/><text fill="#000000" font-family="Verdana" font-size="13" font-weight="bold" lengthAdjust="spacing" textLength="240.4302" x="1437.27" y="354.3544">This Project Uses Static Dispatch</text><text fill="#000000" font-family="Verdana" font-size="13" lengthAdjust="spacing" textLength="4.5703" x="1437.27" y="370.1537">&#160;</text><text fill="#000000" font-family="Verdana" font-size="13" lengthAdjust="spacing" textLength="40.7837" x="1437.27" y="385.9531">```go</text><text fill="#000000" font-family="Verdana" font-size="13" lengthAdjust="spacing" textLength="292.4937" x="1437.27" y="401.7524">// Bootstrap instantiates with concrete types</text><text fill="#000000" font-family="Verdana" font-size="13" lengthAdjust="spacing" textLength="250.2754" x="1437.27" y="417.5517">writer := adapter.NewConsoleWriter()</text><text fill="#000000" font-family="Verdana" font-size="13" lengthAdjust="spacing" textLength="433.5894" x="1437.27" y="433.351">uc := usecase.NewGreetUseCase[*adapter.ConsoleWriter](writer)</text><text fill="#000000" font-family="Verdana" font-size="13" lengthAdjust="spacing" textLength="614.4531" x="1437.27" y="449.1503">cmd := command.NewGreetCommand[*usecase.GreetUseCase[*adapter.ConsoleWriter]](uc)</text><text fill="#000000" font-family="Verdana" font-size="13" lengthAdjust="spacing" textLength="4.5703" x="1437.27" y="464.9496">&#160;</text><text fill="#000000" font-family="Verdana" font-size="13" lengthAdjust="spacing" textLength="200.021" x="1437.27" y="480.749">// Compiler knows exact types</text><text fill="#000000" font-family="Verdana" font-size="13" lengthAdjust="spacing" textLength="228.3823" x="1437.27" y="496.5483">// All calls are statically dispatched</text><text fill="#000000" font-family="Verdana" font-size="13" lengthAdjust="spacing" textLength="24.7939" x="1437.27" y="512.3476">```</text></g><g class="entity" data-entity="GMN24" data-source-line="80" data-uid="ent0025" id="entity_GMN24"><path d="M555.2,320.4846 L555.2,535.8757 L834.7908,535.8757 L834.7908,330.4846 L824.7908,320.4846 L555.2,320.4846" fill="#FFCCCC" style="stroke:#000000;stroke-width:1;"/><path d="M824.7908,320.4846 L824.7908,330.4846 L834.7908,330.4846 L824.7908,320.4846" fill="#FFCCCC" style="stroke:#000000;stroke-width:1;"/><text fill="#000000" font-family="Verdana" font-size="13" font-weight="bold" lengthAdjust="spacing" textLength="250.6182" x="561.2" y="338.5544">Traditional Go Pattern (NOT used)</text><text fill="#000000" font-family="Verdana" font-size="13" lengthAdjust="spacing" textLength="4.5703" x="561.2" y="354.3538">&#160;</text><text fill="#000000" font-family="Verdana" font-size="13" lengthAdjust="spacing" textLength="40.7837" x="561.2" y="370.1531">```go</text><text fill="#000000" font-family="Verdana" font-size="13" lengthAdjust="spacing" textLength="179.9751" x="561.2" y="385.9524">// Interface-based injection</text><text fill="#000000" font-family="Verdana" font-size="13" lengthAdjust="spacing" textLength="179.8608" x="561.2" y="401.7517">type GreetUseCase struct {</text><text fill="#000000" font-family="Verdana" font-size="13" lengthAdjust="spacing" textLength="225.3735" x="579.4813" y="417.551">writer WriterPort  // interface type</text><text fill="#000000" font-family="Verdana" font-size="13" lengthAdjust="spacing" textLength="8.252" x="561.2" y="433.3503">}</text><text fill="#000000" font-family="Verdana" font-size="13" lengthAdjust="spacing" textLength="4.5703" x="561.2" y="449.1496">&#160;</text><text fill="#000000" font-family="Verdana" font-size="13" lengthAdjust="spacing" textLength="198.231" x="561.2" y="464.949">// Runtime dispatch via vtable</text><text fill="#000000" font-family="Verdana" font-size="13" lengthAdjust="spacing" textLength="258.5908" x="561.2" y="480.7483">func (uc *GreetUseCase) Execute(...) {</text><text fill="#000000" font-family="Verdana" font-size="13" lengthAdjust="spacing" textLength="236.9453" x="579.4813" y="496.5476">uc.writer.Write(...)  // vtable lookup</text><text fill="#000000" font-family="Verdana" font-size="13" lengthAdjust="spacing" textLength="8.252" x="561.2" y="512.3469">}</text><text fill="#000000" font-family="Verdana" font-size="13" lengthAdjust="spacing" textLength="24.7939" x="561.2" y="528.1462">```</text></g><!--reverse link WriterPort to ConsoleWriter--><g class="link" data-entity-1="WriterPort" data-entity-2="ConsoleWriter" data-source-line="20" data-uid="lnk7" id="link_WriterPort_ConsoleWriter"><path codeLine="20" d="M380,247.9246 C380,294.3646 380,354.4246 380,397.4346" fill="none" id="WriterPort-backto-ConsoleWriter" style="stroke:#000000;stroke-width:1;stroke-dasharray:7,7;"/><polygon fill="none" points="380,229.9246,374,247.9246,386,247.9246,380,229.9246" style="stroke:#000000;stroke-width:1;"/></g><!--link GreetUseCase to WriterPort--><g class="link" data-entity-1="GreetUseCase" data-entity-2="WriterPort" data-source-line="21" data-uid="lnk8" id="link_GreetUseCase_WriterPort"><path codeLine="21" d="M249.01,191.8746 C260.54,191.8746 254.34,191.8746 265.96,191.8746" fill="none" id="GreetUseCase-WriterPort" style="stroke:#000000;stroke-width:1;"/><polygon fill="none" points="237.01,191.8746,243.01,195.8746,249.01,191.8746,243.01,187.8746,237.01,191.8746" style="stroke:#000000;stroke-width:1;"/><polygon fill="#000000" points="271.96,191.8746,262.96,187.8746,266.96,191.8746,262.96,195.8746,271.96,191.8746" style="stroke:#000000;stroke-width:1;"/><text fill="#000000" font-family="Verdana" font-size="13" lengthAdjust="spacing" textLength="75.4736" x="216.98" y="205.9444">depends on</text><text fill="#000000" font-family="Verdana" font-size="13" lengthAdjust="spacing" textLength="57.1035" x="226.1651" y="221.7437">interface</text></g><!--link StaticCW to StaticInst--><g class="link" data-entity-1="StaticCW" data-entity-2="StaticInst" data-source-line="39" data-uid="lnk13" id="link_StaticCW_StaticInst"><path codeLine="39" d="M1185.32,229.9246 C1185.32,268.6846 1185.32,323.4846 1185.32,367.5446" fill="none" id="StaticCW-to-StaticInst" style="stroke:#000000;stroke-width:1;stroke-dasharray:7,7;"/><polygon fill="#000000" points="1185.32,373.5446,1189.32,364.5446,1185.32,368.5446,1181.32,364.5446,1185.32,373.5446" style="stroke:#000000;stroke-width:1;"/><text fill="#000000" font-family="Verdana" font-size="13" lengthAdjust="spacing" textLength="89.0513" x="1095.32" y="298.8044">concrete type</text></g><!--link StaticGUC to StaticInst--><g class="link" data-entity-1="StaticGUC" data-entity-2="StaticInst" data-source-line="40" data-uid="lnk14" id="link_StaticGUC_StaticInst"><path codeLine="40" d="M1072.24,238.3246 C1072.24,277.0746 1072.24,326.5746 1072.24,367.5546" fill="none" id="StaticGUC-to-StaticInst" style="stroke:#000000;stroke-width:1;stroke-dasharray:7,7;"/><polygon fill="#000000" points="1072.24,373.5546,1076.24,364.5546,1072.24,368.5546,1068.24,364.5546,1072.24,373.5546" style="stroke:#000000;stroke-width:1;"/><text fill="#000000" font-family="Verdana" font-size="13" lengthAdjust="spacing" textLength="109.313" x="962.24" y="287.0144">instantiated with</text><text fill="#000000" font-family="Verdana" font-size="13" lengthAdjust="spacing" textLength="89.0513" x="972.3709" y="302.8137">concrete type</text></g><!--link GreetUseCase to GMN15--><g class="link" data-entity-1="GreetUseCase" data-entity-2="GMN15" data-source-line="44" data-uid="lnk17" id="link_GreetUseCase_GMN15"><path d="M136,152.9046 C136,144.9046 136,138.8746 136,138.8746 C136,138.8746 410.26,138.8746 558.11,138.8746" fill="none" id="GreetUseCase-GMN15" style="stroke:#000000;stroke-width:1;stroke-dasharray:7,7;"/></g><!--link StaticPkg to GMN21--><g class="link" data-entity-1="StaticPkg" data-entity-2="GMN21" data-source-line="66" data-uid="lnk23" id="link_StaticPkg_GMN21"><path d="M1407.0559,354.8746 C1407.2236,354.8746 1407.3937,354.8746 1407.5663,354.8746 C1413.0875,354.8746 1421.085,354.8746 1430.99,354.8746" fill="none" id="StaticPkg-GMN21" style="stroke:#000000;stroke-width:1;stroke-dasharray:7,7;"/></g><!--link DynamicPkg to GMN24--><g class="link" data-entity-1="DynamicPkg" data-entity-2="GMN24" data-source-line="80" data-uid="lnk26" id="link_DynamicPkg_GMN24"><path d="M531.1086,358.8746 C531.193,358.8746 531.2779,358.8746 531.3635,358.8746 C531.5346,358.8746 531.708,358.8746 531.8838,358.8746 C537.5075,358.8746 545.495,358.8746 554.95,358.8746" fill="none" id="DynamicPkg-GMN24" style="stroke:#000000;stroke-width:1;stroke-dasharray:7,7;"/></g><g class="legend" data-source-line="95"><rect fill="none" height="486.4102" rx="7.5" ry="7.5" style="stroke:#000000;stroke-width:1;" width="556" x="1498.7231" y="546.8757"/><text fill="#000000" font-family="Verdana" font-size="14" font-weight="bold" lengthAdjust="spacing" textLength="166.6055" x="1503.7231" y="565.9509">Why Static Dispatch?</text><text fill="#000000" font-family="Verdana" font-size="14" lengthAdjust="spacing" textLength="546" x="1503.7231" y="582.9656">&#9552;&#9552;&#9552;&#9552;&#9552;&#9552;&#9552;&#9552;&#9552;&#9552;&#9552;&#9552;&#9552;&#9552;&#9552;&#9552;&#9552;&#9552;&#9552;&#9552;&#9552;&#9552;&#9552;&#9552;&#9552;&#9552;&#9552;&#9552;&#9552;&#9552;&#9552;&#9552;&#9552;&#9552;&#9552;&#9552;&#9552;&#9552;&#9552;</text><text fill="#000000" font-family="Verdana" font-size="14" lengthAdjust="spacing" textLength="4.9219" x="1503.7231" y="599.9802">&#160;</text><text fill="#000000" font-family="Verdana" font-size="14" font-weight="bold" lengthAdjust="spacing" textLength="106.3057" x="1503.7231" y="616.9949">Performance:</text><text fill="#000000" font-family="Verdana" font-size="14" lengthAdjust="spacing" textLength="175.2393" x="1503.7231" y="634.0095">&#8226; Zero runtime overhead</text><text fill="#000000" font-family="Verdana" font-size="14" lengthAdjust="spacing" textLength="202.5898" x="1503.7231" y="651.0242">&#8226; Method calls can be inlined</text><text fill="#000000" font-family="Verdana" font-size="14" lengthAdjust="spacing" textLength="212.5293" x="1503.7231" y="668.0388">&#8226; No interface value allocation</text><text fill="#000000" font-family="Verdana" font-size="14" lengthAdjust="spacing" textLength="4.9219" x="1503.7231" y="685.0535">&#160;</text><text fill="#000000" font-family="Verdana" font-size="14" font-weight="bold" lengthAdjust="spacing" textLength="98.1572" x="1503.7231" y="702.0681">Type Safety:</text><text fill="#000000" font-family="Verdana" font-size="14" lengthAdjust="spacing" textLength="253.5107" x="1503.7231" y="719.0828">&#8226; Full type checking at compile time</text><text fill="#000000" font-family="Verdana" font-size="14" lengthAdjust="spacing" textLength="217.3555" x="1503.7231" y="736.0974">&#8226; Errors caught before runtime</text><text fill="#000000" font-family="Verdana" font-size="14" lengthAdjust="spacing" textLength="4.9219" x="1503.7231" y="753.1121">&#160;</text><text fill="#000000" font-family="Verdana" font-size="14" font-weight="bold" lengthAdjust="spacing" textLength="175.5674" x="1503.7231" y="770.1267">Matching Ada Pattern:</text><text fill="#000000" font-family="Verdana" font-size="14" lengthAdjust="spacing" textLength="270.2451" x="1503.7231" y="787.1413">&#8226; Ada uses generics for static dispatch</text><text fill="#000000" font-family="Verdana" font-size="14" lengthAdjust="spacing" textLength="287" x="1503.7231" y="804.156">&#8226; Go generics provide equivalent pattern</text><text fill="#000000" font-family="Verdana" font-size="14" lengthAdjust="spacing" textLength="283.1787" x="1503.7231" y="821.1706">&#8226; Same architecture, same performance</text><text fill="#000000" font-family="Verdana" font-size="14" lengthAdjust="spacing" textLength="4.9219" x="1503.7231" y="838.1853">&#160;</text><text fill="#000000" font-family="Verdana" font-size="14" font-weight="bold" lengthAdjust="spacing" textLength="161.0205" x="1503.7231" y="855.1999">Go Generics (1.18+)</text><text fill="#000000" font-family="Verdana" font-size="14" lengthAdjust="spacing" textLength="546" x="1503.7231" y="872.2146">&#9552;&#9552;&#9552;&#9552;&#9552;&#9552;&#9552;&#9552;&#9552;&#9552;&#9552;&#9552;&#9552;&#9552;&#9552;&#9552;&#9552;&#9552;&#9552;&#9552;&#9552;&#9552;&#9552;&#9552;&#9552;&#9552;&#9552;&#9552;&#9552;&#9552;&#9552;&#9552;&#9552;&#9552;&#9552;&#9552;&#9552;&#9552;&#9552;</text><text fill="#000000" font-family="Verdana" font-size="14" lengthAdjust="spacing" textLength="43.9209" x="1503.7231" y="889.2292">```go</text><text fill="#000000" font-family="Verdana" font-size="14" lengthAdjust="spacing" textLength="297.0967" x="1503.7231" y="906.2439">type GreetUseCase[W WriterPort] struct {</text><text fill="#000000" font-family="Verdana" font-size="14" lengthAdjust="spacing" textLength="285.0381" x="1523.4106" y="923.2585">writer W  // Concrete type, not interface</text><text fill="#000000" font-family="Verdana" font-size="14" lengthAdjust="spacing" textLength="8.8867" x="1503.7231" y="940.2732">}</text><text fill="#000000" font-family="Verdana" font-size="14" lengthAdjust="spacing" textLength="4.9219" x="1503.7231" y="957.2878">&#160;</text><text fill="#000000" font-family="Verdana" font-size="14" lengthAdjust="spacing" textLength="215.8037" x="1503.7231" y="974.3025">// W is known at instantiation:</text><text fill="#000000" font-family="Verdana" font-size="14" lengthAdjust="spacing" textLength="300.8564" x="1503.7231" y="991.3171">//   NewGreetUseCase[*ConsoleWriter](w)</text><text fill="#000000" font-family="Verdana" font-size="14" lengthAdjust="spacing" textLength="329.4717" x="1503.7231" y="1008.3318">// Compiler generates code for *ConsoleWriter</text><text fill="#000000" font-family="Verdana" font-size="14" lengthAdjust="spacing" textLength="26.7012" x="1503.7231" y="1025.3464">```</text></g><!--SRC=[nLPTRXit47xVKqpT5qcnDZ3G0gcHkaZMac6WSONOgO761annHnAh5RabkVffQw17w4ilqAFr91qkkN-I3IGlBH0uskNi36U-7_8Bky0LGfun8IEp539dcgqW4nBjBaTGsYvK55bXCuHhowpWi3PmlfDiHJ_FXScPvOixUOuvoXGbty6b_1cv5Kg2a72XO2Fi0YvGeXRSH57E-9BD4OuEa_JU5z8Asiz4PRkLqlb2c5N_25XTSRASmvVZyUYhqGdy5W5LiAXdZ2FSQa4_9xHXUFswVdrsLeO1l2ZNUznkZs65nj0E-l0UJP5PMd-Cw0_Fc36GA6bKXZxTvtvyeH7j1uC9CnY-7MvyfcP_FkLeYxoeal9Lkf-mku-uoEFVpxf9EiNKK8lvmWxRCN0AQGcB0INlP3sKwB65GW2r1KAYLhd8S7ZpD1B-WnA8qQlnrwDloaPz_qU3phPRySajmSALv1ejWkFMvqDprExuusshq_jMfOiF2PMQUxw1iRhWjgvLe_5f88IwRvMob8ZbT_9I6ik8fCmHl5NLlQUo6w4n1MQ1-o62etDTlU1m-YrSuQRJIBa4q1tTVS_lj5zjfHvZdAgDZC_QTK-XCzawsetYoN1HTq6xTVgyazqCL58gUYX91MhM8Hlb7mmggIRAsDF1WDxzyyVVyADbK-ewKsfPv82CBu2pB0khLuegaxS8EOTS6ICeDYnTra9Uiwn0cAejHKLbgRU4vKnOqvIfYiyot8gfo8JTXPM4IJ0RbZiCj8-AI07WkjdlgHvIMQL3-svNFw5MeDQe5yZIyEwSaEQsx0vwPLUkytxJwRez2j_8ZMOf3jLirgGUY-qXOSBQzqpFYQjJIgrtq5ifgRmKVotPrzzlRAgiLQkcirAZIJ8U9xx36n8nJBHozWo4PSNTMloqAmfyU7YOA_h_vKkeYTzcZF6EtY6CeVWWBM8uIrbEFsDYUeVKFJSUBuB282SgnVjY65JVFgi6agbBGFDQCPdM2HB__75GPVwKjFUzWlSZtsl0NyDIgeq1t3AQKjKRhRyXe1tQ1fX6yXKtENhSGHgcXwaVtlEmT0-n9Abm8Le8XoZBt7avOPRs9g5tzSEDcrFQFy2bLijmIjsbX4uuSccvFBSxPuFtmE11DKwjSyAbR4xIO26FOIwLrgesOIrO83S5p0h9WQO8WtR9FbJE6iTnlwvSyDWNZxtbbukkHbShhlR-93ESkuTIk-NGRXUxVVf-vrNrrv___J-lxmbDK6cY8SSzymXMj6yYxv2kLscW5IVhcg9tI4pRbjcrHWfMl7I0u2eEy6isenjRorSAecj91I8cNph7VTfaHbehxOeNpXMdI0rWxPnb_dTkjYx1cvHLv6mAkPU5yv9muXgW344UDMT2B96xZigrMeiK0Nyf1FM5qaBkSuVWQqRpOffAM-9seV4OZ7kLDqFs-wEirUqIUYVnoQiN_V-H28rE3uJOlR8y9yjWHYrpFNOQQ6ZGqkOjaACxlv8ENT6-cvpw23YuRXpSC_fx_bT2LFeyLmIGWxFxJIDEhyheNm00]--></g></svg>